<?xml version="1.0" standalone="no"?>
<!DOCTYPE svg PUBLIC "-//W3C//DTD SVG 1.1//EN" "http://www.w3.org/Graphics/SVG/1.1/DTD/svg11.dtd" >
<svg>
<metadata>
Created by FontForge 20090914 at Fri Jan 30 12:05:42 2015
 By www-data
internal font for fontello.com website
</metadata>
<defs>
<font id="fontello" horiz-adv-x="1000" >
  <font-face 
    font-family="font.familyname"
    font-weight="400"
    font-stretch="normal"
    units-per-em="1000"
    panose-1="2 0 5 3 0 0 0 0 0 0"
    ascent="850"
    descent="-150"
    bbox="-87.999 -301.022 1948 1002"
    underline-thickness="0"
    underline-position="10"
    unicode-range="U+F000-U+F871"
  />
<missing-glyph 
 />
    <glyph glyph-name=".notdef" 
 />
    <glyph glyph-name=".notdef" 
 />
    <glyph glyph-name="c64623255a4a7c72436b199b05296c4f" unicode="&#xf000;" horiz-adv-x="999" 
d="M261 800c-30.667 -1.33301 -56.333 -15.5 -77 -42.5s-31.334 -60.833 -32.001 -101.5c0.666992 -41.333 11.334 -75.5 32.001 -102.5s46.334 -41.167 77.001 -42.5c30.667 1.33301 56.5 15.5 77.5 42.5s31.833 61.167 32.5 102.5
c-0.666992 40.667 -11.334 74.5 -32.001 101.5s-46.667 41.167 -78 42.5zM738.001 800c-31.333 -1.33301 -57.333 -15.5 -78 -42.5s-31.334 -60.833 -32.001 -101.5c0.666992 -41.333 11.334 -75.5 32.001 -102.5s46.667 -41.167 78 -42.5
c30.667 1.33301 56.5 15.5 77.5 42.5s31.833 61.167 32.5 102.5c-0.666992 40.667 -11.5 74.5 -32.5 101.5s-46.833 41.167 -77.5 42.5zM946.001 201c-14 0 -26.335 -5.33496 -37.002 -16.002l-12 -12c-56 -54.667 -118 -95.667 -186 -123s-138 -41.333 -210 -42
s-142 11.833 -210 37.5s-130 64.834 -186 117.501l-15 15c-10.667 10.667 -23 15.834 -37 15.501s-26.333 -6 -37 -17s-16 -23.5 -16 -37.5s5.33301 -26.667 16 -38l14 -14l3 -3c66.667 -62 140.334 -108.333 221.001 -139s163.5 -45.667 248.5 -45
s167.667 17.334 248 50.001s153.5 81 219.5 145c4.66699 5.33301 9.33398 10 14.001 14c10 11.333 15 24.166 15 38.499s-5.16699 26.833 -15.5 37.5s-22.833 16 -37.5 16z" />
    <glyph glyph-name="1ba44825e5f10920b4e3f1d0c73f79a2" unicode="&#xf001;" horiz-adv-x="999" 
d="M261 800c-30.667 -1.33301 -56.333 -15.5 -77 -42.5s-31.334 -60.833 -32.001 -101.5c0.666992 -41.333 11.334 -75.5 32.001 -102.5s46.334 -41.167 77.001 -42.5c30.667 1.33301 56.5 15.5 77.5 42.5s31.833 61.167 32.5 102.5
c-0.666992 40.667 -11.334 74.5 -32.001 101.5s-46.667 41.167 -78 42.5zM604.001 702c-14.667 -0.666992 -27.167 -6 -37.5 -16s-15.5 -22.667 -15.5 -38s5.16699 -28 15.5 -38s22.833 -15.333 37.5 -16h267c15.333 0.666992 28 6 38 16s15 22.667 15 38s-5 28 -15 38
s-22.667 15.333 -38 16h-267zM946.001 201c-14 0 -26.334 -5.33496 -37.001 -16.002l-12 -12c-56 -54.667 -118 -95.667 -186 -123s-138 -41.333 -210 -42s-142 11.833 -210 37.5s-130 64.834 -186 117.501l-15 15c-10.667 10.667 -23 15.834 -37 15.501s-26.333 -6 -37 -17
s-16 -23.5 -16 -37.5s5.33301 -26.667 16 -38c3.33301 -4 8 -8.66699 14 -14l3 -3c66.667 -62 140.334 -108.333 221.001 -139s163.5 -45.667 248.5 -45s167.667 17.334 248 50.001s153.5 81 219.5 145l14 14c10 11.333 15 24.166 15 38.499s-5.16699 26.833 -15.5 37.5
s-22.833 16 -37.5 16z" />
    <glyph glyph-name="4bb2045a2aca451705fe8a23c4a576ab" unicode="&#xf002;" horiz-adv-x="774" 
d="M664 800c-31.333 -1.33301 -57.333 -15.5 -78 -42.5s-31.334 -60.833 -32.001 -101.5c0.666992 -41.333 11.334 -75.5 32.001 -102.5s46.667 -41.167 78 -42.5c30.667 1.33301 56.5 15.5 77.5 42.5s31.833 61.167 32.5 102.5c-0.666992 40.667 -11.5 74.5 -32.5 101.5
s-46.833 41.167 -77.5 42.5zM321 702h-267c-15.333 -0.666992 -28 -6 -38 -16s-15 -22.667 -15 -38s5 -28 15 -38s22.667 -15.333 38 -16h267c15.333 0.666992 28 6 38 16s15 22.667 15 38s-5 28 -15 38s-22.667 15.333 -38 16zM59 341
c-6 0 -12.3359 -1.00195 -19.0029 -3.00195c-14 -5.33301 -23.833 -14.5 -29.5 -27.5s-6.16699 -26.5 -1.5 -40.5c23.333 -64 56.5 -120.5 99.5 -169.5s92.833 -88.833 149.5 -119.5c22 -12 45 -22.333 69 -31c58.667 -21.333 120 -32 184 -32
c57.333 0 112.666 8.66699 165.999 26c10 3.33301 20.333 7 31 11s20.667 8 30 12v1c13.333 6.66699 22.333 16.667 27 30s3.83398 26.833 -2.49902 40.5s-16.166 22.834 -29.499 27.501s-26.666 4 -39.999 -2l-24 -11c-8 -3.33301 -16.333 -6 -25 -8
c-43.333 -14 -87.666 -21.333 -132.999 -22c-51.333 0.666992 -100.666 9.66699 -147.999 27c-18.667 6.66699 -37 15 -55 25c-45.333 24 -85.333 55.833 -120 95.5s-61.334 84.834 -80.001 135.501c-4 10.667 -10.5 19.167 -19.5 25.5s-18.833 9.5 -29.5 9.5z" />
    <glyph glyph-name="53ed8570225581269cd7eff5795e8bea" unicode="&#xf003;" horiz-adv-x="999" 
d="M261 800c-30.667 -1.33301 -56.333 -15.5 -77 -42.5s-31.334 -60.833 -32.001 -101.5c0.666992 -41.333 11.334 -75.5 32.001 -102.5s46.334 -41.167 77.001 -42.5c30.667 1.33301 56.5 15.5 77.5 42.5s31.833 61.167 32.5 102.5
c-0.666992 40.667 -11.334 74.5 -32.001 101.5s-46.667 41.167 -78 42.5zM738.001 800c-31.333 -1.33301 -57.333 -15.5 -78 -42.5s-31.334 -60.833 -32.001 -101.5c0.666992 -41.333 11.334 -75.5 32.001 -102.5s46.667 -41.167 78 -42.5
c30.667 1.33301 56.5 15.5 77.5 42.5s31.833 61.167 32.5 102.5c-0.666992 40.667 -11.5 74.5 -32.5 101.5s-46.833 41.167 -77.5 42.5zM494.001 201c-83.333 0 -164.5 -15.333 -243.5 -46s-151.5 -76.667 -217.5 -138l-3 -3c-6 -5.33301 -10.667 -10 -14 -14
c-10.667 -11.333 -16 -24 -16 -38s5.33301 -26.5 16 -37.5s23 -16.5 37 -16.5s26.333 5 37 15l15 15c56 52.667 118 91.834 186 117.501s138 38.167 210 37.5s142 -14.667 210 -42s130 -68.333 186 -123l12 -12c10.667 -10.667 23 -16 37 -16s26.333 5.33301 37 16
s16 23.167 16 37.5s-5 27.166 -15 38.499c-4.66699 5.33301 -9.33398 10 -14.001 14c-66 64.667 -139.167 113.167 -219.5 145.5s-163.166 48.833 -248.499 49.5h-8z" />
    <glyph glyph-name="fd59eac4d575b48eb156590b63a355fd" unicode="&#xf004;" horiz-adv-x="888" 
d="M53 693c-10.667 0 -20.6689 -3.33301 -30.002 -10c-12 -8.66699 -19.333 -20 -22 -34s0.333008 -27.667 9 -41c23.333 -32 52 -57 86 -75s70.667 -27 110 -27c36 0 69.833 7.5 101.5 22.5s58.834 35.833 81.501 62.5c10 11.333 14.667 24 14 38s-6.66699 26.167 -18 36.5
s-24.166 15.166 -38.499 14.499s-26.833 -6.66699 -37.5 -18l-1 -1v-1l-13 -13l-11 -9v0c-30.667 -20.667 -63.667 -28.167 -99 -22.5s-64.333 23.834 -87 54.501c-5.33301 7.33301 -12 13 -20 17s-16.333 6 -25 6zM537.998 693c-10.667 0 -20.665 -3.33301 -29.998 -10
c-12 -8.66699 -19.333 -20 -22 -34s0.333008 -27.667 9 -41c23.333 -32 52.166 -57 86.499 -75s71.166 -27 110.499 -27c35.333 0 68.833 7.5 100.5 22.5s59.167 35.833 82.5 62.5c9.33301 11.333 13.666 24 12.999 38s-6.66699 26.167 -18 36.5
s-24.166 15.166 -38.499 14.499s-26.5 -6.66699 -36.5 -18h-1l-1 -1v-1l-12 -12v-1l-12 -9c-30.667 -20.667 -63.667 -28.167 -99 -22.5s-64.333 23.834 -87 54.501c-5.33301 7.33301 -12 13 -20 17s-16.333 6 -25 6zM103 114c-14.667 -0.666992 -27 -6 -37 -16
s-15 -22.5 -15 -37.5s5 -27.5 15 -37.5s22.333 -15.333 37 -16h682c15.333 0.666992 28 6 38 16s15 22.667 15 38s-5 28 -15 38s-22.667 15 -38 15h-682z" />
    <glyph glyph-name="142263941b9f4cd4b2b84f1f4cd13b1d" unicode="&#xf005;" horiz-adv-x="1447" 
d="M744 850c-30.667 -1.33301 -56.334 -15.333 -77.001 -42s-31.334 -60.334 -32.001 -101.001c0.666992 -40.667 11.334 -74.334 32.001 -101.001s46.334 -40.667 77.001 -42c30.667 1.33301 56.167 15.333 76.5 42s30.833 60.334 31.5 101.001
c-0.666992 40.667 -11.167 74.334 -31.5 101.001s-45.833 40.667 -76.5 42zM142 770c-14.667 -0.666992 -27 -5.99902 -37 -15.999s-15 -22.667 -15 -38s5 -27.833 15 -37.5s22.333 -14.834 37 -15.501h290c15.333 0.666992 28 6 38 16s15 22.333 15 37s-5 27 -15 37
s-22.667 15.333 -38 16zM1182 749.001c-16 0 -33.998 -2.33398 -53.998 -7.00098c-54 -27.333 -85.5 -66.5 -94.5 -117.5s-8.5 -100.5 1.5 -148.5h-131c-34.667 -0.666992 -63.834 -12.334 -87.501 -35.001s-35.834 -52 -36.501 -88c0 -17.333 2.33301 -34.5 7 -51.5
s12.334 -32.5 23.001 -46.5c-10 -10.667 -17.667 -23.667 -23 -39c-8.66699 -24 -11.167 -49 -7.5 -75s13.834 -48.667 30.501 -68l-11 -16l-7 -11c-14 -30 -16.833 -62.5 -8.5 -97.5s26.5 -62.167 54.5 -81.5c16.667 -11.333 38 -17 64 -17h378
c46.667 2.66699 85.834 19.5 117.501 50.5s48.167 70.167 49.5 117.5v288c-0.666992 25.333 -6.33398 51.333 -17.001 78s-21.334 51 -32.001 73l-73 174c-14.667 36.667 -33.334 65.334 -56.001 86.001s-51.667 31.334 -87 32.001zM1185 634
c14.667 -1.33301 25.834 -9.99707 33.501 -25.9971s13.5 -29.667 17.5 -41c10.667 -27.333 21.334 -57.5 32.001 -90.5s21.334 -63.167 32.001 -90.5c10.667 -24 19.667 -45.167 27 -63.5s11 -31.833 11 -40.5v-255c-0.666992 -20.667 -8.33398 -37.834 -23.001 -51.501
s-32.334 -21.167 -53.001 -22.5h-332c-16.667 0.666992 -26.667 8.66699 -30 24c-2.66699 8 -4 16.167 -4 24.5s2.66699 15.833 8 22.5c6.66699 8.66699 15.334 13 26.001 13s19.834 3.66699 27.501 11s11.5 16.333 11.5 27s-3.66699 19.5 -11 26.5s-16 10.5 -26 10.5
s-18.333 3.66699 -25 11c-7.33301 8.66699 -11.166 19.667 -11.499 33s3.5 24 11.5 32c3.33301 4 7.16602 6.66699 11.499 8s8.5 2 12.5 2c10.667 0 19.667 3.66699 27 11s11 16.333 11 27s-3.66699 19.667 -11 27s-16.333 11 -27 11
c-13.333 0.666992 -22.333 6.16699 -27 16.5s-6.83398 21.666 -6.50098 33.999s5.83301 21.833 16.5 28.5c7.33301 1.33301 39.666 2.33301 96.999 3l113 1c14 0.666992 24.667 6.66699 32 18s7.66602 23.666 0.999023 36.999c-15.333 30.667 -23.5 72.167 -24.5 124.5
s14.5 84.5 46.5 96.5c2 0.666992 4 1 6 1zM52.002 370.003c-7.33301 0 -13.999 -1.33203 -19.999 -3.99902c-14 -6.66699 -23.5 -16.667 -28.5 -30s-4.5 -27 1.5 -41c34 -74.667 80.833 -137.334 140.5 -188.001s127.5 -87 203.5 -109c29.333 -8 59.333 -13.667 90 -17
s61 -4 91 -2h5c15.333 2 27.666 8.33301 36.999 19s13.5 23.5 12.5 38.5s-7 27.167 -18 36.5s-24.167 13.666 -39.5 12.999h-3c-25.333 -1.33301 -50 -0.666016 -74 2.00098s-48 7 -72 13c-60.667 17.333 -115 46.5 -163 87.5s-85.667 91.167 -113 150.5
c-4.66699 10 -11.5 17.833 -20.5 23.5s-18.833 8.16699 -29.5 7.5z" />
    <glyph glyph-name="4dd56d61fd0dab19277824da301424b3" unicode="&#xf006;" 
d="M111 850l-4.00195 0.000976562c-1.33301 0 -2.66602 -0.333008 -3.99902 -1h-3h-1c-8.66699 -2.66699 -16.667 -6.66699 -24 -12l-5 -4c-0.666992 -0.666992 -2 -1.66699 -4 -3v0v0v0v0c-10.667 -10.667 -20 -22 -28 -34l-5 -7
c-1.33301 -2 -2.66602 -4.33301 -3.99902 -7v0v0v0c-6.66699 -12 -12.334 -24.667 -17.001 -38l-4 -15c-8 -33.333 -10 -66.333 -6 -99s12 -62.334 24 -89.001c5.33301 -10 10.5 -19.167 15.5 -27.5s10.167 -16.166 15.5 -23.499h1v0c5.33301 -6 11.833 -9.33301 19.5 -10
s14.834 1.66602 21.501 6.99902v0c1.33301 0.666992 2.66602 2 3.99902 4v0v0l12 16l5 5v1c4 4 8 8.66699 12 14l3 2l2 2v1v0c22 23.333 46.667 44 74 62c5.33301 4 10.5 7.5 15.5 10.5s10.5 5.83301 16.5 8.5c0 0.666992 0.333008 1 1 1c7.33301 4 12 9.83301 14 17.5
s1 15.167 -3 22.5v0c-2 4.66699 -5.66699 8.33398 -11 11.001l-1 1h-1l-3 2v0v0v0c-6.66699 2 -13.334 4.66699 -20.001 8c-0.666992 0 -1.66699 0.666992 -3 2l-3 1l-1 1c-5.33301 2.66699 -10.666 6 -15.999 10l-4 4h-1v0v0v0c-22.667 19.333 -36 41.666 -40 66.999l-1 14
c0 5.33301 0.333008 10 1 14v1c2 10 2 18.333 0 25l-2 9h-1c-3.33301 8 -8 14.333 -14 19l-4 2c-1.33301 1.33301 -2.66602 2 -3.99902 2v0v0c-4.66699 2 -9.66699 3 -15 3zM887.998 850.001c-5.33301 0 -10.0029 -1 -14.0029 -3v0v0c-2 0 -3.66699 -0.5 -5 -1.5
s-2.33301 -1.83301 -3 -2.5c-6 -4.66699 -11 -11 -15 -19l-1 -4c-0.666992 -1.33301 -1 -3 -1 -5c-2 -6.66699 -2 -15 0 -25l1 -15l-1 -14c-4 -25.333 -17.333 -47.666 -40 -66.999v0v0v0c-0.666992 0 -1 -0.333008 -1 -1l-2 -1c-0.666992 -1.33301 -1.66699 -2 -3 -2
c-4.66699 -4 -9.66699 -7.33301 -15 -10v0c-0.666992 0 -1 -0.333008 -1 -1l-3 -1c-1.33301 -1.33301 -2.66602 -2 -3.99902 -2c-6 -3.33301 -12.333 -6 -19 -8v-1v1v-1c-0.666992 0 -1.66699 -0.333008 -3 -1h-1l-2 -1v0c-4 -2.66699 -7.33301 -6.33398 -10 -11.001h-1
c-3.33301 -7.33301 -4 -14.833 -2 -22.5s6.66699 -13.5 14 -17.5c0.666992 0 1 -0.333008 1 -1c6 -2.66699 11.333 -5.66699 16 -9l16 -10c26.667 -18 51.334 -38.667 74.001 -62l2 -3l3 -2l12 -14l16 -21l0.5 -0.5l0.5 -0.5v0c0.666992 -2 2 -3.33301 4 -4v0
c6.66699 -5.33301 13.834 -7.66602 21.501 -6.99902s14.167 4 19.5 10v0v0v0v0c6 7.33301 11.667 15.166 17 23.499s10 17.5 14 27.5c12 26.667 20.167 56.334 24.5 89.001s2.5 65.667 -5.5 99v0c-1.33301 3.33301 -2 6 -2 8l-3 8c-4 12.667 -9.33301 25 -16 37l-4 7l-5 7
c-8 12 -17.333 23.333 -28 34h-1c-0.666992 1.33301 -1.66699 2.66602 -3 3.99902s-3 2.33301 -5 3c-8 5.33301 -16 9.33301 -24 12h-4c-0.666992 0.666992 -2 1 -4 1h-5zM221.995 462.001l-1 -2.00195v0c-22.667 -33.333 -34 -71.166 -34 -113.499
s11.333 -80.166 34 -113.499c11.333 -15.333 24.333 -27.333 39 -36s30.667 -13 48 -13h1c40.667 2.66699 71.167 21.167 91.5 55.5s30.5 69.833 30.5 106.5v1c0 6 -0.333008 11.333 -1 16l-7 4zM777.995 461.999l-202 -94.998c-2 -2 -4 -3.33301 -6 -4
c-0.666992 -4.66699 -1 -10 -1 -16v-1c0 -36.667 10.167 -72.167 30.5 -106.5s50.833 -52.833 91.5 -55.5v0v0v0c17.333 0 33.333 4.33301 48 13s27.667 20.667 39 36c23.333 33.333 35 71.166 35 113.499s-11.667 80.166 -35 113.499h1zM798.995 88.001
c-14 0 -26.334 -4.99902 -37.001 -14.999l-2 -3c-10 -10 -20.167 -19.667 -30.5 -29s-21.833 -18 -34.5 -26c-31.333 -20.667 -64.666 -36 -99.999 -46s-72 -14 -110 -12v-1c-47.333 2.66699 -92.333 13.667 -135 33c-7.33301 4 -14 7.33301 -20 10
c-33.333 19.333 -63.666 43.333 -90.999 72c-10.667 11.333 -23 17.166 -37 17.499s-26.5 -4.66699 -37.5 -15s-16.833 -22.5 -17.5 -36.5s4 -26.667 14 -38c34 -37.333 73.667 -68.333 119 -93c8.66699 -4.66699 17.334 -9 26.001 -13
c54.667 -25.333 112.667 -39.333 174 -42v-1c49.333 -2 97.166 3.5 143.499 16.5s89.5 32.833 129.5 59.5c16 10.667 31.167 22 45.5 34s27.5 25 39.5 39c10 11.333 15 23.833 15 37.5s-5.33301 26 -16 37s-23.334 15.833 -38.001 14.5z" />
    <glyph glyph-name="68e298ff2d8b25dd7f647ed64f5ae690" unicode="&#xf007;" horiz-adv-x="696" 
d="M110 849c-31.333 -1.33301 -57.3301 -15.5 -77.9971 -42.5s-31.334 -60.833 -32.001 -101.5c0.666992 -41.333 11.334 -75.5 32.001 -102.5s46.667 -41.167 78 -42.5c31.333 1.33301 57.166 15.5 77.499 42.5s30.833 61.167 31.5 102.5
c-0.666992 40.667 -11.334 74.5 -32.001 101.5s-46.334 41.167 -77.001 42.5zM586.003 849c-30.667 -1.33301 -56.334 -15.5 -77.001 -42.5s-31.334 -60.833 -32.001 -101.5c0.666992 -41.333 11.334 -75.5 32.001 -102.5s46.334 -41.167 77.001 -42.5
c31.333 1.33301 57.333 15.5 78 42.5s31.334 61.167 32.001 102.5c-0.666992 40.667 -11.334 74.5 -32.001 101.5s-46.667 41.167 -78 42.5zM331.003 417c-28 0 -54.333 -5.33203 -79 -15.999s-46.167 -25.167 -64.5 -43.5s-32.833 -39.833 -43.5 -64.5s-16 -51 -16 -79
v-162c0 -28 5.33301 -54.167 16 -78.5s25.167 -45.833 43.5 -64.5s39.833 -33.334 64.5 -44.001s51 -16 79 -16h34c28 0 54.333 5.33301 79 16s46.167 25.167 64.5 43.5s32.833 39.833 43.5 64.5s16 51 16 79v162c0 28 -5.33301 54.333 -16 79s-25.167 46.167 -43.5 64.5
s-39.833 32.833 -64.5 43.5s-51 16 -79 16h-34zM331.003 310.001l34.001 0.000976562c13.333 0 25.666 -2.5 36.999 -7.5s21.333 -11.833 30 -20.5c18.667 -18.667 28.334 -41.334 29.001 -68.001v-162c0 -13.333 -2.5 -25.666 -7.5 -36.999s-11.833 -21.333 -20.5 -30
c-18.667 -18.667 -41.334 -28.334 -68.001 -29.001v1h-34v-1c-26.667 0.666992 -49.334 10.334 -68.001 29.001c-8.66699 8.66699 -15.5 18.667 -20.5 30s-7.5 23.666 -7.5 36.999v162c0 13.333 2.5 25.666 7.5 36.999s11.833 21.333 20.5 30
c18.667 18.667 41.334 28.334 68.001 29.001z" />
    <glyph glyph-name="bb68a13a3574b087d4350eff0b8d48e3" unicode="&#xf008;" horiz-adv-x="824" 
d="M174 800c-31.333 -1.33301 -57.333 -15.5 -78 -42.5s-31.334 -60.833 -32.001 -101.5c0.666992 -41.333 11.334 -75.5 32.001 -102.5s46.667 -41.167 78 -42.5c31.333 1.33301 57.333 15.5 78 42.5s31.334 61.167 32.001 102.5
c-0.666992 40.667 -11.334 74.5 -32.001 101.5s-46.667 41.167 -78 42.5zM650 800c-30.667 -1.33301 -56.334 -15.5 -77.001 -42.5s-31.334 -60.833 -32.001 -101.5c0.666992 -41.333 11.334 -75.5 32.001 -102.5s46.334 -41.167 77.001 -42.5
c31.333 1.33301 57.333 15.5 78 42.5s31.334 61.167 32.001 102.5c-0.666992 40.667 -11.334 74.5 -32.001 101.5s-46.667 41.167 -78 42.5zM771 240l-718 -1.00098c-14.667 -0.666992 -27 -6 -37 -16s-15 -22.5 -15 -37.5s5 -27.5 15 -37.5s22.333 -15.333 37 -16h140v-74
c0 -28 5 -54.667 15 -80s25 -48 45 -68c23.333 -23.333 48.833 -39.333 76.5 -48s57.167 -12.667 88.5 -12c28.667 0 56 4.66699 82 14s49.5 24.333 70.5 45s36.333 43.834 46 69.501s14.5 52.5 14.5 80.5v74h140c14.667 0.666992 27 6 37 16s15 22.5 15 37.5
s-5 27.5 -15 37.5s-22.333 15.333 -37 16zM300 130.999l223.999 0.000976562v-72c0 -13.333 -2 -26.333 -6 -39s-11.333 -24.334 -22 -35.001c-21.333 -19.333 -49.333 -29 -84 -29s-62.667 9.66699 -84 29c-19.333 20.667 -28.666 45 -27.999 73v73z" />
    <glyph glyph-name="48cc210e59ff4bc56b6c8fba6eb384b8" unicode="&#xf009;" horiz-adv-x="1673" 
d="M1234 850c-8.66699 0 -16.8311 -1.99902 -24.498 -5.99902s-14.167 -9.66699 -19.5 -17c-25.333 -40 -35 -76.5 -29 -109.5s17 -64.5 33 -94.5c7.33301 -14.667 12.5 -28.334 15.5 -41.001s-0.5 -23 -10.5 -31c-11.333 -9.33301 -18 -21 -20 -35s1.5 -26.833 10.5 -38.5
s20.5 -18.5 34.5 -20.5s27 1.33301 39 10c42 33.333 61.667 66.5 59 99.5s-13.334 66.833 -32.001 101.5c-8 16.667 -14.333 33.667 -19 51s-2.33398 33.333 6.99902 48c8 12.667 10.667 26 8 40s-10 25.333 -22 34c-9.33301 6 -19.333 9 -30 9zM213.003 729.001
c-41.333 0 -79.668 -9.1709 -115.001 -27.5039s-64.666 -44.166 -87.999 -77.499c-8.66699 -13.333 -11.834 -27.166 -9.50098 -41.499s10 -26 23 -35s26.667 -12.167 41 -9.5s26.166 10.334 35.499 23.001c24 31.333 54.167 50 90.5 56s70.5 -2 102.5 -24l11 -9l12 -12
l2 -3h1c10.667 -11.333 23.334 -17.5 38.001 -18.5s27.834 3.83301 39.501 14.5s17.834 23.334 18.501 38.001s-4 27.667 -14 39c-23.333 28 -51.333 49.5 -84 64.5s-67.334 22.5 -104.001 22.5zM712.001 728.997c-40.667 0 -78.666 -9.1709 -113.999 -27.5039
s-64.666 -44.166 -87.999 -77.499c-8.66699 -13.333 -11.834 -27.166 -9.50098 -41.499s10 -26 23 -35s26.667 -12.167 41 -9.5s26.166 10.334 35.499 23.001c23.333 31.333 53.166 50 89.499 56s70.5 -2 102.5 -24v0c4 -2.66699 8 -5.66699 12 -9v-1l12 -11l2 -3
c10.667 -11.333 23.334 -17.5 38.001 -18.5s27.834 3.83301 39.501 14.5s18 23.334 19 38.001s-3.83301 27.667 -14.5 39c-23.333 28 -51.333 49.5 -84 64.5s-67.334 22.5 -104.001 22.5zM918.002 382.993c-12 0 -22.167 -4.16992 -30.5 -12.5029s-12.833 -18.5 -13.5 -30.5
l1 -4l-1 -275v0c0 -29.333 5.5 -56.666 16.5 -81.999s26.167 -47.666 45.5 -66.999v0v0v0c19.333 -19.333 41.666 -34.5 66.999 -45.5s52.333 -16.5 81 -16.5h231c13.333 0.666992 26.333 2.33398 39 5.00098c15.333 4 29.333 8.66699 42 14
c28 13.333 51.833 31.333 71.5 54s33.834 49 42.501 79h31c18.667 0 36 3.5 52 10.5s29.833 16.333 41.5 28s21 25.5 28 41.5s10.5 33 10.5 51v119c0 18 -3.5 35 -10.5 51s-16.5 30 -28.5 42v0c-11.333 11.333 -25 20.5 -41 27.5s-33 10.5 -51 10.5h-624zM1522 282.99
c11.333 -0.666992 20.6699 -4.66797 28.0029 -12.001h1c7.33301 -8 11.333 -17.667 12 -29v-110c-0.666992 -11.333 -4.83398 -20.833 -12.501 -28.5s-17.167 -11.834 -28.5 -12.501h-62c-10.667 0 -19.834 -3.5 -27.501 -10.5s-11.834 -15.833 -12.501 -26.5
c-2 -20.667 -9.16699 -39.167 -21.5 -55.5s-27.5 -28.833 -45.5 -37.5c-7.33301 -3.33301 -14.5 -5.83301 -21.5 -7.5s-14.167 -2.5 -21.5 -2.5h-212v-1c-15.333 0.666992 -29.833 3.83398 -43.5 9.50098s-25.5 13.834 -35.5 24.501h-1c-10.667 10.667 -19 23 -25 37
s-9 28.667 -9 44l1 218h537zM1440.01 227.989v-96h32c11.333 0 20.666 3.66699 27.999 11s11 16.333 11 27v20c0 10.667 -3.66699 19.667 -11 27s-16.666 11 -27.999 11h-32zM309.006 215.989c-15.333 -0.666992 -28.166 -6.16699 -38.499 -16.5
s-15.5 -23.166 -15.5 -38.499s5.16699 -28.166 15.5 -38.499s23.166 -15.833 38.499 -16.5h297c15.333 0.666992 28 6.16699 38 16.5s15 23.166 15 38.499s-5 28.166 -15 38.499s-22.667 15.833 -38 16.5h-297z" />
    <glyph glyph-name="078fec38562c3f83a1201a908040c141" unicode="&#xf00a;" horiz-adv-x="990" 
d="M495 745h-463.004c-9.33301 0 -17 -3.16699 -23 -9.5s-9 -14.166 -9 -23.499c3.33301 -79.333 31.333 -149.5 84 -210.5s117.334 -93.833 194.001 -98.5c42.667 -0.666992 82.834 7.5 120.501 24.5s70.167 40.5 97.5 70.5c28 -30 60.833 -53.5 98.5 -70.5
s77.834 -25.167 120.501 -24.5c76.667 4.66699 140.834 37.5 192.501 98.5s79.167 131.167 82.5 210.5c0 9.33301 -3 17.166 -9 23.499s-13.667 9.5 -23 9.5h-463zM813.996 235c-9.33301 0 -17.8389 -2.16992 -25.5059 -6.50293s-14.167 -10.5 -19.5 -18.5l-1 -3
c-6.66699 -12 -14.667 -23.333 -24 -34c-9.33301 -12 -19 -22.667 -29 -32c-27.333 -25.333 -58.333 -45 -93 -59s-71.334 -21 -110.001 -21v0v0c-21.333 0 -42.666 2.33301 -63.999 7c-2.66699 0 -6 0.666992 -10 2c-16.667 4.66699 -33.667 11 -51 19
c-13.333 6 -26.666 6.5 -39.999 1.5s-23.166 -14.333 -29.499 -28s-7.16602 -27.167 -2.49902 -40.5s13.667 -23.333 27 -30c22 -10 45 -18 69 -24c4.66699 -0.666992 9.33398 -2 14.001 -4c29.333 -6 58.333 -9 87 -9v0v0c52.667 0 102.334 9.33301 149.001 28
s88.667 45.334 126 80.001c14.667 14.667 27.834 29.334 39.501 44.001s22.5 30.334 32.5 47.001l1 1c7.33301 13.333 9.33301 26.833 6 40.5s-11.333 24.5 -24 32.5c-8.66699 4.66699 -18 7 -28 7z" />
    <glyph glyph-name="043b585886018be7408f4c77c1a3759c" unicode="&#xf00b;" horiz-adv-x="817" 
d="M171 800c-31.333 -1.33301 -57.3301 -15.5 -77.9971 -42.5s-31.334 -60.833 -32.001 -101.5c0.666992 -41.333 11.334 -75.5 32.001 -102.5s46.667 -41.167 78 -42.5c31.333 1.33301 57.166 15.5 77.499 42.5s30.833 61.167 31.5 102.5
c-0.666992 40.667 -11.334 74.5 -32.001 101.5s-46.334 41.167 -77.001 42.5zM647.003 800c-31.333 -1.33301 -57.333 -15.5 -78 -42.5s-31.334 -60.833 -32.001 -101.5c0.666992 -41.333 11.334 -75.5 32.001 -102.5s46.667 -41.167 78 -42.5
c31.333 1.33301 57.333 15.5 78 42.5s31.334 61.167 32.001 102.5c-0.666992 40.667 -11.334 74.5 -32.001 101.5s-46.667 41.167 -78 42.5zM53.0029 353c-9.33301 0 -18.001 -2.33301 -26.001 -7s-14.667 -11.334 -20 -20.001c-7.33301 -13.333 -9.16602 -27 -5.49902 -41
s12.167 -25 25.5 -33l709 -379c13.333 -7.33301 27 -9.16602 41 -5.49902s24.833 12.167 32.5 25.5s9.66699 27 6 41s-12.167 25 -25.5 33l-709 379c-8.66699 4.66699 -18 7 -28 7z" />
    <glyph glyph-name="3a900d0e9f43f5409211f62bec557379" unicode="&#xf00c;" horiz-adv-x="1789" 
d="M1364 850c-29.333 0 -57.999 -6.66699 -85.999 -20c-4 -2 -8 -4.33301 -12 -7c-17.333 -10 -30 -14.833 -38 -14.5s-22 0.5 -42 0.5c-32 -1.33301 -61.667 -11 -89 -29c-13.333 -8 -25.5 -17.5 -36.5 -28.5s-20.5 -23 -28.5 -36s-14.333 -27.167 -19 -42.5
s-6.66699 -30.666 -6 -45.999c0.666992 -13.333 5.66699 -24.333 15 -33s20.666 -13 33.999 -13v-1h619c13.333 0.666992 24.5 5.5 33.5 14.5s13.833 20.167 14.5 33.5c1.33301 16 -0.166992 31.833 -4.5 47.5s-10.833 30.167 -19.5 43.5c-15.333 24.667 -35.5 45 -60.5 61
s-52.167 25.667 -81.5 29c-21.333 2 -42 0 -62 -6l-10 8c-18 13.333 -37.333 23.166 -58 29.499s-41.667 9.5 -63 9.5zM669.001 803c-31.333 -1.33301 -57.5 -15.5 -78.5 -42.5s-31.833 -61.167 -32.5 -102.5c0.666992 -41.333 11.5 -75.5 32.5 -102.5
s47.167 -41.167 78.5 -42.5c30.667 1.33301 56.5 15.5 77.5 42.5s31.833 61.167 32.5 102.5c-0.666992 41.333 -11.5 75.5 -32.5 102.5s-46.833 41.167 -77.5 42.5zM1364 753c14.667 0.666992 29.167 -2.17188 43.5 -8.50488s27.5 -15.833 39.5 -28.5
c8 -9.33301 17.833 -15.166 29.5 -17.499s23 -0.166016 34 6.50098s23.5 9.16699 37.5 7.5s27 -6.5 39 -14.5c9.33301 -5.33301 17.333 -12.333 24 -21h-487c7.33301 8.66699 15.333 16 24 22c13.333 8 27.333 12.667 42 14c10.667 0.666992 21 -2.16602 31 -8.49902
s20.667 -8.66602 32 -6.99902s21.333 7.16699 30 16.5c10.667 12.667 23 22.334 37 29.001s28.667 10 44 10zM323.001 703.994h-269c-15.333 -0.666992 -28 -6 -38 -16s-15 -22.667 -15 -38s5 -28 15 -38s22.667 -15.333 38 -16h269c15.333 0.666992 28 6 38 16
s15 22.667 15 38s-5 28 -15 38s-22.667 15.333 -38 16zM1050 513.994c-12 0 -22.002 -4.00195 -30.002 -12.002s-12 -18 -12 -30l-1 -416v0c0 -28 5.5 -54.5 16.5 -79.5s25.833 -46.833 44.5 -65.5v-1c18.667 -18.667 40.5 -33.334 65.5 -44.001s51.5 -16 79.5 -16h225
c14 0.666992 27 2.33398 39 5.00098c14 3.33301 27.667 8 41 14c26.667 12.667 49.834 30.167 69.501 52.5s33.834 47.833 42.501 76.5h30v1c18 0 34.833 3.33301 50.5 10s29.167 15.834 40.5 27.501s20.5 25.334 27.5 41.001s10.5 32.167 10.5 49.5v258
c0 18 -3.5 34.833 -10.5 50.5s-16.167 29.167 -27.5 40.5v1c-11.333 11.333 -24.833 20.333 -40.5 27s-32.5 10 -50.5 10h-610zM1641 415.992c11.333 -0.666992 20.6631 -4.66602 27.9961 -11.999v0v0c7.33301 -7.33301 11.333 -16.666 12 -27.999v-250
c-0.666992 -11.333 -4.66699 -20.833 -12 -28.5s-16.666 -11.5 -27.999 -11.5h-61c-10 0 -18.667 -3.5 -26 -10.5s-11.666 -15.5 -12.999 -25.5c-2 -20.667 -8.83301 -39 -20.5 -55s-26.5 -28 -44.5 -36c-7.33301 -3.33301 -14.666 -6 -21.999 -8l-21 -3h-206
c-15.333 0 -29.666 3 -42.999 9s-25 14 -35 24h-1c-10 10.667 -18 22.667 -24 36s-9 27.666 -9 42.999l1 356h102v-349c2.66699 -17.333 14.167 -25.833 34.5 -25.5s31.833 8.83301 34.5 25.5v349h102v-353c2.66699 -18 14.167 -26.833 34.5 -26.5
s31.833 9.16602 34.5 26.499v353h183zM1561 355.993v-208h32c10 0 18.667 3.66699 26 11s11 16 11 26v133c0 10.667 -3.66699 19.667 -11 27s-16 11 -26 11h-32zM58.9961 340.993c-6 0 -11.999 -1.33105 -17.999 -3.99805c-14 -5.33301 -24.167 -14.333 -30.5 -27
s-6.83301 -26.334 -1.5 -41.001c23.333 -64 56.666 -120.667 99.999 -170s93.666 -89.333 150.999 -120c22 -12 45 -22.667 69 -32c58.667 -21.333 120.667 -32 186 -32v-1v1c57.333 0 113 8.66699 167 26c10 3.33301 20.333 7 31 11s20.667 8.33301 30 13v0v0v0
c14 7.33301 23.333 17.666 28 30.999s3.66699 26.666 -3 39.999s-16.667 22.5 -30 27.5s-26.666 4.5 -39.999 -1.5v0c-8.66699 -4 -17 -7.66699 -25 -11l-25 -9c-43.333 -14 -87.666 -21 -132.999 -21v0v0v0c-52 0 -101.667 9 -149 27
c-19.333 6.66699 -37.666 15 -54.999 25c-46.667 24.667 -87.334 56.834 -122.001 96.501s-61.334 84.834 -80.001 135.501c-4 11.333 -10.5 20.166 -19.5 26.499s-19.167 9.5 -30.5 9.5z" />
    <glyph glyph-name="cbc328d1c779a2b9e3b1199d904199a5" unicode="&#xf00d;" horiz-adv-x="870" 
d="M197 801c-31.333 -0.666992 -57.3301 -14.5 -77.9971 -41.5s-31.334 -61.167 -32.001 -102.5c0.666992 -40.667 11.334 -74.5 32.001 -101.5s46.667 -41.167 78 -42.5c31.333 1.33301 57.166 15.5 77.499 42.5s30.833 60.833 31.5 101.5
c-0.666992 40.667 -11.334 74.5 -32.001 101.5s-46.334 41.167 -77.001 42.5zM673.003 801c-30.667 -0.666992 -56.334 -14.5 -77.001 -41.5s-31.334 -61.167 -32.001 -102.5c0.666992 -40.667 11.334 -74.5 32.001 -101.5s46.334 -41.167 77.001 -42.5
c31.333 1.33301 57.333 15.5 78 42.5s31.334 60.833 32.001 101.5c-0.666992 40.667 -11.334 74.5 -32.001 101.5s-46.667 41.167 -78 42.5zM817.003 321l-764.998 -0.000976562c-14.667 -0.666992 -26.834 -6.16699 -36.501 -16.5s-14.834 -22.833 -15.501 -37.5
c7.33301 -102 55 -185.667 143 -251s181 -99.666 279 -102.999c100 1.33301 197.333 35.333 292 102s146.667 151 156 253c-0.666992 14.667 -6 27 -16 37s-22.333 15.333 -37 16zM117.005 214.999l633.999 0.000976562c-32 -61.333 -77.333 -109.833 -136 -145.5
s-123.667 -52.834 -195 -51.501c-66 2.66699 -125.667 21.667 -179 57s-94.666 82 -123.999 140z" />
    <glyph glyph-name="f0d3ad15d020cf187d42dd3b2295b65c" unicode="&#xf00e;" 
d="M53 738c-10 0 -19.333 -2.6709 -28 -8.00391s-15.334 -12.666 -20.001 -21.999c-6 -13.333 -6.66699 -26.666 -2 -39.999s13.667 -23.666 27 -30.999l152 -80c-1.33301 -23.333 0.833984 -46 6.50098 -68s14.834 -42 27.501 -60c10.667 -14.667 23.5 -26.5 38.5 -35.5
s31.5 -13.5 49.5 -13.5c44.667 2.66699 76.667 23.5 96 62.5s27.666 77.833 24.999 116.5c-60 26.667 -118.667 54.834 -176 84.501l-173 89.5c-7.33301 4 -15 5.66699 -23 5zM947 737.996c-8 0.666992 -15.6689 -0.998047 -23.002 -4.99805l-173 -89.5
c-57.333 -29.667 -116 -57.834 -176 -84.501c-2.66699 -38.667 5.66602 -77.5 24.999 -116.5s51.333 -60.167 96 -63.5c18 0 34.5 4.66699 49.5 14s27.833 21.333 38.5 36c12.667 18 21.834 38 27.501 60s7.83398 44.667 6.50098 68l152 80
c13.333 6.66699 22.333 16.667 27 30s4 27 -2 41c-5.33301 9.33301 -12.166 16.666 -20.499 21.999s-17.5 8 -27.5 8zM493.998 200.998c-83.333 0 -164.501 -15.333 -243.501 -46s-151.5 -76.667 -217.5 -138l-2 -3c-6 -5.33301 -11 -10 -15 -14
c-10.667 -11.333 -16 -24 -16 -38s5.33301 -26.5 16 -37.5s23 -16.5 37 -16.5s26.333 5 37 15l15 15c56.667 52.667 119 91.834 187 117.501s137.833 38.167 209.5 37.5s141.5 -14.667 209.5 -42s130 -68.333 186 -123l12 -12c11.333 -10.667 24 -16 38 -16
s26.333 5.33301 37 16s16 23.167 16 37.5s-5.33301 27.166 -16 38.499c-4 5.33301 -8.66699 10 -14 14c-66 64.667 -139.167 113.167 -219.5 145.5s-163.166 48.833 -248.499 49.5h-8z" />
    <glyph glyph-name="5195e2dcb4a63fbb8c09896a8058f6ab" unicode="&#xf00f;" horiz-adv-x="999" 
d="M489 841c-58 0 -114.5 -2.5 -169.5 -7.5s-105.833 -12.5 -152.5 -22.5c-52 -10.667 -92.667 -24.667 -122 -42s-44.333 -37.333 -45 -60v0v0v0c0.666992 -22.667 15.667 -42.667 45 -60s70 -31.333 122 -42v0c98.667 -20 209.5 -30 332.5 -30s233.833 10 332.5 30
c52 10.667 92.667 24.667 122 42s44.333 37.333 45 60h1h-1c-0.666992 22.667 -15.667 42.667 -45 60s-70 31.333 -122 42v0c-49.333 10.667 -103.5 18.5 -162.5 23.5s-119.167 7.16699 -180.5 6.5zM500 752c99.333 0 181.833 -4.16699 247.5 -12.5
s99.834 -18.5 102.501 -30.5c-2.66699 -12 -36.834 -22.167 -102.501 -30.5s-148.167 -12.5 -247.5 -12.5s-182 4.16699 -248 12.5s-100.333 18.5 -103 30.5c2.66699 12 37 22.167 103 30.5s148.667 12.5 248 12.5zM166 393c-15.333 -0.666992 -28 -6 -38 -16
s-15 -22.667 -15 -38s5 -28 15 -38s22.667 -15.333 38 -16h186c15.333 0.666992 28 6 38 16s15 22.667 15 38s-5 28 -15 38s-22.667 15.333 -38 16h-186zM648 393c-15.333 -0.666992 -28 -6 -38 -16s-15 -22.667 -15 -38s5 -28 15 -38s22.667 -15.333 38 -16h186
c15.333 0.666992 28 6 38 16s15 22.667 15 38s-5 28 -15 38s-22.667 15.333 -38 16h-186zM799 92c-14 -0.666992 -26.3301 -6 -36.9971 -16c-0.666992 -1.33301 -1.33398 -2 -2.00098 -2c-10 -10.667 -20.167 -20.667 -30.5 -30s-21.833 -18 -34.5 -26
c-31.333 -20.667 -64.833 -36 -100.5 -46s-72.5 -14 -110.5 -12v-1c-46.667 2.66699 -91.334 13.667 -134.001 33c-7.33301 4 -14 7.33301 -20 10c-33.333 19.333 -63.666 43.333 -90.999 72c-10.667 11.333 -23 17.166 -37 17.499s-26.5 -4.66699 -37.5 -15
s-16.833 -22.5 -17.5 -36.5s4 -26.667 14 -38c34 -36.667 73.667 -67.667 119 -93c8 -4.66699 16.667 -9 26 -13c54.667 -25.333 112.667 -39.333 174 -42v-1c49.333 -2 97.166 3.5 143.499 16.5s89.5 32.833 129.5 59.5c16 10.667 31.167 22 45.5 34s27.5 25 39.5 39
c10 11.333 15 23.833 15 37.5s-5.33301 25.834 -16 36.501s-23.334 16 -38.001 16z" />
    <glyph glyph-name="04688d76a33ce7a7950e40fae79c08ac" unicode="&#xf010;" horiz-adv-x="851" 
d="M278 787c-7.33301 0 -15.001 -1.66504 -23.001 -4.99805l-128 -62l-86 -41c-0.666992 -5.33301 -1 -10.666 -1 -15.999v-1c0 -36.667 10.167 -72.334 30.5 -107.001s50.833 -53.334 91.5 -56.001v0v0v0c17.333 0.666992 33.333 5.33398 48 14.001s27.667 20.667 39 36
c12.667 18 21.834 38 27.501 60s7.83398 44.667 6.50098 68l18 8c14 7.33301 23.333 17.666 28 30.999s3.66699 26.666 -3 39.999c-4.66699 9.33301 -11.334 16.833 -20.001 22.5s-18 8.5 -28 8.5zM489.999 787.002c-10 0 -19.334 -2.66797 -28.001 -8.00098
s-15.334 -12.666 -20.001 -21.999c-6 -14 -6.66699 -27.667 -2 -41s13.667 -23.333 27 -30l18 -9c-1.33301 -23.333 0.833984 -46 6.50098 -68s14.834 -42 27.501 -60c11.333 -15.333 24.333 -27.333 39 -36s30.667 -13 48 -13h1c40.667 2.66699 71 21.167 91 55.5
s30.333 69.833 31 106.5l-1 17l-87 41l-128 62c-7.33301 3.33301 -15 5 -23 5zM768.998 485.001c-7.33301 0 -14.333 -5.33301 -21 -16c-24.667 -42 -40.667 -94.167 -48 -156.5s17.667 -96.5 75 -102.5c58 6.66699 83.167 40.5 75.5 101.5s-27.5 114.167 -59.5 159.5
c-6 8 -13.333 12.667 -22 14zM256.998 347.001c-56.667 0 -111.996 -8.6709 -165.996 -26.0039l-30 -11l-30 -13l-1 -1c-13.333 -6.66699 -22.333 -16.667 -27 -30s-3.83398 -26.666 2.49902 -39.999s16.166 -22.333 29.499 -27s26.666 -4 39.999 2v-1
c9.33301 4.66699 17.333 8.33398 24 11.001l25 9c43.333 14 87.666 21 132.999 21c51.333 0 100.666 -9 147.999 -27c18.667 -6.66699 37 -14.667 55 -24c46 -24.667 86.167 -56.667 120.5 -96s60.833 -84.666 79.5 -135.999c5.33301 -14 14.333 -23.833 27 -29.5
s26.167 -6 40.5 -1s24.5 13.833 30.5 26.5s6.66699 26.334 2 41.001c-23.333 63.333 -56.666 119.5 -99.999 168.5s-93.333 88.833 -150 119.5c-22 12 -45 22.333 -69 31c-58 21.333 -119.333 32.333 -184 33z" />
    <glyph glyph-name="4843d0d6050dd508d4c101a334f46db2" unicode="&#xf011;" horiz-adv-x="1948" 
d="M53 850c-10 0 -19.333 -2.66895 -28 -8.00195s-15.334 -12.666 -20.001 -21.999c-6 -14 -6.66699 -27.667 -2 -41s13.667 -23.333 27 -30l152 -80c-1.33301 -23.333 0.833984 -46.166 6.50098 -68.499s14.834 -42.5 27.501 -60.5c10.667 -14 23.5 -25.667 38.5 -35
s31.5 -14 49.5 -14c44.667 3.33301 76.667 24.5 96 63.5s27.666 77.833 24.999 116.5c-60 26 -118.667 54 -176 84l-173 90c-7.33301 3.33301 -15 5 -23 5zM572 680.998c-15.333 -0.666992 -28 -6 -38 -16s-15 -22.667 -15 -38s5 -28 15 -38s22.667 -15.333 38 -16h186
c15.333 0.666992 28 6 38 16s15 22.667 15 38s-5 28 -15 38s-22.667 15.333 -38 16h-186zM1191 593.998c-20 0 -39.0068 -3.83691 -57.0068 -11.5039s-34 -18.167 -48 -31.5l-2 -2c-5.33301 -5.33301 -10 -11 -14 -17c-11.333 -14.667 -19.333 -31.667 -24 -51
c-18 -6.66699 -35.667 -14.334 -53 -23.001c-27.333 -12.667 -54.666 -28.667 -81.999 -48v0c-38 -26 -75.833 -63.167 -113.5 -111.5s-66.834 -99.5 -87.501 -153.5c-8 -22 -13.667 -43.667 -17 -65s-4 -42.666 -2 -63.999l1 -5c4.66699 -33.333 13.667 -61.666 27 -84.999
s30.333 -41.333 51 -54c8.66699 -5.33301 18 -10 28 -14c8 -2 16.667 -3.66699 26 -5c1.33301 -0.666992 3.33301 -1 6 -1h4c26.667 -1.33301 51.834 -2 75.501 -2s46.834 0.333008 69.501 1l60 2c57.333 2 97 21 119 57s38 78 48 126
c3.33301 13.333 6.83301 26.166 10.5 38.499s7.83398 23.5 12.501 33.5h219c41.333 0.666992 73.833 10.5 97.5 29.5s40.5 42.5 50.5 70.5c3.33301 10.667 6 21.334 8 32.001l291 -1c14.667 0.666992 26.834 5.83398 36.501 15.501s14.834 21.834 15.501 36.501v154h1v67h-1
c0 22 -7.33301 39.667 -22 53c-12 12.667 -26.667 20 -44 22c-3.33301 0.666992 -6.66602 1 -9.99902 1h-50c-19.333 -1.33301 -35.666 -7.66602 -48.999 -18.999v-1h-1l-3 -3c-8.66699 -9.33301 -15 -20 -19 -32h-162c-14 18 -31 32.333 -51 43l-15 7l-4 1
c-14 5.33301 -29 8.33301 -45 9l-6 1h-275zM1468.99 488.994c4 -0.666992 8.00391 -1.66797 12.0039 -3.00098l1 -1l5 -1v-1c9.33301 -5.33301 16.333 -13.166 21 -23.499s11.834 -18.333 21.501 -24s20.167 -8.16699 31.5 -7.5h237c9.33301 0 17.833 2.16699 25.5 6.5
s14.167 10.166 19.5 17.499v-108l-286 1c-14.667 -0.666992 -26.834 -5.83398 -36.501 -15.501s-14.834 -21.834 -15.501 -36.501l-1 -14c-0.666992 -6 -1.5 -12 -2.5 -18s-2.5 -11.333 -4.5 -16c-2.66699 -9.33301 -7.83398 -17 -15.501 -23s-18.834 -9 -33.501 -9h-249
c-9.33301 0 -18 -2.33301 -26 -7s-14.333 -11 -19 -19c-4.66699 -6 -8.66699 -12.333 -12 -19v-1c-4 -2 -10.667 -18 -20 -48s-15 -48.667 -17 -56c-6.66699 -27.333 -14.834 -51.5 -24.501 -72.5s-23.834 -32.167 -42.501 -33.5c-21.333 0 -42 -0.333008 -62 -1l-64 -1
c-22.667 0 -46.334 0.333008 -71.001 1v1l-10 1l-7 3c-14 8.66699 -23.333 30 -28 64v1l-1 1c-0.666992 10.667 0 23.334 2 38.001s6 29.334 12 44.001c16.667 44.667 40.167 86.334 70.5 125.001s60.5 68.667 90.5 90v0v0c22.667 15.333 45.834 28.833 69.501 40.5
s46.834 21.167 69.501 28.5c11.333 4 20.166 10.5 26.499 19.5s9.5 19.167 9.5 30.5v2c1.33301 9.33301 4.33301 17.666 9 24.999l5 5c8.66699 8.66699 19.334 13.334 32.001 14.001h278zM441.997 312.993c-62 0 -121.497 -10.498 -178.497 -31.498
s-108.833 -50.5 -155.5 -88.5c-17.333 -14.667 -34.166 -30.834 -50.499 -48.501s-31.5 -36.167 -45.5 -55.5c-8 -12.667 -10.667 -25.834 -8 -39.501s10.167 -25 22.5 -34s25.333 -12.167 39 -9.5s24.834 10 33.501 22c11.333 16 23.166 30.833 35.499 44.5
s26.166 26.5 41.499 38.5c37.333 30.667 78.666 54.167 123.999 70.5s92.666 24.5 141.999 24.5v1c18 0 36.333 -1.33301 55 -4l8 -2c16 -2 31.167 -4.83301 45.5 -8.5s27.666 -2 39.999 5s20.5 17.833 24.5 32.5s2.33301 28 -5 40s-18 20.333 -32 25
c-18.667 5.33301 -37.667 9.33301 -57 12l-11 1c-22 2.66699 -44.667 4 -68 4v1z" />
    <glyph glyph-name="fc92480dedc439d274d4e3e4b425edf4" unicode="&#xf012;" horiz-adv-x="999" 
d="M128 607c-15.333 -0.666992 -28 -6 -38 -16s-15 -22.667 -15 -38s5 -28 15 -38s22.667 -15.333 38 -16h267c15.333 0.666992 28 6 38 16s15 22.667 15 38s-5 28 -15 38s-22.667 15.333 -38 16h-267zM604 607c-14.667 -0.666992 -27.167 -6 -37.5 -16
s-15.5 -22.667 -15.5 -38s5.16699 -28 15.5 -38s22.833 -15.333 37.5 -16h267c15.333 0.666992 28 6 38 16s15 22.667 15 38s-5 28 -15 38s-22.667 15.333 -38 16h-267zM946 201c-14 0 -26.335 -5.33398 -37.002 -16.001l-12 -12c-56 -54.667 -118 -95.667 -186 -123
s-138 -41.333 -210 -42s-142 11.833 -210 37.5s-130 64.834 -186 117.501l-15 15c-10.667 10.667 -23 15.834 -37 15.501s-26.333 -6 -37 -17s-16 -23.5 -16 -37.5s5.33301 -26.667 16 -38l14 -14l3 -3c66.667 -62 140.334 -108.333 221.001 -139s163.5 -45.5 248.5 -44.5
s167.667 17.667 248 50s153.5 80.5 219.5 144.5c4.66699 5.33301 9.33398 10 14.001 14c10 11.333 15 24.166 15 38.499s-5.16699 26.833 -15.5 37.5s-22.833 16 -37.5 16z" />
    <glyph glyph-name="2bd5f98482d86649958312ea2ab5bb40" unicode="&#xf013;" horiz-adv-x="893" 
d="M206 742c-39.333 0 -75.998 -9.16699 -109.998 -27.5s-62.667 -43.5 -86 -75.5c-8.66699 -12.667 -11.667 -25.834 -9 -39.501s10.167 -25 22.5 -34s25.5 -12.333 39.5 -10s25.667 9.83301 35 22.5c22.667 30.667 51.667 48.834 87 54.501s68.333 -2.16602 99 -23.499v0
c4 -2 7.66699 -5 11 -9h1l13 -14v-1c10.667 -10.667 23.167 -16.334 37.5 -17.001s27.166 4 38.499 14s17.333 22.167 18 36.5s-4 27.166 -14 38.499c-22.667 26.667 -49.834 47.334 -81.501 62.001s-65.5 22 -101.5 22v1zM692.002 742
c-39.333 0 -76.168 -9.16699 -110.501 -27.5s-63.166 -43.5 -86.499 -75.5c-8.66699 -12.667 -11.667 -25.834 -9 -39.501s10.167 -25 22.5 -34s25.5 -12.333 39.5 -10s25.667 9.83301 35 22.5c22.667 30.667 51.667 48.834 87 54.501s68.333 -2.16602 99 -23.499v0
c4 -2 8 -5 12 -9l1 -1c4 -3.33301 7.33301 -7 10 -11l3 -3c10 -10.667 22.167 -16.334 36.5 -17.001s27.166 4 38.499 14s17.333 22.167 18 36.5s-3.66602 27.166 -12.999 38.499c-23.333 26.667 -50.833 47.334 -82.5 62.001s-65.167 22 -100.5 22v1zM840 321
l-764.998 -0.000976562c-14.667 -0.666992 -26.834 -6 -36.501 -16s-14.834 -22.667 -15.501 -38c8 -102 55.833 -185.667 143.5 -251s180.5 -99.666 278.5 -102.999c100 1.33301 197.333 35.333 292 102s146.667 151 156 253c-0.666992 14.667 -6 27 -16 37
s-22.333 15.333 -37 16zM140.002 214.999l633.999 0.000976562c-32 -61.333 -77.167 -109.833 -135.5 -145.5s-123.166 -52.834 -194.499 -51.501c-66 2.66699 -125.833 21.667 -179.5 57s-95.167 82 -124.5 140z" />
    <glyph glyph-name="72109d2fb3088d0e66ea6a9204297651" unicode="&#xf014;" 
d="M496 850c-88.667 -0.666992 -169.502 -21.332 -242.502 -61.999s-132.5 -95.334 -178.5 -164.001c-18 -26.667 -33.167 -54.834 -45.5 -84.501s-21.833 -60.5 -28.5 -92.5v-3c0.666992 -7.33301 4.33398 -11.333 11.001 -12h101c6 0.666992 9.66699 3.66699 11 9
c15.333 57.333 41.5 107.833 78.5 151.5s82.167 77.5 135.5 101.5c20 10 41 17.667 63 23c30.667 7.33301 62.334 11 95.001 11v0v0v0c25.333 0 50 -2.33301 74 -7l14 -3c6 -1.33301 10.667 -2.66602 14 -3.99902v0c6 -0.666992 10.333 1.33301 13 6l51 87
c0.666992 0 1 0.666992 1 2c0.666992 3.33301 0.5 6.33301 -0.5 9s-3.16699 4.66699 -6.5 6c-21.333 7.33301 -43 13 -65 17l-13 2c-26.667 4.66699 -54 7 -82 7v0v0zM822.998 736.002c-5.33301 0 -8.99609 -1.99609 -10.9961 -5.99609l-50 -87
c-2.66699 -4.66699 -2 -9.33398 2 -14.001c29.333 -29.333 53.666 -63 72.999 -101c4 -6.66699 7.66699 -14 11 -22c19.333 -46 29.333 -96.333 30 -151v0v0c0 -38.667 -5.33301 -75.667 -16 -111s-26 -68 -46 -98c-6.66699 -11.333 -14.5 -22.333 -23.5 -33
s-18.5 -21 -28.5 -31v0v0v0c-4 -4.66699 -4.66699 -9.33398 -2 -14.001l50 -87c0 -0.666992 0.666992 -1.66699 2 -3c4.66699 -4.66699 10 -5 16 -1c29.333 26 55.166 55 77.499 87s41.166 66.333 56.499 103c6 14 11 28.667 15 44c14 46 21 94 21 144
c0 54 -8 105.667 -24 155s-38.667 94.666 -68 135.999c-10.667 16 -22.667 31.167 -36 45.5s-27.333 28.166 -42 41.499v0c-0.666992 0.666992 -1.33398 1 -2.00098 1c-2 1.33301 -3.66699 2 -5 2zM12.002 268.006l-3 0.00390625
c-3.33301 -0.666992 -5.83301 -2.33398 -7.5 -5.00098s-2.16699 -5.66699 -1.5 -9c18 -84 53.5 -157.833 106.5 -221.5s118.167 -111.834 195.5 -144.501c30 -12 61.167 -21.167 93.5 -27.5s65.5 -9.83301 99.5 -10.5v0v0c40 0 79 4.66699 117 14c6.66699 1.33301 14 3 22 5
l23 8c6.66699 4 8 9.33301 4 16l-50 87c-3.33301 5.33301 -7.66602 7.33301 -12.999 6c-14 -4 -28 -7 -42 -9l-8 -2c-17.333 -2 -35 -3 -53 -3v0v0c-64.667 0.666992 -123.834 15.167 -177.501 43.5s-98.167 67.166 -133.5 116.499h-1c-13.333 19.333 -25 39.666 -35 60.999
s-18 43 -24 65c-1.33301 6.66699 -5 10 -11 10h-101z" />
    <glyph glyph-name="f0c301ac841dafc38d8eb1b933fc73e5" unicode="&#xf015;" 
d="M46 144l-1.00098 -0.00195312c-8 18.667 -15 37.167 -21 55.5s-11 37.5 -15 57.5c-9.33301 50 -11.166 100.167 -5.49902 150.5s19.167 99.5 40.5 147.5c1.33301 3.33301 3.5 5.33301 6.5 6s5.83301 0.333984 8.5 -0.999023c1.33301 0 2 -0.333008 2 -1l80 -59
c4.66699 -3.33301 6 -8 4 -14c-4.66699 -12 -8.83398 -24.5 -12.501 -37.5s-6.5 -26.167 -8.5 -39.5c-5.33301 -34 -6.16602 -68 -2.49902 -102s12.167 -67 25.5 -99c2 -5.33301 0.666992 -9.66602 -4 -12.999l-80 -56c-6 -4 -11.333 -3 -16 3c-0.666992 0 -1 0.666992 -1 2
v0zM165.999 717.998l0.00195312 0.99707c14.667 12.667 30 24.834 46 36.501s33 22.167 51 31.5c44.667 25.333 92.167 43.166 142.5 53.499s101.833 12.5 154.5 6.5c6.66699 -1.33301 10 -5.66602 10 -12.999l-1 -2l-31 -94c-2.66699 -5.33301 -7 -7.66602 -13 -6.99902
h-40c-14 -0.666992 -27.333 -2 -40 -4c-34 -5.33301 -66.833 -15.166 -98.5 -29.499s-60.834 -32.5 -87.501 -54.5c-4.66699 -2.66699 -9.33398 -2.66699 -14.001 0l-79 58c-2.66699 2 -4.16699 4.5 -4.5 7.5s0.5 5.83301 2.5 8.5c0 0.666992 0.666992 1 2 1v0z
M754.001 782.995l1.00098 0.00195312c17.333 -10 34 -20.833 50 -32.5s31.333 -24.167 46 -37.5c37.333 -34.667 68.666 -74.167 93.999 -118.5s43.333 -92.166 54 -143.499c1.33301 -6.66699 -1.66699 -11 -9 -13l-102 1c-5.33301 0.666992 -9 3.66699 -11 9
c-3.33301 13.333 -7.33301 26.166 -12 38.499s-10.334 24.166 -17.001 35.499c-15.333 30.667 -34.666 58.667 -57.999 84s-49.666 47.333 -78.999 66c-4.66699 3.33301 -6.33398 7.66602 -5.00098 12.999l31 92c1.33301 3.33301 3.33301 5.5 6 6.5s5.66699 1.16699 9 0.5
c1.33301 0 2 -0.333008 2 -1v0zM998.002 247.997h-0.00195312c-4 -20 -9.16699 -39.167 -15.5 -57.5s-13.5 -36.5 -21.5 -54.5c-22 -46 -50.333 -87.833 -85 -125.5s-74.667 -69.5 -120 -95.5c-6.66699 -2.66699 -12 -1.33398 -16 3.99902c0 1.33301 -0.333008 2 -1 2
l-30 94c-1.33301 6.66699 0.666992 11.334 6 14.001c11.333 7.33301 22.333 15.333 33 24s20.334 17.334 29.001 26.001c24.667 24 45.5 51 62.5 81s29.833 61.667 38.5 95c2 5.33301 5.66699 8 11 8l98 -1c6.66699 -0.666992 10.334 -4.33398 11.001 -11.001v-3z
M560 -147.003l-0.000976562 0.000976562c-20 -2 -40 -3 -60 -3s-39.667 1.33301 -59 4c-51.333 6 -100.333 19.5 -147 40.5s-89.667 49.167 -129 84.5c-4.66699 4.66699 -4.66699 10 0 16l82 59c6 2.66699 11.333 2 16 -2c10 -8 20.5 -15.667 31.5 -23s22.5 -14 34.5 -20
c31.333 -15.333 63.833 -26.5 97.5 -33.5s67.834 -9.5 102.501 -7.5c6 0 10 -2.66699 12 -8l29 -92c2 -6.66699 -0.333008 -11.334 -7 -14.001c-0.666992 -0.666992 -1.66699 -1 -3 -1v0z" />
    <glyph glyph-name="2a6740fc2f9d0edea54205963f662594" unicode="&#xf016;" 
d="M494 850c-136 -3.33301 -250.168 -49.334 -342.501 -138.001s-142.833 -200 -151.5 -334c0 -9.33301 2 -15.166 6 -17.499s6.33301 -3.16602 7 -2.49902h84c8 0 13.167 2 15.5 6s3.5 8 3.5 12c7.33301 102 46.333 186.5 117 253.5s157.667 101.833 261 104.5
c54 -0.666992 104.333 -11.334 151 -32.001s87.334 -49.334 122.001 -86.001l-58 -57c-5.33301 -6 -7.83301 -12.167 -7.5 -18.5s4.5 -10.5 12.5 -12.5l247 -50c11.333 -2.66699 21.333 -0.166992 30 7.5s11 19.834 7 36.501l-58 227
c-1.33301 5.33301 -4.83301 9.83301 -10.5 13.5s-11.834 3.5 -18.501 -0.5l-65 -60c-44.667 46 -97.167 82 -157.5 108s-125.166 39.333 -194.499 40zM902.999 341.999c-8 0 -13.166 -2.00098 -15.499 -6.00098s-3.5 -8 -3.5 -12
c-7.33301 -102 -46.166 -186.5 -116.499 -253.5s-157.166 -101.833 -260.499 -104.5c-54.667 0.666992 -105.334 11.334 -152.001 32.001s-87.334 49.334 -122.001 86.001l59 57c5.33301 6 7.66602 12.167 6.99902 18.5s-4.66699 10.5 -12 12.5l-248 50
c-11.333 2.66699 -21.333 0.166992 -30 -7.5s-11 -19.834 -7 -36.501l58 -227c1.33301 -5.33301 4.83301 -9.83301 10.5 -13.5s12.167 -3.5 19.5 0.5l64 60c44.667 -46 97.167 -82 157.5 -108s125.5 -39.333 195.5 -40c136 3.33301 250 49.333 342 138
s142.333 200.334 151 335.001c0 8.66699 -2 14.167 -6 16.5s-6.33301 3.16602 -7 2.49902h-84z" />
    <glyph glyph-name="9bd60140934a1eb9236fd7a8ab1ff6ba" unicode="&#xf017;" horiz-adv-x="1001" 
d="M498 850c-57.333 0 -113.33 -9.66602 -167.997 -28.999s-105.334 -48.333 -152.001 -87v0c90 70 189.5 102.5 298.5 97.5s205.5 -47.833 289.5 -128.5c67.333 -69.333 108.333 -148.333 123 -237s3.33398 -174.667 -33.999 -258c-9.33301 -28 -5.33301 -50.667 12 -68
c11.333 -10 25.166 -15.333 41.499 -16s30.5 4.66602 42.5 15.999c2 2 4.5 5.33301 7.5 10s5.5 9.33398 7.5 14.001c35.333 92 43.666 186 24.999 282s-64.334 181.667 -137.001 257c-50 49.333 -105.667 86.166 -167 110.499s-124.333 36.5 -189 36.5zM89.0029 576.001
c-7.33301 0 -14.3379 -1.33105 -21.0049 -3.99805s-12.667 -6.66699 -18 -12c-2 -2 -4.66699 -5.33301 -8 -10s-5.66602 -9.33398 -6.99902 -14.001c-35.333 -92 -43.666 -186 -24.999 -282s64.334 -181.667 137.001 -257c96.667 -92.667 207.834 -141.5 333.501 -146.5
s239.834 33.5 342.501 115.5v0c-90 -70 -189.667 -102.5 -299 -97.5s-206 47.833 -290 128.5c-66.667 69.333 -107.5 148.333 -122.5 237s-3.83301 174.667 33.5 258c10.667 28 6.66699 50.667 -12 68c-11.333 11.333 -26 16.666 -44 15.999z" />
    <glyph glyph-name="5d2d07f112b8de19f2c0dbfec3e42c05" unicode="&#xf018;" 
d="M462 850c-6.66699 -0.666992 -10.334 -4.33398 -11.001 -11.001v-183c0.666992 -6.66699 4.33398 -10.334 11.001 -11.001h69h1c7.33301 0.666992 11.333 4.33398 12 11.001v183c-0.666992 6.66699 -4.66699 10.334 -12 11.001h-69h-1zM712 803
c-4 0.666992 -7.33301 -0.999023 -10 -4.99902l-91 -158c-3.33301 -6.66699 -2 -12 4 -16l60 -35v0c6.66699 -2.66699 12 -1.33398 16 3.99902l91 158c3.33301 6.66699 2 12 -4 16l-61 35c-1.33301 0.666992 -3 1 -5 1zM284 801.001c-2 0 -4 -0.666992 -6 -2l-61 -35
c-5.33301 -4 -6.66602 -9.33301 -3.99902 -16l91 -157v0c4 -6 9.33301 -7.66699 16 -5l61 35c5.33301 4.66699 6.66602 10 3.99902 16l-91 157v1c-2 4 -5.33301 6 -10 6zM904 638.001c-2 0 -4 -0.333984 -6 -1.00098l-157 -91v0c-6 -4 -7.66699 -9.33301 -5 -16l35 -61
c4.66699 -5.33301 10 -6.66602 16 -3.99902l157 91h1c6 4 7.33301 9.33301 4 16l-35 61c-2 3.33301 -5.33301 5 -10 5zM94 634c-5.33301 0 -9.00293 -2 -11.0029 -6l-35 -61c-1.33301 -2.66699 -1.66602 -5.5 -0.999023 -8.5s2.33398 -5.16699 5.00098 -6.5l158 -92
c6.66699 -2.66699 12 -1 16 5l35 60v0c2.66699 6.66699 1.33398 12 -3.99902 16l-158 91c-2 1.33301 -3.66699 2 -5 2zM805.997 399c-6.66699 -0.666992 -10.334 -4.33398 -11.001 -11.001v-69v-1c0.666992 -7.33301 4.33398 -11.333 11.001 -12h183
c6.66699 0.666992 10.334 4.66699 11.001 12v69v1c-0.666992 6.66699 -4.33398 10.334 -11.001 11.001h-183zM11.9971 394c-7.33301 -0.666992 -11.333 -4.66699 -12 -12v-69v-1c0.666992 -6.66699 4.66699 -10.334 12 -11.001h182
c6.66699 0.666992 10.334 4.33398 11.001 11.001v69v1c-0.666992 7.33301 -4.33398 11.333 -11.001 12h-182zM783.997 241c-4 0 -7.33008 -2 -9.99707 -6l-34 -60h-1c-2.66699 -6.66699 -1.33398 -12 3.99902 -16l158 -91c6.66699 -3.33301 12 -2 16 4l35 61
c1.33301 2.66699 1.66602 5.5 0.999023 8.5s-2.33398 5.16699 -5.00098 6.5l-158 91c-2 1.33301 -4 2 -6 2zM218 236c-1.33301 0 -2.99805 -0.334961 -4.99805 -1.00195l-157 -91h-1c-2.66699 -1.33301 -4.33398 -3.66602 -5.00098 -6.99902s-0.333984 -6.33301 0.999023 -9
l35 -61c4 -5.33301 9.33301 -6.66602 16 -3.99902l157 91v0c6 4 7.66699 9.33301 5 16l-35 61c-3.33301 3.33301 -7 5 -11 5zM686.002 114.998c-2 0 -4 -0.331055 -6 -0.998047l-61 -35c-5.33301 -4.66699 -6.66602 -10 -3.99902 -16l91 -157v-1
c2 -2.66699 4.5 -4.33398 7.5 -5.00098s5.83301 -0.333984 8.5 0.999023l61 35c5.33301 4 6.66602 9.33301 3.99902 16l-91 157v0c-2 4 -5.33301 6 -10 6zM319.002 112c-4 0.666992 -7.33203 -1.00195 -9.99902 -5.00195l-91 -158
c-2.66699 -6.66699 -1.33398 -12 3.99902 -16l61 -35c2.66699 -1.33301 5.5 -1.66602 8.5 -0.999023s5.16699 2.33398 6.5 5.00098l92 158c2.66699 6.66699 1 12 -5 16l-60 34v1c-2 0.666992 -4 1 -6 1zM468.003 54.998c-7.33301 -0.666992 -11.333 -4.33398 -12 -11.001
v-183c0.666992 -6.66699 4.66699 -10.334 12 -11.001h69h1c6.66699 0.666992 10.334 4.33398 11.001 11.001v183c-0.666992 6.66699 -4.33398 10.334 -11.001 11.001h-69h-1z" />
    <glyph glyph-name="9bc2902722abb366a213a052ade360bc" unicode="&#xf019;" 
d="M855 9c-100.667 -94 -218.669 -138.668 -354.002 -134.001s-252.333 53.667 -351 147c-95.333 99.333 -145.333 213.666 -150 342.999s36 246.666 122 351.999c5.33301 6.66699 10.833 13 16.5 19s11.834 11 18.501 15c18.667 11.333 38.667 15.833 60 13.5
s40.333 -11.166 57 -26.499c14.667 -16 23.334 -34 26.001 -54s-0.666016 -39.333 -9.99902 -58c-4 -8 -9.33301 -15.333 -16 -22c-70 -78.667 -106 -166.334 -108 -263.001s31.333 -181 100 -253c81.333 -75.333 174 -108.166 278 -98.499s192 53.834 264 132.501
c53.333 62.667 87.5 133.834 102.5 213.501s6.5 158.834 -25.5 237.501c-44.667 100 -114.334 170.333 -209.001 211s-195 44.334 -301 11.001v1c122 39.333 237.5 36 346.5 -10s189.5 -126.667 241.5 -242c34.667 -84.667 45.167 -170.334 31.5 -257.001
s-48.167 -165.334 -103.5 -236.001c-10.667 -14.667 -22.667 -28.667 -36 -42z" />
    <glyph glyph-name="62c089cb34e74b3a1200bc7f5314eb4e" unicode="&#xf01a;" 
d="M504 -137c-108.667 1.33301 -203.332 29.8369 -283.999 85.5039s-141.334 129.167 -182.001 220.5c-42 106 -49.167 223.667 -21.5 353s81.167 232.666 160.5 309.999l-6 -156c6 4.66699 18.667 7.16699 38 7.5s32.666 -2.5 39.999 -8.5
c18 31.333 48.167 57.166 90.5 77.499s85.5 31.166 129.5 32.499c-18.667 -15.333 -40 -41.333 -64 -78s-35.667 -68.667 -35 -96c21.333 -6 45 -9.83301 71 -11.5s47.667 -2.83398 65 -3.50098c5.33301 -4 7.16602 -12.667 5.49902 -26s-7.5 -27.333 -17.5 -42
c-16 -18 -35.5 -30.667 -58.5 -38s-35.833 -11 -38.5 -11l8 -106l-77 38c-11.333 -33.333 -6.16602 -61 15.501 -83s48.834 -31 81.501 -27c33.333 8 59.666 19 78.999 33s40.333 21 63 21c24.667 -1.33301 41.834 -7.33301 51.501 -18s12.834 -22.667 9.50098 -36
c-5.33301 -14 -16 -21.833 -32 -23.5s-25 -2.16699 -27 -1.5c-21.333 -34.667 -47.833 -59.834 -79.5 -75.501s-71.167 -21.5 -118.5 -17.5c76 -54.667 152.333 -67.167 229 -37.5s129.334 71.167 158.001 124.5c23.333 51.333 28.666 105.333 15.999 162
s-32.334 97 -59.001 121c29.333 -12 54 -26 74 -42s35.333 -38 46 -66c5.33301 64 -5.16699 127.5 -31.5 190.5s-65.5 116.167 -117.5 159.5c97.333 -28 173.5 -79.333 228.5 -154s83.5 -171.667 85.5 -291c-1.33301 -124.667 -48 -235.667 -140 -333
s-210.667 -148.666 -356 -153.999z" />
    <glyph glyph-name="9c2b737b16ae2c8d66b7bfd29ba5ecd8" unicode="&#xf01b;" 
d="M498 850c-74.667 -0.666992 -145.669 -16.833 -213.002 -48.5s-125.333 -77.5 -174 -137.5l154 -237c20.667 56.667 55.334 100.5 104.001 131.5s103 43.833 163 38.5l414 -22c-21.333 42 -48.333 80.667 -81 116s-71 66 -115 92c-40 22.667 -81.167 39.5 -123.5 50.5
s-85.166 16.5 -128.499 16.5zM81.998 624.001c-26 -39.333 -46.1689 -82.1689 -60.502 -128.502s-21.5 -94.833 -21.5 -145.5c2.66699 -127.333 43.167 -236.166 121.5 -326.499s178.833 -146.166 301.5 -167.499l128 252c-59.333 -10 -114.666 -1.66699 -165.999 25
s-89.666 67 -114.999 121zM966.996 529.998l-281.999 -15c38 -46 58.333 -98 61 -156s-13.333 -111.667 -48 -161l-226 -347c47.333 -3.33301 94.5 0.5 141.5 11.5s92.5 29.167 136.5 54.5c108.667 66 182.667 155.5 222 268.5s37.666 227.833 -5.00098 344.5z
M499.997 518.998c-48 -1.33301 -87.833 -17.833 -119.5 -49.5s-48.167 -71.5 -49.5 -119.5c1.33301 -48 17.833 -87.833 49.5 -119.5s71.5 -48.167 119.5 -49.5c48 1.33301 87.833 17.833 119.5 49.5s48.167 71.5 49.5 119.5c-1.33301 48 -17.833 87.833 -49.5 119.5
s-71.5 48.167 -119.5 49.5z" />
    <glyph glyph-name="45861dd1e5ce4fde338bcccf01eeb808" unicode="&#xf01c;" horiz-adv-x="851" 
d="M426 -150c-284 42 -426.001 208.833 -426.001 500.5s142 458.167 426 499.5c284 -41.333 425.833 -207.833 425.5 -499.5s-142.166 -458.5 -425.499 -500.5zM425.999 -58c118.667 34 178 170 178 408s-59.333 374 -178 408c-118.667 -34 -178 -170 -178 -408
s59.333 -374 178 -408z" />
    <glyph glyph-name="2a46f1d1c9bd036e17a74e46613c1636" unicode="&#xf01d;" horiz-adv-x="944" 
d="M844 850c-40.667 -1.33301 -84.9961 -11.6709 -132.996 -31.0039s-97.333 -44.333 -148 -75c-125.333 16.667 -238.666 -8 -339.999 -74s-157.666 -170 -168.999 -312c32.667 50.667 83.5 107 152.5 169s140.5 106 214.5 132v-13
c-106.667 -61.333 -215.5 -181.166 -326.5 -359.499s-122.167 -316.166 -33.5 -413.499c51.333 -29.333 115.666 -30.166 192.999 -2.49902s127.666 53.834 150.999 78.501c29.333 -5.33301 59 -8 89 -8c102 1.33301 191.167 28.833 267.5 82.5s128.5 123.5 156.5 209.5
h-301c-6.66699 -28 -20.334 -50.167 -41.001 -66.5s-47.334 -24.833 -80.001 -25.5c-50 1.33301 -83.833 16.166 -101.5 44.499s-25.834 63.833 -24.501 106.5h561c12 104 -11.333 195.833 -70 275.5s-137.334 134.167 -236.001 163.5
c92.667 62.667 172.334 92.834 239.001 90.501s86.667 -67.166 60 -194.499h20c17.333 55.333 22.666 101.666 15.999 138.999s-24.667 62 -54 74c-18 6.66699 -37.333 10 -58 10h-4zM492.004 546.995c40 0 71.167 -11.332 93.5 -33.999s33.833 -54.334 34.5 -95.001h-252
c0 39.333 10.833 70.5 32.5 93.5s52.167 34.833 91.5 35.5zM125.004 124.996c29.333 -42 65.834 -77.6689 109.501 -107.002s92.5 -50.666 146.5 -63.999c-42 -29.333 -90.833 -49.166 -146.5 -59.499s-95.5 -7.83301 -119.5 7.5c-23.333 20.667 -33.333 50.5 -30 89.5
s16.666 83.5 39.999 133.5z" />
    <glyph glyph-name="186dec7a13156bbe2550790c158fb85d" unicode="&#xf01e;" horiz-adv-x="837" 
d="M419 822c-20 -0.666992 -36.667 -7.66699 -50 -21s-20 -30.333 -20 -51s6.66699 -37.667 20 -51s30 -20 50 -20s37.167 6.66699 51.5 20s21.5 30.333 21.5 51s-7.16699 37.667 -21.5 51s-31.5 20.333 -51.5 21zM371 600c-22 -58.667 -43.8311 -98.999 -65.498 -120.999
s-33.5 -32.333 -35.5 -31c-0.666992 4 -11.667 31.833 -33 83.5s-46.666 101.167 -75.999 148.5c-10.667 -26 -23.334 -47.333 -38.001 -64s-34 -28.667 -58 -36c1.33301 -26 9.83301 -69.5 25.5 -130.5s25.5 -114.167 29.5 -159.5h601
c3.33301 44.667 12.833 98.5 28.5 161.5s24.5 105.167 26.5 126.5c-20 8 -39.333 20.667 -58 38s-31.334 38.666 -38.001 63.999c-32 -47.333 -58 -96.833 -78 -148.5s-30.333 -79.5 -31 -83.5c-2 -1.33301 -13.833 9 -35.5 31s-43.5 62.333 -65.5 121
c-14.667 -6.66699 -31.834 -10 -51.501 -10s-35.5 3.33301 -47.5 10zM74.002 822.001c-20.667 -0.666992 -38 -7.66699 -52 -21s-21 -30.333 -21 -51s7 -37.667 21 -51s31.167 -20 51.5 -20s37 6.66699 50 20s19.5 30.333 19.5 51s-6.5 37.667 -19.5 51
s-29.5 20.333 -49.5 21zM121.002 219.001v-119h600v119h-600zM765.002 822.001c-20.667 -0.666992 -37.667 -7.66699 -51 -21s-20 -30.333 -20 -51s6.66699 -37.667 20 -51s30.333 -20 51 -20s37.667 6.66699 51 20s20 30.333 20 51s-6.66699 37.667 -20 51
s-30.333 20.333 -51 21z" />
    <glyph glyph-name="36ef9feb0754335302784521267a9ad4" unicode="&#xf01f;" horiz-adv-x="853" 
d="M419 822c-20 -0.666992 -36.667 -7.66699 -50 -21s-20 -30.333 -20 -51s6.66699 -37.667 20 -51s30 -20 50 -20s37.167 6.66699 51.5 20s21.5 30.333 21.5 51s-7.16699 37.667 -21.5 51s-31.5 20.333 -51.5 21zM371 600c-22 -58.667 -43.8301 -99 -65.4971 -121
s-33.5 -32.333 -35.5 -31c-0.666992 4 -11.667 31.833 -33 83.5s-46.666 101.167 -75.999 148.5c-10.667 -26 -23.334 -47.333 -38.001 -64s-34 -28.667 -58 -36c1.33301 -26 9.83301 -69.5 25.5 -130.5s25.5 -114.167 29.5 -159.5h362v72h248
c3.33301 36.667 10.166 74.334 20.499 113.001s18.833 73 25.5 103c-20 8 -39.333 20.667 -58 38s-31.334 38.666 -38.001 63.999c-32 -47.333 -58 -96.833 -78 -148.5s-30.333 -79.5 -31 -83.5c-2 -1.33301 -13.833 9 -35.5 31s-43.5 62.333 -65.5 121
c-14.667 -6.66699 -31.834 -10 -51.501 -10s-35.5 3.33301 -47.5 10zM74.0029 822c-20.667 -0.666992 -38 -7.66699 -52 -21s-21 -30.333 -21 -51s7 -37.667 21 -51s31.167 -20 51.5 -20s37 6.66699 50 20s19.5 30.333 19.5 51s-6.5 37.667 -19.5 51s-29.5 20.333 -49.5 21z
M121.003 219v-119h230v110h131v9h-361zM765.003 822c-20.667 -0.666992 -37.667 -7.66699 -51 -21s-20 -30.333 -20 -51s6.66699 -37.667 20 -51s30.333 -20 51 -20s37.667 6.66699 51 20s20 30.333 20 51s-6.66699 37.667 -20 51s-30.333 20.333 -51 21zM569.003 6h-72h-74
v138h146v146h138v-146h146v-138h-146v-146h-138v146z" />
    <glyph glyph-name="ec8496ef645f3be7b28147ec60cd9ab1" unicode="&#xf020;" horiz-adv-x="853" 
d="M419 822c-20 -0.666992 -36.667 -7.66699 -50 -21s-20 -30.333 -20 -51s6.66699 -37.667 20 -51s30 -20 50 -20s37.167 6.66699 51.5 20s21.5 30.333 21.5 51s-7.16699 37.667 -21.5 51s-31.5 20.333 -51.5 21zM371 600c-22 -58.667 -43.8311 -98.999 -65.498 -120.999
s-33.5 -32.333 -35.5 -31c-0.666992 4 -11.667 31.833 -33 83.5s-46.666 101.167 -75.999 148.5c-10.667 -26 -23.334 -47.333 -38.001 -64s-34 -28.667 -58 -36c1.33301 -26 9.83301 -69.5 25.5 -130.5s25.5 -114.167 29.5 -159.5h601
c3.33301 44.667 12.833 98.5 28.5 161.5s24.5 105.167 26.5 126.5c-20 8 -39.333 20.667 -58 38s-31.334 38.666 -38.001 63.999c-32 -47.333 -58 -96.833 -78 -148.5s-30.333 -79.5 -31 -83.5c-2 -1.33301 -13.833 9 -35.5 31s-43.5 62.333 -65.5 121
c-14.667 -6.66699 -31.834 -10 -51.501 -10s-35.5 3.33301 -47.5 10zM74.002 822.001c-20.667 -0.666992 -38 -7.66699 -52 -21s-21 -30.333 -21 -51s7 -37.667 21 -51s31.167 -20 51.5 -20s37 6.66699 50 20s19.5 30.333 19.5 51s-6.5 37.667 -19.5 51
s-29.5 20.333 -49.5 21zM121.002 219.001v-119h230v110h370v9h-600zM765.002 822.001c-20.667 -0.666992 -37.667 -7.66699 -51 -21s-20 -30.333 -20 -51s6.66699 -37.667 20 -51s30.333 -20 51 -20s37.667 6.66699 51 20s20 30.333 20 51s-6.66699 37.667 -20 51
s-30.333 20.333 -51 21zM423.002 6.00098v70v73h430v-143h-430z" />
    <glyph glyph-name="8ce732688587909ad0a9d8323eaca8ad" unicode="&#xf021;" 
d="M0 850v-143h143v143h-143zM286 850v-143h143v143h-143zM571 850v-143h143v143h-143zM857 850v-143h143v143h-143zM0 564v-143h143v143h-143zM857 564v-143h143v143h-143zM0 279v-143h143v143h-143zM857 279v-143h143v143h-143zM0 -7v-143h143v143h-143zM286 -7v-143h143
v143h-143zM571 -7v-143h143v143h-143zM857 -7v-143h143v143h-143z" />
    <glyph glyph-name="cfaa8fbbdcc7bb8d636cb974aad1f9b9" unicode="&#xf022;" 
d="M948 746c0 -12.667 -8.00098 -26.9961 -24.001 -42.9961l-353 -353v-429h179c10 0 18.333 -3.33301 25 -10s10.334 -15 11.001 -25s-3 -18.333 -11 -25s-16.333 -10.334 -25 -11.001h-500c-9.33301 0 -17.666 3.66699 -24.999 11s-11 15.666 -11 24.999
s3.66699 17.666 11 24.999s15.666 10.666 24.999 9.99902h179v429l-353 353c-16 16 -24 30.333 -24 43c0 8.66699 3.33301 15.667 10 21s13.667 8.33301 21 9s15.333 1.66699 24 3h786c8.66699 0 16.667 -1 24 -3s14.333 -5 21 -9s10 -11 10 -21z" />
    <glyph glyph-name="9ea0a737ccc45d6c510dcbae56058849" unicode="&#xf023;" horiz-adv-x="857" 
d="M857 725l-0.00683594 -624.996c0 -18.667 -6.33301 -35.334 -19 -50.001s-28.667 -25.667 -48 -33s-38.666 -13.333 -57.999 -18s-37 -6.66699 -53 -6s-34 2.66699 -54 6s-39.333 9.33301 -58 18s-34.667 19.667 -48 33s-19.666 30 -18.999 50s7 36.667 19 50
s28 24.333 48 33s39.333 14.667 58 18s36.667 5.33301 54 6c38.667 0 74.334 -7.33301 107.001 -22v300l-429 -132v-396c0 -18.667 -6.33301 -35.334 -19 -50.001s-28.667 -25.667 -48 -33s-38.666 -13.333 -57.999 -18s-37 -6.66699 -53 -6s-34 2.66699 -54 6
s-39.333 9.33301 -58 18s-34.667 19.667 -48 33s-19.666 30 -18.999 50s7 36.667 19 50s28 24.666 48 33.999s39.333 15 58 17l54 6c38.667 0 74.334 -7 107.001 -21v539c0 11.333 3.33301 22 10 32s16 16.333 28 19l464 143c4.66699 2 10 3 16 3
c14.667 0 27.334 -5.33301 38.001 -16s15.667 -23.334 15 -38.001z" />
    <glyph glyph-name="9dd9e835aebe1060ba7190ad2b2ed951" unicode="&#xf024;" horiz-adv-x="928" 
d="M643 386c0 68.667 -24.668 127.332 -74.001 175.999s-108 73.334 -176 74.001s-127 -24 -177 -74s-74.333 -108.667 -73 -176s25.666 -126.333 72.999 -177s106.333 -75 177 -73s129.334 26.333 176.001 73s71.334 105.667 74.001 177zM928.999 -79.002
c0 -19.333 -7.33496 -35.999 -22.002 -49.999s-31.667 -21 -51 -21s-35.666 7 -48.999 21l-191 191c-66.667 -46 -141 -69 -223 -69c-53.333 0 -104.333 10.333 -153 31s-90.334 48.667 -125.001 84s-62.667 77 -84 125s-31.666 99 -30.999 153s11 104.667 31 152
s48 89.333 84 126s77.667 64.667 125 84s98.333 29.666 153 30.999s105.334 -9 152.001 -31s88.667 -50 126 -84s65.333 -76 84 -126s29 -100.667 31 -152c0 -82 -23 -156.333 -69 -223l191 -191c14 -14 21 -31 21 -51z" />
    <glyph glyph-name="bf882b30900da12fca090d9796bc3030" unicode="&#xf025;" 
d="M929 11l-0.000976562 428c-12 -13.333 -25 -25.666 -39 -36.999c-99.333 -76 -178.666 -138.667 -237.999 -188c-18.667 -16 -34 -28.667 -46 -38s-28 -18.333 -48 -27s-39 -13 -57 -13h-2c-17.333 0 -36.333 4.33301 -57 13s-36.667 17.667 -48 27l-46 38
c-58.667 49.333 -138 112 -238 188c-14 11.333 -27 23.666 -39 36.999v-428c0 -5.33301 2 -9.66602 6 -12.999s8 -5 12 -5h822c4.66699 0 8.66699 1.66699 12 5s5.33301 7.66602 6 12.999zM928.999 597l-0.000976562 14.002l-2 14l-3 5
c-2 3.33301 -3.66699 4.66602 -5 3.99902s-4 0 -8 2h-822c-4.66699 0 -8.66699 -2 -12 -6s-5.33301 -8 -6 -12c0 -62.667 27.333 -115.667 82 -159l224 -177c2.66699 -1.33301 9.33398 -6.66602 20.001 -15.999s19 -16.333 25 -21s14.333 -10.667 25 -18s20 -12.333 28 -15
s16 -4.33398 24 -5.00098h2c7.33301 0 15.333 1.66699 24 5s18 8.33301 28 15s18.333 12.667 25 18l25 21c10 8.66699 16.667 14 20 16l224 177c20 16 38.667 37.667 56 65s26 51.666 26 72.999zM999.998 618.002v-607c0 -24.667 -8.66699 -45.667 -26 -63
s-38.333 -26.333 -63 -27h-822c-24 0 -45 9 -63 27s-26.667 39 -26 63v607c0 24.667 8.66699 45.667 26 63s38.333 26 63 26h822c24.667 0 45.667 -8.66699 63 -26s26 -38.333 26 -63z" />
    <glyph glyph-name="ccc2329632396dc096bb638d4b46fb98" unicode="&#xf026;" 
d="M1000 454l-0.00195312 -443.001c0 -24.667 -8.66699 -45.667 -26 -63s-38.333 -26.333 -63 -27h-822c-24 0 -45 9 -63 27s-26.667 39 -26 63v443c16.667 -18.667 35.334 -35 56.001 -49l278 -192c21.333 -16 38.333 -28.333 51 -37s30.334 -17.667 53.001 -27
s43 -13.666 61 -12.999h2c18.667 0 39 4.33301 61 13s39.667 17.667 53 27l51 37l278 192c21.333 14.667 40 31 56 49zM999.998 617.999c0 -29.333 -9 -57.332 -27 -83.999s-40.667 -49.667 -68 -69l-262 -181l-53 -39c-8 -6 -17.667 -12 -29 -18s-22.333 -11 -33 -15
s-19.667 -5.66699 -27 -5h-2c-8 0 -17 1.66699 -27 5s-21 8.33301 -33 15s-21.667 12.667 -29 18l-53 39l-147 101c-64 44 -102 70.667 -114 80c-23.333 15.333 -45 36.666 -65 63.999s-30.333 53 -31 77c0 28.667 7.66699 52.667 23 72s37.333 29 66 29h822
c24 0 44.667 -8.66699 62 -26s26.333 -38.333 27 -63z" />
    <glyph glyph-name="17c21cd98db80e521e573eba247bd69b" unicode="&#xf027;" horiz-adv-x="857" 
d="M696 779c44.667 0 82.667 -16 114 -48s47 -69.667 47 -113v-536c0 -44 -15.667 -81.667 -47 -113s-69.333 -47.333 -114 -48h-535c-44.667 0 -82.667 16 -114 48s-47 69.667 -47 113v536c0 44 15.667 81.667 47 113s69.333 47.333 114 48h535zM714 189
l-0.00195312 244.001c-11.333 -13.333 -23 -23.666 -35 -30.999l-74 -48l-85 -55c-36.667 -25.333 -67 -38 -91 -38s-54.667 12.667 -92 38c-17.333 12 -43.666 29.333 -78.999 52l-79 51c-4.66699 3.33301 -11 8.66602 -19 15.999s-13.667 12.333 -17 15v-244
c0 -14.667 5.33301 -27.334 16 -38.001s23 -15.667 37 -15h465c14.667 0 27.334 5 38.001 15s15.667 22.667 15 38zM713.998 509.001c0 15.333 -4.99902 28.3311 -14.999 38.998s-22.667 16 -38 16h-465c-14.667 0 -27 -5 -37 -15s-15.333 -22.667 -16 -38
c0 -14 5.66699 -28.333 17 -43s24 -26.667 38 -36c17.333 -12 42.666 -28.667 75.999 -50l73 -46l21 -14c2.66699 -2 6.33398 -4.33301 11.001 -7l14 -8c4.66699 -2.66699 8.66699 -4.33398 12 -5.00098s7.33301 -2 12 -4s8.66699 -2.66699 12 -2l11 2
c4 0.666992 8.33301 2 13 4l12 5c3.33301 1.33301 7.66602 4 12.999 8s9 6.33301 11 7s6 3.33398 12 8.00098s9.33301 6.66699 10 6l149 97c12.667 8.66699 25 20.334 37 35.001s17.667 28.334 17 41.001z" />
    <glyph glyph-name="d73eceadda1f594cec0536087539afbf" unicode="&#xf028;" 
d="M500 -79c-9.33301 0 -17.6631 3.33594 -24.9961 10.0029l-348 336l-15 15c-6.66699 6.66699 -17 18.667 -31 36s-26.667 35.666 -38 54.999s-21.333 41.666 -30 66.999s-13 51 -13 77c0 82 23.667 146 71 192s112.666 69.333 195.999 70c22.667 0 46 -4 70 -12
s46.333 -19 67 -33s38.667 -26.667 54 -38s29.333 -24 42 -38c13.333 13.333 27.333 26 42 38s32.667 24.667 54 38s43.666 24.333 66.999 33s46.666 12.667 69.999 12c83.333 0 148.666 -23.333 195.999 -70s71 -110.834 71 -192.501s-42.667 -165.167 -128 -250.5
l-347 -335c-6.66699 -6.66699 -15 -10 -25 -10z" />
    <glyph glyph-name="f3dc2d6d8fe9cf9ebff84dc260888cdf" unicode="&#xf029;" 
d="M929 517c0 30.667 -3.99902 57.334 -11.999 80.001s-18.333 41 -31 55s-28 25 -46 33s-35.333 14 -52 18s-35 5.33301 -55 4s-40.667 -6 -62 -14s-42 -20 -62 -36s-36 -29.333 -48 -40s-23.333 -22 -34 -34c-6.66699 -8.66699 -15.667 -13 -27 -13
s-20.333 4.33301 -27 13c-9.33301 10 -20.666 21.333 -33.999 34s-29.333 26 -48 40s-39.334 26 -62.001 36s-43.334 14.667 -62.001 14s-37 -2 -55 -4s-35.333 -8 -52 -18s-32 -21 -46 -33s-24.333 -30.333 -31 -55s-10.667 -51.334 -12 -80.001c0 -62 35 -128 105 -198
l324 -312l324 312c70 70 105 136 105 198zM1000 517c0 -82 -42.6631 -165.665 -127.996 -250.998l-347 -335c-6.66699 -6.66699 -15 -10 -25 -10s-18.333 3.33301 -25 10l-348 336l-15 15c-6.66699 6.66699 -17 18.667 -31 36s-26.667 35.666 -38 54.999
s-21.333 41.666 -30 66.999s-13 51 -13 77c0 82 23.667 146 71 192s112.666 69.333 195.999 70c22.667 0 46 -4 70 -12s46.333 -19 67 -33s38.667 -26.667 54 -38s29.333 -24 42 -38c13.333 13.333 27.333 26 42 38s32.667 24.667 54 38s43.666 24.333 66.999 33
s46.666 12.667 69.999 12c83.333 0 148.666 -23.333 195.999 -70s71 -110.667 71 -192z" />
    <glyph glyph-name="474656633f79ea2f1dad59ff63f6bf07" unicode="&#xf02a;" horiz-adv-x="928" 
d="M929 489c0 -8 -5 -17.0029 -15 -27.0029l-203 -197l48 -279c0.666992 -2.66699 1 -6.66699 1 -12c0 -7.33301 -2 -13.666 -6 -18.999s-9.5 -8.16602 -16.5 -8.49902s-14.5 1.83398 -22.5 6.50098l-251 132l-250 -132c-8.66699 -4.66699 -16.5 -7 -23.5 -7
s-12.5 3 -16.5 9s-6 12.333 -6 19c0 2.66699 0.333008 6.66699 1 12l48 279l-203 197c-9.33301 10 -14 19 -14 27c-0 14 10.333 22.667 31 26l280 40l126 254c7.33301 15.333 16.333 23 27 23s20 -7.66699 28 -23l125 -254l280 -40c21.333 -3.33301 32 -12 32 -26z" />
    <glyph glyph-name="d17030afaecc1e1c22349b99f3c4992a" unicode="&#xf02b;" horiz-adv-x="928" 
d="M634 290l171 165l-235 35l-106 213l-105 -213l-236 -35l171 -165l-41 -235l211 111l211 -111zM929 489c0 -8 -5 -17 -15 -27l-203 -197l48 -279c0.666992 -2.66699 1 -6.66699 1 -12c0 -18.667 -7.66699 -28 -23 -28c-6.66699 0 -14 2.33301 -22 7l-251 132l-250 -132
c-8.66699 -4.66699 -16.5 -7 -23.5 -7s-12.5 3 -16.5 9s-6 12.333 -6 19c0 2.66699 0.333008 6.66699 1 12l48 279l-203 197c-9.33301 10 -14 19 -14 27c-0 14 10.333 22.667 31 26l280 40l126 254c7.33301 15.333 16.333 23 27 23s20 -7.66699 28 -23l125 -254l280 -40
c21.333 -3.33301 32 -12 32 -26z" />
    <glyph glyph-name="8f8278fbe5a2a0ea836be3c408b005d2" unicode="&#xf02c;" horiz-adv-x="500" 
d="M464 832v-747l-250 -132c-8.66699 -4.66699 -16.5 -7 -23.5 -7s-12.5 3 -16.5 9s-6 12.333 -6 19c0 2.66699 0.333008 6.66699 1 12l48 279l-203 197c-9.33301 10 -14 19 -14 27c-0 14 10.333 22.667 31 26l280 40l126 254c7.33301 15.333 16.333 23 27 23z" />
    <glyph glyph-name="84cf1fcc3fec556e7eaeb19679ca2dc9" unicode="&#xf02d;" horiz-adv-x="928" 
d="M662 316l143 139l-198 29l-37 6l-106 213v-537l33 -17l178 -94l-34 198l-7 37zM914 462l-202 -196.997l47 -279c2 -12.667 1 -22.334 -3 -29.001s-10.333 -10.334 -19 -11.001c-6 0 -13.333 2.33301 -22 7l-251 132l-250 -132c-8.66699 -4.66699 -16.667 -7 -24 -7
s-13.333 3.66699 -18 11s-5.66699 17 -3 29l48 279l-203 197c-12 12 -16.333 23 -13 33s13.333 16.667 30 20l280 40l126 254c7.33301 15.333 16.333 23 27 23s20 -7.66699 28 -23l125 -254l280 -40c16.667 -2.66699 26.667 -9.33398 30 -20.001s-1 -21.667 -13 -33z" />
    <glyph glyph-name="8b80d36d4ef43889db10bc1f0dc9a862" unicode="&#xf02e;" horiz-adv-x="785" 
d="M786 66c0 -44.667 -13.668 -80.002 -41.001 -106.002s-63.333 -39 -108 -39h-488c-44.667 0 -80.667 13 -108 39s-41 61.333 -41 106c0 20 0.666992 39.333 2 58s4 39 8 61s9 42 15 60s14 36.333 24 55s21.333 33.667 34 45s28.667 21.333 48 30s40 12.334 62 11.001
c3.33301 0 11.333 -4 24 -12l41 -27c14.667 -10 34.667 -19 60 -27s50.333 -12 75 -12s49.334 4 74.001 12s45 17 61 27s29.667 19 41 27s19.333 12 24 12c22.667 0 43.334 -3.66699 62.001 -11s34.667 -17.333 48 -30s24.666 -27.667 33.999 -45s17.333 -35.666 24 -54.999
s11.667 -39.333 15 -60s6 -41 8 -61s2.66699 -39.333 2 -58zM606.999 563.998c0 -58.667 -20.9971 -109.001 -62.9971 -151.001s-92.333 -63 -151 -63s-109.334 21 -152.001 63s-63.334 92.333 -62.001 151s22 109.334 62 152.001s90.667 63.667 152 63
s111.666 -21.667 150.999 -63s60.333 -92 63 -152z" />
    <glyph glyph-name="31972e4e9d080eaa796290349ae6c1fd" unicode="&#xf02f;" horiz-adv-x="1071" 
d="M331 350c-60 -2 -109.334 -25.667 -148.001 -71h-75c-30 0 -55.667 7.33301 -77 22s-31.666 36.667 -30.999 66c0 131.333 23 197 69 197c2.66699 0 11 -3.66699 25 -11s32 -15.333 54 -24s44 -12.667 66 -12c25.333 0 50.333 4.33301 75 13c-2 -14 -3 -26.333 -3 -37
c0 -52 15 -99.667 45 -143zM928.999 -6c0 -44 -13.6709 -79 -41.0039 -105s-63.333 -39 -108 -39h-488c-45.333 0 -81.333 13 -108 39s-40.334 61 -41.001 105c0 20 0.666992 39.333 2 58s4 39 8 61s8.66699 42.333 14 61s13.333 36.667 24 54s22.334 32.333 35.001 45
s28.667 22.667 48 30s40 11 62 11c4 0 12 -4 24 -12s25.667 -16.667 41 -26s35 -18.333 59 -27s49.333 -12.667 76 -12s51.667 4.66699 75 12s43.333 16.333 60 27l41 26c10.667 6.66699 18.334 10.667 23.001 12c23.333 0 44.333 -3.66699 63 -11
s34.334 -17.333 47.001 -30s24.334 -27.667 35.001 -45s18.667 -35.333 24 -54s10.333 -39 15 -61s7.33398 -42.333 8.00098 -61zM356.995 707c0 -39.333 -14 -73 -42 -101s-61.667 -42 -101 -42s-73 14 -101 42s-42 61.667 -42 101s14 73 42 101s61.667 42 101 42
s73 -14 101 -42s42 -61.667 42 -101zM749.995 493c0 -59.333 -20.999 -110.002 -62.999 -152.002s-92.333 -62.667 -151 -62s-109.334 21.334 -152.001 62.001s-63.667 91.334 -63 152.001s21.667 111 63 151s92 61 152 63s110.333 -19 151 -63s61.667 -94.333 63 -151z
M1071 366.998c0 -28.667 -10.333 -50.668 -31 -66.001s-46.334 -22.666 -77.001 -21.999h-75c-38 45.333 -87 69 -147 71c30 43.333 45 91 45 143c0 10.667 -1 23 -3 37c24.667 -8.66699 49.334 -13 74.001 -13c22 0 44.333 4 67 12s40.667 16 54 24s21.333 11.667 24 11
c46 0 69 -65.667 69 -197zM999.996 706.997c0 -39.333 -14 -73 -42 -101s-61.667 -42 -101 -42s-73 14 -101 42s-42 61.667 -42 101s14 73 42 101s61.667 42 101 42s73 -14 101 -42s42 -61.667 42 -101z" />
    <glyph glyph-name="ca2d64f8a3ea7cbf6af45898b2dcf35e" unicode="&#xf030;" horiz-adv-x="571" 
d="M571 457l0.00390625 -231.998c0 -14.667 -5 -27.334 -15 -38.001s-22.667 -16 -38 -16s-28 5.33301 -38 16s-15.333 23.334 -16 38.001v196h-35v-509c0 -16.667 -6.33301 -31.334 -19 -44.001s-27.334 -18.667 -44.001 -18s-31.334 6.66699 -44.001 18s-18.667 26 -18 44
v259h-36v-259c0 -16.667 -6.33301 -31.334 -19 -44.001s-27.334 -18.667 -44.001 -18s-31.334 6.66699 -44.001 18s-18.667 26 -18 44v509h-36v-196c0 -14.667 -5 -27.334 -15 -38.001s-22.667 -16 -38 -16s-28 5.33301 -38 16s-15.333 23.334 -16 38.001v232
c-0 30 10.333 55.333 31 76s46 31 76 31h357c30 0 55.333 -10.333 76 -31s31 -46 31 -76zM411.004 707.002c0 -34.667 -12.334 -63.998 -37.001 -87.998s-54 -36.333 -88 -37s-63.667 11.666 -89 36.999s-37.333 54.666 -36 87.999s13.333 63 36 89s52.334 38 89.001 36
s66 -14 88 -36s34.333 -51.667 37 -89z" />
    <glyph glyph-name="9bf7e14698cccdca37a6f1a02cf7d79e" unicode="&#xf031;" horiz-adv-x="714" 
d="M714 261c0 -15.333 -4.99707 -28 -14.9971 -38s-22.667 -15.333 -38 -16c-19.333 0 -34.333 8 -45 24l-127 190h-25v-73l138 -230c3.33301 -5.33301 5 -11.333 5 -18c0 -9.33301 -3.33301 -17.666 -10 -24.999s-15.334 -11 -26.001 -11h-107v-152
c0 -16.667 -6 -31.334 -18 -44.001s-26.667 -18.667 -44 -18h-89c-17.333 0 -32.333 6 -45 18s-18.667 26.667 -18 44v152h-107c-10 0 -18.333 3.66699 -25 11s-10.334 15.666 -11.001 24.999c0 6.66699 1.66699 12.667 5 18l138 230v73h-25l-127 -190
c-10.667 -16 -25.334 -24 -44.001 -24c-15.333 0 -28 5.33301 -38 16s-15.333 23.334 -16 38.001c0 10.667 3 20.334 9 29.001l143 215c27.333 39.333 60 59 98 59h214c38.667 0 71.667 -19.667 99 -59l142 -215c6 -8.66699 9 -18.334 9 -29.001zM482.003 707
c0 -34.667 -12.0029 -63.998 -36.0029 -87.998s-53.667 -36.333 -89 -37s-64.666 11.666 -87.999 36.999s-35.666 54.666 -36.999 87.999s11 63 37 89s55.333 38 88 36s62.334 -14 89.001 -36s38.667 -51.667 36 -89z" />
    <glyph glyph-name="c2314ed1d2314b89f9285c53bcbf2548" unicode="&#xf032;" horiz-adv-x="714" 
d="M663 544l-163.002 -162.998v-460c0 -16.667 -6 -31.334 -18 -44.001s-26.667 -18.667 -44 -18s-32.333 6.66699 -45 18s-18.667 26 -18 44v215h-36v-215c0 -16.667 -6 -31.334 -18 -44.001s-26.667 -18.667 -44 -18s-32 6.66699 -44 18s-18.333 26 -19 44v460l-163 163
c-10 10.667 -15 23.334 -15 38.001s5 27.334 15 38.001s22.667 16 38 16s28 -5.33301 38 -16l127 -127h206l127 127c10.667 10.667 23.334 16 38.001 16s27.334 -5.33301 38.001 -16s16 -23.334 16 -38.001s-5.33301 -27.334 -16 -38.001zM481.998 636.002
c0 -34.667 -12.0029 -64.333 -36.0029 -89s-53.667 -36.667 -89 -36s-64.666 12.667 -87.999 36s-35.666 53 -36.999 89s11 65.333 37 88s55.333 35 88 37s62.334 -10.333 89.001 -37s38.667 -56 36 -88z" />
    <glyph glyph-name="872d9516df93eb6b776cc4d94bd97dac" unicode="&#xf033;" horiz-adv-x="1071" 
d="M214 -43l0.00195312 72.002c0 9.33301 -3.33301 17.666 -10 24.999s-15 10.666 -25 9.99902h-72c-9.33301 0 -17.666 -3.33301 -24.999 -10s-11 -15 -11 -25v-72c0 -9.33301 3.66699 -17.666 11 -24.999s15.666 -11 24.999 -11h72c9.33301 0 17.666 3.66699 24.999 11
s10.666 15.666 9.99902 24.999zM214.002 171.002l0.00195312 71.998c0 9.33301 -3.33301 17.666 -10 24.999s-15 11 -25 11h-72c-9.33301 0 -17.666 -3.66699 -24.999 -11s-11 -15.666 -11 -24.999v-72c0 -9.33301 3.66699 -17.666 11 -24.999
s15.666 -10.666 24.999 -9.99902h72c9.33301 0 17.666 3.33301 24.999 10s10.666 15 9.99902 25zM214.004 386l0.00195312 71c0 10 -3.33301 18.333 -10 25s-15 10.334 -25 11.001h-72c-9.33301 0 -17.666 -3.66699 -24.999 -11s-11 -15.666 -11 -24.999v-71
c0 -10 3.66699 -18.333 11 -25s15.666 -10.334 24.999 -11.001h72c9.33301 0 17.666 3.66699 24.999 11s10.666 15.666 9.99902 24.999zM786.006 -43l-0.00390625 286c0 9.33301 -3.66699 17.666 -11 24.999s-15.666 11 -24.999 11h-429
c-9.33301 0 -17.666 -3.66699 -24.999 -11s-10.666 -15.666 -9.99902 -24.999v-286c0 -9.33301 3.33301 -17.666 10 -24.999s15 -11 25 -11h429c10 0 18.333 3.66699 25 11s10.334 15.666 11.001 24.999zM214.002 600l0.00195312 71.0039c0 10 -3.33301 18.667 -10 26
s-15 10.666 -25 9.99902h-72c-9.33301 0 -17.666 -3.33301 -24.999 -10s-11 -15.334 -11 -26.001v-71c0 -10 3.66699 -18.333 11 -25s15.666 -10.334 24.999 -11.001h72c9.33301 0 17.666 3.66699 24.999 11s10.666 15.666 9.99902 24.999zM1000 -42.9961v72.002
c0 9.33301 -3.66699 17.666 -11 24.999s-15.666 10.666 -24.999 9.99902h-71c-10 0 -18.333 -3.33301 -25 -10s-10.334 -15 -11.001 -25v-72c0 -9.33301 3.66699 -17.666 11 -24.999s15.666 -11 24.999 -11h71c10 0 18.333 3.66699 25 11s10.334 15.666 11.001 24.999z
M786.004 386.006l-0.00390625 285.004c0 10 -3.66699 18.667 -11 26s-15.666 10.666 -24.999 9.99902h-429c-9.33301 0 -17.666 -3.33301 -24.999 -10s-10.666 -15.334 -9.99902 -26.001v-285c0 -10 3.33301 -18.333 10 -25s15 -10.334 25 -11.001h429
c10 0 18.333 3.66699 25 11s10.334 15.666 11.001 24.999zM1000 171.01v71.998c0 9.33301 -3.66699 17.666 -11 24.999s-15.666 11 -24.999 11h-71c-10 0 -18.333 -3.66699 -25 -11s-10.334 -15.666 -11.001 -24.999v-72c0 -9.33301 3.66699 -17.666 11 -24.999
s15.666 -10.666 24.999 -9.99902h71c10 0 18.333 3.33301 25 10s10.334 15 11.001 25zM1000 386.008v71c0 10 -3.66699 18.333 -11 25s-15.666 10.334 -24.999 11.001h-71c-10 0 -18.333 -3.66699 -25 -11s-10.334 -15.666 -11.001 -24.999v-71
c0 -10 3.66699 -18.333 11 -25s15.666 -10.334 24.999 -11.001h71c10 0 18.333 3.66699 25 11s10.334 15.666 11.001 24.999zM1000 600.008v71.0039c0 10 -3.66699 18.667 -11 26s-15.666 10.666 -24.999 9.99902h-71c-10 0 -18.333 -3.33301 -25 -10
s-10.334 -15.334 -11.001 -26.001v-71c0 -10 3.66699 -18.333 11 -25s15.666 -10.334 24.999 -11.001h71c10 0 18.333 3.66699 25 11s10.334 15.666 11.001 24.999zM1071 689.012v-750c0 -24.667 -8.66699 -45.667 -26 -63s-38.333 -26 -63 -26h-893
c-24 0 -45 8.66699 -63 26s-26.667 38.333 -26 63v750c0 24.667 8.66699 45.667 26 63s38.333 26.333 63 27h893c24.667 0 45.667 -9 63 -27s26 -39 26 -63z" />
    <glyph glyph-name="0f99ab40ab0b4d64a74f2d0deeb03e42" unicode="&#xf034;" 
d="M1000 654v-608c0 -15.333 -7.33301 -26 -22 -32c-4.66699 -2 -9.33398 -3 -14.001 -3c-10 0 -18.333 3.33301 -25 10l-225 225v-92c0 -44.667 -15.667 -82.667 -47 -114s-69 -47 -113 -47h-393c-44.667 0 -82.667 15.667 -114 47s-47 69.333 -47 114v392
c0 44.667 15.667 82.667 47 114s69.333 47 114 47h393c44 0 81.667 -15.667 113 -47s47 -69.333 47 -114v-92l225 225c6.66699 6.66699 15 10 25 10c4.66699 0 9.33398 -1 14.001 -3c14.667 -6 22 -16.667 22 -32z" />
    <glyph glyph-name="381da2c2f7fd51f8de877c044d7f439d" unicode="&#xf035;" horiz-adv-x="1071" 
d="M357 529c0 -30 -10.333 -55.332 -31 -75.999s-46 -31.334 -76 -32.001s-55.333 10 -76 32s-31 47.333 -31 76s10.333 53.667 31 75s46 32 76 32s55.333 -10.667 76 -32s31 -46.333 31 -75zM929 314.001v-250h-786v107l178 179l90 -89l285 285zM982 707.001
l-893.001 -0.000976562c-4.66699 0 -8.66699 -1.66699 -12 -5s-5.33301 -7.66602 -6 -12.999v-678c0 -5.33301 2 -9.66602 6 -12.999s8 -5 12 -5h893c4.66699 0 9 1.66699 13 5s5.66699 7.66602 5 12.999v678c0 4.66699 -1.66699 9 -5 13s-7.66602 5.66699 -12.999 5z
M1071 689v-678c0 -24.667 -8.66699 -45.667 -26 -63s-38.333 -26.333 -63 -27h-893c-24 0 -45 9 -63 27s-26.667 39 -26 63v678c0 24.667 8.66699 45.667 26 63s38.333 26.333 63 27h893c24.667 0 45.667 -9 63 -27s26 -39 26 -63z" />
    <glyph glyph-name="dc3f1d5b1d006f7f7b3b6295eccab9da" unicode="&#xf036;" horiz-adv-x="1071" 
d="M536 475c44 0 81.666 -15.666 112.999 -46.999s47 -69.333 47 -114s-15.667 -82.334 -47 -113.001s-69 -46.334 -113 -47.001s-82 15 -114 47s-47.667 69.667 -47 113s16.334 81.333 47.001 114s68.667 48.334 114 47.001zM928.999 707.001c39.333 0 73 -14 101 -42
s41.667 -61.667 41 -101v-500c0 -39.333 -13.667 -73 -41 -101s-61 -42 -101 -42h-786c-39.333 0 -73 14 -101 42s-42 61.667 -42 101v500c0 39.333 14 73 42 101s61.667 42 101 42h125l28 76c7.33301 18 20.333 33.667 39 47s38 20 58 20h286
c19.333 0 38.333 -6.66699 57 -20s31.667 -29 39 -47l29 -76h125zM535.999 64.001c68.667 0 127.332 24.668 175.999 74.001s73.334 108 74.001 176s-24 127 -74 177s-108.667 74.333 -176 73s-126.333 -25.666 -177 -72.999s-75 -106.333 -73 -177
s26.333 -129.334 73 -176.001s105.667 -71.334 177 -74.001z" />
    <glyph glyph-name="9d3d9d6ce1ec63eaa26281e6162853c9" unicode="&#xf037;" 
d="M518 386c0 5.33301 -1.66797 9.66797 -5.00098 13.001s-7.66602 5 -12.999 5c-24.667 0 -45.667 -9 -63 -27s-26 -39 -26 -63c0 -5.33301 1.66699 -9.66602 5 -12.999s7.66602 -5 12.999 -5s9.33301 1.66699 12 5s4.33398 7.66602 5.00098 12.999
c0 15.333 5.33301 28 16 38s23.334 15.333 38.001 16c5.33301 0 9.66602 1.66699 12.999 5s5 7.66602 5 12.999zM642.999 313.002c0 -39.333 -14 -73 -42 -101s-61.667 -42 -101 -42s-73 14 -101 42s-42 61.667 -42 101s14 73 42 101s61.667 42 101 42s73 -14 101 -42
s42 -61.667 42 -101zM70.999 -6.99805h858v71h-858v-71zM713.999 313.002c0 59.333 -20.666 110.002 -61.999 152.002s-92 62.667 -152 62s-110.333 -21.334 -151 -62.001s-61.667 -91.334 -63 -152.001s19.667 -111 63 -151s93.666 -61 150.999 -63s108 19 152 63
s64.667 94.333 62 151zM143 671.004h214v72h-214v-72zM71 564.004h858v143h-462l-36 -71h-360v-72zM1000 707.004v-714c0 -20 -7 -37 -21 -51s-30.667 -21 -50 -21h-858c-19.333 0 -36 7 -50 21s-21 31 -21 51v714c0 20 7 37 21 51s30.667 21 50 21h858
c19.333 0 36 -7 50 -21s21 -31 21 -51z" />
    <glyph glyph-name="dd492243d64e21dfe16a92452f7861cb" unicode="&#xf038;" horiz-adv-x="928" 
d="M429 279l0.000976562 -215c0 -19.333 -7.33301 -36 -22 -50s-31.334 -21 -50.001 -21h-286c-19.333 0 -36 7 -50 21s-21 30.667 -21 50v215c0 19.333 7 36 21 50s30.667 21 50 21h286c19.333 0 36 -7 50 -21s21.333 -30.667 22 -50zM429.001 707l0.000976562 -214
c0 -19.333 -7.33301 -36 -22 -50s-31.334 -21.333 -50.001 -22h-286c-19.333 0 -36 7.33301 -50 22s-21 31.334 -21 50.001v214c0 19.333 7 36 21 50s30.667 21.333 50 22h286c19.333 0 36 -7.33301 50 -22s21.333 -31.334 22 -50.001zM929.002 279l0.000976562 -215
c0 -19.333 -7.33301 -36 -22 -50s-31.334 -21 -50.001 -21h-286c-19.333 0 -36 7 -50 21s-21 30.667 -21 50v215c0 19.333 7 36 21 50s30.667 21 50 21h286c19.333 0 36 -7 50 -21s21.333 -30.667 22 -50zM929.003 707l0.000976562 -214c0 -19.333 -7.33301 -36 -22 -50
s-31.334 -21.333 -50.001 -22h-286c-19.333 0 -36 7.33301 -50 22s-21 31.334 -21 50.001v214c0 19.333 7 36 21 50s30.667 21.333 50 22h286c19.333 0 36 -7.33301 50 -22s21.333 -31.334 22 -50.001z" />
    <glyph glyph-name="b1887b423d2fd15c345e090320c91ca0" unicode="&#xf039;" 
d="M286 154l-0.000976562 -108.001c0 -14.667 -5.33301 -27 -16 -37s-23.334 -15.333 -38.001 -16h-178c-15.333 0 -28 5.33301 -38 16s-15.333 23 -16 37v108c0 14.667 5.33301 27.334 16 38.001s23.334 15.667 38.001 15h178c14.667 0 27.334 -5 38.001 -15
s16 -22.667 16 -38zM285.999 438.999l-0.000976562 -106.998c0 -14.667 -5.33301 -27.334 -16 -38.001s-23.334 -15.667 -38.001 -15h-178c-15.333 0 -28 5 -38 15s-15.333 22.667 -16 38v107c0 15.333 5.33301 28 16 38s23.334 15.333 38.001 16h178
c14.667 0 27.334 -5.33301 38.001 -16s16 -23.334 16 -38.001zM642.998 154.001v-108.001c0 -14.667 -5.33301 -27 -16 -37s-23.334 -15.333 -38.001 -16h-178c-15.333 0 -28 5.33301 -38 16s-15.333 23 -16 37v108c0 14.667 5.33301 27.334 16 38.001
s23.334 15.667 38.001 15h178c15.333 0 28 -5 38 -15s15.333 -22.667 16 -38zM285.998 725l-0.000976562 -107c0 -14.667 -5.33301 -27.334 -16 -38.001s-23.334 -16 -38.001 -16h-178c-15.333 0 -28 5.33301 -38 16s-15.333 23.334 -16 38.001v107
c0 14.667 5.33301 27.334 16 38.001s23.334 16 38.001 16h178c14.667 0 27.334 -5.33301 38.001 -16s16 -23.334 16 -38.001zM642.997 439v-106.998c0 -14.667 -5.33301 -27.334 -16 -38.001s-23.334 -15.667 -38.001 -15h-178c-15.333 0 -28 5 -38 15
s-15.333 22.667 -16 38v107c0 15.333 5.33301 28 16 38s23.334 15.333 38.001 16h178c15.333 0 28 -5.33301 38 -16s15.333 -23.334 16 -38.001zM999.997 154.002l0.000976562 -108.001c0 -14.667 -5.33301 -27 -16 -37s-23.334 -15.333 -38.001 -16h-178
c-14.667 0 -27.334 5.33301 -38.001 16s-16 23 -16 37v108c0 14.667 5.33301 27.334 16 38.001s23.334 15.667 38.001 15h178c15.333 0 28 -5 38 -15s15.333 -22.667 16 -38zM642.998 725.001v-107c0 -14.667 -5.33301 -27.334 -16 -38.001s-23.334 -16 -38.001 -16h-178
c-15.333 0 -28 5.33301 -38 16s-15.333 23.334 -16 38.001v107c0 14.667 5.33301 27.334 16 38.001s23.334 16 38.001 16h178c15.333 0 28 -5.33301 38 -16s15.333 -23.334 16 -38.001zM999.998 439.001l0.000976562 -106.998c0 -14.667 -5.33301 -27.334 -16 -38.001
s-23.334 -15.667 -38.001 -15h-178c-14.667 0 -27.334 5 -38.001 15s-16 22.667 -16 38v107c0 15.333 5.33301 28 16 38s23.334 15.333 38.001 16h178c15.333 0 28 -5.33301 38 -16s15.333 -23.334 16 -38.001zM999.999 725.003l0.000976562 -107
c0 -14.667 -5.33301 -27.334 -16 -38.001s-23.334 -16 -38.001 -16h-178c-14.667 0 -27.334 5.33301 -38.001 16s-16 23.334 -16 38.001v107c0 14.667 5.33301 27.334 16 38.001s23.334 16 38.001 16h178c15.333 0 28 -5.33301 38 -16s15.333 -23.334 16 -38.001z" />
    <glyph glyph-name="f805bb95d40c7ef2bc51b3d50d4f2e5c" unicode="&#xf03a;" 
d="M286 154l-0.000976562 -108.001c0 -14.667 -5.33301 -27 -16 -37s-23.334 -15.333 -38.001 -16h-178c-15.333 0 -28 5.33301 -38 16s-15.333 23 -16 37v108c0 14.667 5.33301 27.334 16 38.001s23.334 15.667 38.001 15h178c14.667 0 27.334 -5 38.001 -15
s16 -22.667 16 -38zM285.999 438.999l-0.000976562 -106.998c0 -14.667 -5.33301 -27.334 -16 -38.001s-23.334 -15.667 -38.001 -15h-178c-15.333 0 -28 5 -38 15s-15.333 22.667 -16 38v107c0 15.333 5.33301 28 16 38s23.334 15.333 38.001 16h178
c14.667 0 27.334 -5.33301 38.001 -16s16 -23.334 16 -38.001zM999.998 154.001v-108.001c0 -14.667 -5.33301 -27 -16 -37s-23.334 -15.333 -38.001 -16h-535c-15.333 0 -28 5.33301 -38 16s-15.333 23 -16 37v108c0 14.667 5.33301 27.334 16 38.001
s23.334 15.667 38.001 15h535c15.333 0 28 -5 38 -15s15.333 -22.667 16 -38zM285.998 725l-0.000976562 -107c0 -14.667 -5.33301 -27.334 -16 -38.001s-23.334 -16 -38.001 -16h-178c-15.333 0 -28 5.33301 -38 16s-15.333 23.334 -16 38.001v107
c0 14.667 5.33301 27.334 16 38.001s23.334 16 38.001 16h178c14.667 0 27.334 -5.33301 38.001 -16s16 -23.334 16 -38.001zM999.997 439v-106.998c0 -14.667 -5.33301 -27.334 -16 -38.001s-23.334 -15.667 -38.001 -15h-535c-15.333 0 -28 5 -38 15
s-15.333 22.667 -16 38v107c0 15.333 5.33301 28 16 38s23.334 15.333 38.001 16h535c15.333 0 28 -5.33301 38 -16s15.333 -23.334 16 -38.001zM999.997 725.002v-107c0 -14.667 -5.33301 -27.334 -16 -38.001s-23.334 -16 -38.001 -16h-535c-15.333 0 -28 5.33301 -38 16
s-15.333 23.334 -16 38.001v107c0 14.667 5.33301 27.334 16 38.001s23.334 16 38.001 16h535c15.333 0 28 -5.33301 38 -16s15.333 -23.334 16 -38.001z" />
    <glyph glyph-name="12f4ece88e46abd864e40b35e05b11cd" unicode="&#xf03b;" 
d="M932 534c0 -14.667 -5.00195 -27.334 -15.002 -38.001l-480 -480c-10.667 -10 -23.334 -15 -38.001 -15s-27.334 5 -38.001 15l-278 278c-10 10.667 -15 23.334 -15 38.001s5 27.334 15 38.001l76 76c10.667 10.667 23.334 16 38.001 16s27.334 -5.33301 38.001 -16
l164 -165l366 367c10.667 10.667 23.334 16 38.001 16s27.334 -5.33301 38.001 -16l76 -76c10 -10.667 15 -23.334 15 -38.001z" />
    <glyph glyph-name="43ab845088317bd348dee1d975700c48" unicode="&#xf03c;" horiz-adv-x="857" 
d="M717 440c0 10.667 -3.66895 19.333 -11.002 26l-50 50c-7.33301 7.33301 -15.666 11 -24.999 11s-18 -3.66699 -26 -11l-227 -227l-126 126c-7.33301 7.33301 -15.666 11 -24.999 11s-18 -3.66699 -26 -11l-50 -50c-6.66699 -6.66699 -10 -15.167 -10 -25.5
s3.33301 -18.833 10 -25.5l202 -202c6.66699 -6.66699 15 -10 25 -10s18.333 3.33301 25 10l303 303c7.33301 6.66699 11 15 11 25zM856.998 349.999c0 -78 -19 -149.667 -57 -215s-90 -117.333 -156 -156s-137.667 -58 -215 -58s-149.333 19.333 -216 58
s-118.334 90.667 -155.001 156s-56 137 -58 215s17.333 149.667 58 215s92.334 117.333 155.001 156s134.667 58 216 58s153 -19.333 215 -58s114 -90.667 156 -156s61 -137 57 -215z" />
    <glyph glyph-name="ad33e708f4d2e25c5056c931da1528d6" unicode="&#xf03d;" horiz-adv-x="857" 
d="M653 396l-235.001 -234.998c-7.33301 -7.33301 -15.666 -11 -24.999 -11s-17.666 3.66699 -24.999 11l-164 164c-7.33301 7.33301 -11 15.666 -11 24.999s3.66699 17.666 11 24.999l57 57c6.66699 7.33301 15 11 25 11s18.333 -3.66699 25 -11l82 -82l153 153
c7.33301 7.33301 15.666 11 24.999 11s18 -3.66699 26 -11l56 -56c7.33301 -7.33301 11 -16 11 -26s-3.66699 -18.333 -11 -25zM731.999 350.002c0 55.333 -13.668 106.002 -41.001 152.002s-64 83 -110 111s-96.667 41.667 -152 41s-106.333 -14.334 -153 -41.001
s-83.334 -63.667 -110.001 -111s-40.334 -98 -41.001 -152s13 -104.667 41 -152s64.667 -84.333 110 -111s96.333 -40.334 153 -41.001s107.334 13 152.001 41s81.334 65 110.001 111s42.334 96.667 41.001 152zM856.998 350.004c0 -78 -19 -149.667 -57 -215
s-90 -117.333 -156 -156s-137.667 -58 -215 -58s-149.333 19.333 -216 58s-118.334 90.667 -155.001 156s-56 137 -58 215s17.333 149.667 58 215s92.334 117.333 155.001 156s134.667 58 216 58s153 -19.333 215 -58s114 -90.667 156 -156s61 -137 57 -215z" />
    <glyph glyph-name="1400d5103edd2fa6d2d61688fee79a5a" unicode="&#xf03e;" horiz-adv-x="857" 
d="M382 125l343 342.998c6.66699 6.66699 10 15 10 25s-3.33301 18.333 -10 25l-57 57c-7.33301 6.66699 -15.666 10 -24.999 10s-17.666 -3.33301 -24.999 -10l-261 -261l-118 118c-6.66699 7.33301 -15 11 -25 11s-18.333 -3.66699 -25 -11l-57 -57
c-6.66699 -7.33301 -10 -15.666 -10 -24.999s3.33301 -17.666 10 -24.999l200 -200c7.33301 -7.33301 15.666 -11 24.999 -11s17.666 3.66699 24.999 11zM857 617.998v-536c0 -44 -15.667 -81.667 -47 -113s-69.333 -47.333 -114 -48h-535c-44.667 0 -82.667 16 -114 48
s-47 69.667 -47 113v536c0 44 15.667 81.667 47 113s69.333 47.333 114 48h535c44.667 0 82.667 -16 114 -48s47 -69.667 47 -113z" />
    <glyph glyph-name="5211af474d3a9848f67f945e2ccaf143" unicode="&#xf03f;" horiz-adv-x="785" 
d="M724 112c0 -14.667 -5 -27.3369 -15 -38.0039l-76 -76c-10.667 -10 -23.334 -15 -38.001 -15s-27.334 5 -38.001 15l-164 165l-164 -165c-10.667 -10 -23.334 -15 -38.001 -15s-27.334 5 -38.001 15l-76 76c-10.667 10.667 -16 23.334 -16 38.001
s5.33301 27.334 16 38.001l164 164l-164 164c-10.667 10.667 -16 23.334 -16 38.001s5.33301 27.334 16 38.001l76 76c10.667 10.667 23.334 16 38.001 16s27.334 -5.33301 38.001 -16l164 -164l164 164c10.667 10.667 23.334 16 38.001 16s27.334 -5.33301 38.001 -16
l76 -76c10 -10 15 -22.667 15 -38s-5 -28 -15 -38l-164 -164l164 -164c10 -10 15 -22.667 15 -38z" />
    <glyph glyph-name="0f4cae16f34ae243a6144c18a003f2d8" unicode="&#xf040;" horiz-adv-x="857" 
d="M641 224c0 9.33301 -3.33301 17.667 -10 25l-101 101l101 101c6.66699 7.33301 10 15.833 10 25.5s-3.33301 18.167 -10 25.5l-51 50c-6.66699 7.33301 -15 11 -25 11s-18.333 -3.66699 -25 -11l-101 -101l-101 101c-7.33301 7.33301 -16 11 -26 11
s-18.333 -3.66699 -25 -11l-50 -50c-7.33301 -7.33301 -11 -15.833 -11 -25.5s3.66699 -18.167 11 -25.5l101 -101l-101 -101c-7.33301 -7.33301 -11 -15.833 -11 -25.5s3.66699 -18.167 11 -25.5l50 -50c6.66699 -7.33301 15 -11 25 -11s18.667 3.66699 26 11l101 101
l101 -101c6.66699 -7.33301 15 -11 25 -11s18.333 3.66699 25 11l51 50c6.66699 7.33301 10 16 10 26zM857 350.001c0 -78 -19 -149.667 -57 -215s-90 -117.333 -156 -156s-137.667 -58 -215 -58s-149.333 19.333 -216 58s-118.334 90.667 -155.001 156s-56 137 -58 215
s17.333 149.667 58 215s92.334 117.333 155.001 156s134.667 58 216 58s153 -19.333 215 -58s114 -90.667 156 -156s61 -137 57 -215z" />
    <glyph glyph-name="2e2dba0307a502a8507c1729084c7ab5" unicode="&#xf041;" horiz-adv-x="857" 
d="M612 248l-81.002 -82c-4 -3.33301 -8.33301 -5 -13 -5s-9 1.66699 -13 5l-76 77l-77 -77c-3.33301 -3.33301 -7.66602 -5 -12.999 -5s-9.66602 1.66699 -12.999 5l-81 82c-4 3.33301 -6 7.66602 -6 12.999s2 9.66602 6 12.999l76 76l-76 76c-4 4 -6 8.33301 -6 13
s2 9 6 13l81 82c4 3.33301 8.33301 5 13 5s9 -1.66699 13 -5l77 -77l76 77c4 3.33301 8.33301 5 13 5s9 -1.66699 13 -5l81 -82c4 -3.33301 6 -7.66602 6 -12.999s-2 -9.66602 -6 -12.999l-76 -76l76 -76c4 -4 6 -8.33301 6 -13s-2 -9 -6 -13zM731.998 350
c0 55.333 -13.668 106.002 -41.001 152.002s-64 83 -110 111s-96.667 41.667 -152 41s-106.333 -14.334 -153 -41.001s-83.334 -63.667 -110.001 -111s-40.334 -98 -41.001 -152s13 -104.667 41 -152s64.667 -84.333 110 -111s96.333 -40.334 153 -41.001
s107.334 13 152.001 41s81.334 65 110.001 111s42.334 96.667 41.001 152zM856.997 350.002c0 -78 -19 -149.667 -57 -215s-90 -117.333 -156 -156s-137.667 -58 -215 -58s-149.333 19.333 -216 58s-118.334 90.667 -155.001 156s-56 137 -58 215s17.333 149.667 58 215
s92.334 117.333 155.001 156s134.667 58 216 58s153 -19.333 215 -58s114 -90.667 156 -156s61 -137 57 -215z" />
    <glyph glyph-name="44e04715aecbca7f266a17d5a7863c68" unicode="&#xf042;" horiz-adv-x="785" 
d="M786 439l0.000976562 -106.998c0 -14.667 -5.33301 -27.334 -16 -38.001s-23.334 -15.667 -38.001 -15h-232v-233c0 -14.667 -5.33301 -27 -16 -37s-23.334 -15.333 -38.001 -16h-107c-14.667 0 -27.334 5.33301 -38.001 16s-15.667 23 -15 37v233h-232
c-15.333 0 -28 5 -38 15s-15.333 22.667 -16 38v107c0 15.333 5.33301 28 16 38s23.334 15.333 38.001 16h232v232c0 14.667 5 27.334 15 38.001s22.667 16 38 16h107c15.333 0 28 -5.33301 38 -16s15.333 -23.334 16 -38.001v-232h232c14.667 0 27.334 -5.33301 38.001 -16
s16 -23.334 16 -38.001z" />
    <glyph glyph-name="4ba33d2607902cf690dd45df09774cb0" unicode="&#xf043;" horiz-adv-x="857" 
d="M679 314l-0.00195312 72.002c0 9.33301 -3.66699 17.666 -11 24.999s-15.666 10.666 -24.999 9.99902h-143v143c0 10 -3.66699 18.333 -11 25s-15.666 10.334 -24.999 11.001h-71c-10 0 -18.333 -3.66699 -25 -11s-10.334 -15.666 -11.001 -24.999v-143h-143
c-9.33301 0 -17.666 -3.33301 -24.999 -10s-10.666 -15 -9.99902 -25v-72c0 -9.33301 3.33301 -17.666 10 -24.999s15 -11 25 -11h143v-142c0 -10 3.66699 -18.333 11 -25s15.666 -10.334 24.999 -11.001h71c10 0 18.333 3.66699 25 11s10.334 15.666 11.001 24.999v142h143
c9.33301 0 17.666 3.66699 24.999 11s11 15.666 11 24.999zM856.998 350.002c0 -78 -19 -149.667 -57 -215s-90 -117.333 -156 -156s-137.667 -58 -215 -58s-149.333 19.333 -216 58s-118.334 90.667 -155.001 156s-56 137 -58 215s17.333 149.667 58 215
s92.334 117.333 155.001 156s134.667 58 216 58s153 -19.333 215 -58s114 -90.667 156 -156s61 -137 57 -215z" />
    <glyph glyph-name="1a5cfa186647e8c929c2b17b9fc4dac1" unicode="&#xf044;" horiz-adv-x="857" 
d="M714 314v71.998c0 9.33301 -3.33301 17.666 -10 24.999s-15 10.666 -25 9.99902h-179v179c0 10 -3.66699 18.333 -11 25s-15.666 10.334 -24.999 11.001h-71c-10 0 -18.333 -3.66699 -25 -11s-10.334 -15.666 -11.001 -24.999v-179h-178c-10 0 -18.667 -3.33301 -26 -10
s-10.666 -15 -9.99902 -25v-72c0 -9.33301 3.33301 -17.666 10 -24.999s15.334 -10.666 26.001 -9.99902h178v-179c0 -9.33301 3.66699 -17.666 11 -24.999s15.666 -11 24.999 -11h71c10 0 18.333 3.66699 25 11s10.334 15.666 11.001 24.999v179h179
c9.33301 0 17.666 3.33301 24.999 10s10.666 15 9.99902 25zM857 617.998v-536c0 -44 -15.667 -81.667 -47 -113s-69.333 -47.333 -114 -48h-535c-44.667 0 -82.667 16 -114 48s-47 69.667 -47 113v536c0 44 15.667 81.667 47 113s69.333 47.333 114 48h535
c44.667 0 82.667 -16 114 -48s47 -69.667 47 -113z" />
    <glyph glyph-name="2d3be3e856fc1e4ac067590d2ded1b07" unicode="&#xf045;" horiz-adv-x="785" 
d="M643 404v-36.001c0 -5.33301 -1.66699 -9.66602 -5 -12.999s-7.66602 -5 -12.999 -5h-196v-196c0 -5.33301 -1.66699 -9.66602 -5 -12.999s-7.66602 -5 -12.999 -5h-36c-5.33301 0 -9.66602 1.66699 -12.999 5s-5 7.66602 -5 12.999v196h-196
c-5.33301 0 -9.66602 1.66699 -12.999 5s-5 7.66602 -5 12.999v36c0 4.66699 1.66699 8.66699 5 12s7.66602 5 12.999 5h196v197c0 5.33301 1.66699 9.66602 5 12.999s7.66602 5 12.999 5h36c5.33301 0 9.66602 -1.66699 12.999 -5s5 -7.66602 5 -12.999v-197h196
c5.33301 0 9.66602 -1.66699 12.999 -5s5 -7.66602 5 -12.999v1zM714 153.999v464.001c0 24.667 -8.66699 45.667 -26 63s-38.333 26 -63 26h-464c-24.667 0 -45.667 -8.66699 -63 -26s-26.333 -38.333 -27 -63v-464c0 -24.667 9 -46 27 -64s39 -26.667 63 -26h464
c24.667 0 45.667 8.66699 63 26s26 38.666 26 63.999zM786 618v-464c0 -44.667 -15.667 -82.667 -47 -114s-69.333 -47 -114 -47h-464c-44.667 0 -82.667 15.667 -114 47s-47 69.333 -47 114v464c0 44 15.667 81.667 47 113s69.333 47.333 114 48h464c44 0 82 -16 114 -48
s47.667 -69.667 47 -113z" />
    <glyph glyph-name="861ab06e455e2de3232ebef67d60d708" unicode="&#xf046;" horiz-adv-x="785" 
d="M786 439l-0.000976562 -106.998c0 -14.667 -5.33301 -27.334 -16 -38.001s-23.334 -15.667 -38.001 -15h-678c-15.333 0 -28 5 -38 15s-15.333 22.667 -16 38v107c0 15.333 5.33301 28 16 38s23.334 15.333 38.001 16h678c14.667 0 27.334 -5.33301 38.001 -16
s16 -23.334 16 -38.001z" />
    <glyph glyph-name="eeadb020bb75d089b25d8424aabe19e0" unicode="&#xf047;" horiz-adv-x="857" 
d="M679 314l-0.00195312 72c0 9.33301 -3.66699 17.666 -11 24.999s-15.666 10.666 -24.999 9.99902h-429c-9.33301 0 -17.666 -3.33301 -24.999 -10s-10.666 -15 -9.99902 -25v-72c0 -9.33301 3.33301 -17.666 10 -24.999s15 -10.666 25 -9.99902h429
c9.33301 0 17.666 3.33301 24.999 10s11 15 11 25zM856.998 350c0 -78 -19 -149.667 -57 -215s-90 -117.333 -156 -156s-137.667 -58 -215 -58s-149.333 19.333 -216 58s-118.334 90.667 -155.001 156s-56 137 -58 215s17.333 149.667 58 215s92.334 117.333 155.001 156
s134.667 58 216 58s153 -19.333 215 -58s114 -90.667 156 -156s61 -137 57 -215z" />
    <glyph glyph-name="f755a58fb985eeb70bd47d9b31892a34" unicode="&#xf048;" horiz-adv-x="857" 
d="M714 314v72c0 9.33301 -3.33301 17.666 -10 24.999s-15 10.666 -25 9.99902h-500c-10 0 -18.667 -3.33301 -26 -10s-10.666 -15 -9.99902 -25v-72c0 -9.33301 3.33301 -17.666 10 -24.999s15.334 -10.666 26.001 -9.99902h500c9.33301 0 17.666 3.33301 24.999 10
s10.666 15 9.99902 25zM857 618v-536c0 -44 -15.667 -81.667 -47 -113s-69.333 -47.333 -114 -48h-535c-44.667 0 -82.667 16 -114 48s-47 69.667 -47 113v536c0 44 15.667 81.667 47 113s69.333 47.333 114 48h535c44.667 0 82.667 -16 114 -48s47 -69.667 47 -113z" />
    <glyph glyph-name="18ef25350258541e8e54148ed79845c0" unicode="&#xf049;" horiz-adv-x="785" 
d="M643 404v-36c0 -5.33301 -1.66699 -9.66602 -5 -12.999s-7.66602 -5 -12.999 -5h-464c-5.33301 0 -9.66602 1.66699 -12.999 5s-5 7.66602 -5 12.999v36c0 4.66699 1.66699 8.66699 5 12s7.66602 5 12.999 5h464c5.33301 0 9.66602 -1.66699 12.999 -5s5 -7.33301 5 -12z
M714 154v464.001c0 24.667 -8.66699 45.667 -26 63s-38.333 26 -63 26h-464c-24.667 0 -45.667 -8.66699 -63 -26s-26.333 -38.333 -27 -63v-464c0 -24.667 9 -46 27 -64s39 -26.667 63 -26h464c24.667 0 45.667 8.66699 63 26s26 38.666 26 63.999zM786 618.001v-464
c0 -44.667 -15.667 -82.667 -47 -114s-69.333 -47 -114 -47h-464c-44.667 0 -82.667 15.667 -114 47s-47 69.333 -47 114v464c0 44 15.667 81.667 47 113s69.333 47.333 114 48h464c44 0 82 -16 114 -48s47.667 -69.667 47 -113z" />
    <glyph glyph-name="ce3cf091d6ebd004dd0b52d24074e6e3" unicode="&#xf04a;" horiz-adv-x="571" 
d="M393 149v-134c0 -6 -2.33301 -11.333 -7 -16s-9.66699 -6.66699 -15 -6h-134c-6 0 -11.333 2 -16 6s-7 9.33301 -7 16v134c0 6 2.33301 11.333 7 16s10 6.66699 16 6h134c5.33301 0 10.333 -2 15 -6s7 -9.33301 7 -16zM569 484c0 -20 -2.66406 -38.6689 -7.99707 -56.002
s-12 -31.666 -20 -42.999s-18.333 -22.333 -31 -33s-23.334 -19 -32.001 -25s-20 -12.333 -34 -19c-15.333 -8.66699 -28 -21 -38 -37s-15 -28.333 -15 -37c0 -6.66699 -2.33301 -12.667 -7 -18s-10 -8.33301 -16 -9h-134c-5.33301 0 -10 3.33301 -14 10s-6 13.667 -6 21v26
c0 30.667 12.333 59.667 37 87s51 47.333 79 60c22 10 37.667 20.667 47 32s14 25 14 41s-8.66699 30 -26 42s-37.666 18 -60.999 18s-43 -5.33301 -59 -16c-13.333 -9.33301 -33.333 -30.666 -60 -63.999c-4.66699 -6 -10.334 -9 -17.001 -9
c-4.66699 0 -9.33398 1.33301 -14.001 4l-91 70c-5.33301 4 -8.33301 8.66699 -9 14s0.333008 10.666 3 15.999c59.333 98.667 145.666 148 258.999 148c30 0 60 -5.66699 90 -17s57 -26.666 81 -45.999s43.667 -43.333 59 -72s23 -58 23 -88z" />
    <glyph glyph-name="17ebadd1e3f274ff0205601eef7b9cc4" unicode="&#xf04b;" horiz-adv-x="857" 
d="M500 82v107c0 5.33301 -1.66699 9.66602 -5 12.999s-7.66602 5 -12.999 5h-107c-5.33301 0 -9.66602 -1.66699 -12.999 -5s-5 -7.66602 -5 -12.999v-107c0 -5.33301 1.66699 -9.66602 5 -12.999s7.66602 -5 12.999 -5h107c5.33301 0 9.66602 1.66699 12.999 5
s5 7.66602 5 12.999zM643 457c0 32.667 -10.3291 63 -30.9961 91s-46.334 49.667 -77.001 65s-62.334 23 -95.001 23c-90.667 0 -159.667 -39.667 -207 -119c-6 -9.33301 -4.66699 -17.333 4 -24l74 -55c2.66699 -2.66699 6 -4 10 -4c6 0 10.667 2.33301 14 7
c20 25.333 36.167 42.5 48.5 51.5s27.833 13.5 46.5 13.5s35 -5 49 -15s21 -21 21 -33c0 -14 -3.66699 -25.333 -11 -34s-20 -17 -38 -25c-23.333 -10.667 -45 -26.667 -65 -48s-29.667 -44.666 -29 -69.999v-20c0 -5.33301 1.66699 -9.66602 5 -12.999
s7.66602 -5 12.999 -5h107c5.33301 0 9.66602 1.66699 12.999 5s5 8 5 14s4 14.667 12 26s18 20.666 30 27.999l28 16c6.66699 4 15 10.333 25 19s18.333 17.667 25 27s12 20.666 16 33.999s6.33301 28.333 7 45zM857.004 350c0 -78 -19 -149.667 -57 -215
s-90 -117.333 -156 -156s-137.667 -58 -215 -58s-149.333 19.333 -216 58s-118.334 90.667 -155.001 156s-56 137 -58 215s17.333 149.667 58 215s92.334 117.333 155.001 156s134.667 58 216 58s153 -19.333 215 -58s114 -90.667 156 -156s61 -137 57 -215z" />
    <glyph glyph-name="e82cedfa1d5f15b00c5a81c9bd731ea2" unicode="&#xf04c;" horiz-adv-x="857" 
d="M571 82l-0.000976562 88.999c0 5.33301 -1.66699 9.66602 -5 12.999s-7.33301 5 -12 5h-54v286c0 5.33301 -1.66699 9.66602 -5 12.999s-7.66602 5 -12.999 5h-178c-5.33301 0 -9.66602 -1.66699 -12.999 -5s-5 -7.66602 -5 -12.999v-89
c0 -5.33301 1.66699 -9.66602 5 -12.999s7.66602 -5 12.999 -5h53v-179h-53c-5.33301 0 -9.66602 -1.66699 -12.999 -5s-5 -7.66602 -5 -12.999v-89c0 -5.33301 1.66699 -9.66602 5 -12.999s7.66602 -5 12.999 -5h250c4.66699 0 8.66699 1.66699 12 5s5 7.66602 5 12.999z
M499.999 581.999v89c0 5.33301 -1.66699 9.66602 -5 12.999s-7.66602 5 -12.999 5h-107c-5.33301 0 -9.66602 -1.66699 -12.999 -5s-5 -7.66602 -5 -12.999v-89c0 -5.33301 1.66699 -9.66602 5 -12.999s7.66602 -5 12.999 -5h107c5.33301 0 9.66602 1.66699 12.999 5
s5 7.66602 5 12.999zM856.999 349.999c0 -78 -19 -149.667 -57 -215s-90 -117.333 -156 -156s-137.667 -58 -215 -58s-149.333 19.333 -216 58s-118.334 90.667 -155.001 156s-56 137 -58 215s17.333 149.667 58 215s92.334 117.333 155.001 156s134.667 58 216 58
s153 -19.333 215 -58s114 -90.667 156 -156s61 -137 57 -215z" />
    <glyph glyph-name="3d4ea8a78dc34efe891f3a0f3d961274" unicode="&#xf04d;" horiz-adv-x="357" 
d="M357 100l0.00488281 -71.001c0 -10 -3.33301 -18.333 -10 -25s-15.334 -10.334 -26.001 -11.001h-285c-10 0 -18.333 3.66699 -25 11s-10.334 15.666 -11.001 24.999v71c0 10 3.66699 18.333 11 25s15.666 10.334 24.999 11.001h35v214h-35c-10 0 -18.333 3.66699 -25 11
s-10.334 15.666 -11.001 24.999v71c0 10 3.66699 18.333 11 25s15.666 10.334 24.999 11.001h214c10 0 18.333 -3.66699 25 -11s10.334 -15.666 11.001 -24.999v-321h35c10 0 18.667 -3.66699 26 -11s10.666 -15.666 9.99902 -24.999zM286.005 742.999l-0.00195312 -106.998
c0 -10 -3.66699 -18.333 -11 -25s-15.666 -10.334 -24.999 -11.001h-143c-9.33301 0 -17.666 3.66699 -24.999 11s-11 15.666 -11 24.999v107c0 9.33301 3.66699 17.666 11 24.999s15.666 11 24.999 11h143c10 0 18.333 -3.66699 25 -11s10.334 -15.666 11.001 -24.999z" />
    <glyph glyph-name="d7271d490b71df4311e32cdacae8b331" unicode="&#xf04e;" horiz-adv-x="928" 
d="M786 296v-267.002c0 -10 -3.66699 -18.667 -11 -26s-15.666 -10.666 -24.999 -9.99902h-214v214h-143v-214h-214c-10 0 -18.333 3.33301 -25 10s-10.334 15.334 -11.001 26.001v271l321 264l321 -264c0.666992 -0.666992 1 -2 1 -4zM910 334.998l-33.999 -40.998
c-3.33301 -3.33301 -7.33301 -5.33301 -12 -6h-2c-4.66699 0 -8.66699 1 -12 3l-386 322l-386 -322c-4.66699 -2.66699 -9 -4 -13 -4c-4.66699 1.33301 -8.66699 3.66602 -12 6.99902l-35 41c-2.66699 3.33301 -3.66699 7.66602 -3 12.999s2.66699 9.33301 6 12l401 334
c12 10 26 15 42 15s30.333 -5 43 -15l136 -114v109c0 5.33301 1.66699 9.66602 5 12.999s7.66602 5 12.999 5h107c5.33301 0 9.66602 -1.66699 12.999 -5s5 -7.66602 5 -12.999v-227l122 -102c3.33301 -3.33301 5.33301 -7.33301 6 -12s-0.666016 -9 -3.99902 -13z" />
    </font>
</defs>
</svg>
