<?xml version="1.0" standalone="no"?>
<!DOCTYPE svg PUBLIC "-//W3C//DTD SVG 1.1//EN" "http://www.w3.org/Graphics/SVG/1.1/DTD/svg11.dtd" >
<svg xmlns="http://www.w3.org/2000/svg" xmlns:xlink="http://www.w3.org/1999/xlink" version="1.1">
<metadata></metadata>
<defs>
<font id="glasgow-lightregular" horiz-adv-x="501" >
<font-face units-per-em="1000" ascent="800" descent="-200" />
<missing-glyph horiz-adv-x="290" />
<glyph unicode=" "  horiz-adv-x="290" />
<glyph unicode="&#x09;" horiz-adv-x="290" />
<glyph unicode="&#xa0;" horiz-adv-x="290" />
<glyph unicode="!" horiz-adv-x="210" d="M150 721l-26 -576h-44l-25 576h95zM105 75q23 0 40 -12.5t17 -30.5t-17.5 -31t-39.5 -13q-23 0 -40 12.5t-17 31.5q0 17 17.5 30t39.5 13z" />
<glyph unicode="&#x22;" horiz-adv-x="305" d="M69 708h88l-99 -213l-39 10zM197 708h87l-98 -213l-39 10z" />
<glyph unicode="#" horiz-adv-x="632" d="M62 274h115l36 172h-115l9 42h115l45 214h42l-45 -214h111l45 214h42l-45 -214h115l-9 -42h-115l-37 -172h116l-9 -42h-115l-45 -214h-42l45 214h-111l-45 -214h-42l45 214h-115zM329 274l37 172h-111l-36 -172h110z" />
<glyph unicode="$" horiz-adv-x="469" d="M212 804h33v-78q8 3 24 5q25 0 54 -7q21 -4 32 -7t34 -12l-23 -63q-27 13 -47.5 17.5t-29.5 5.5t-31 1h-13v-263l35 -15l39 -20l33 -19l47 -37q20 -15 30 -44t10 -74q0 -84 -51.5 -137.5t-145.5 -65.5v-83h-36v81h-16q-9 0 -21 2l-32 7q-47 9 -106 36l25 63 q57 -29 98 -38l58 -6v278q-96 39 -139 88t-43 119q0 75 51 129t131 61v76zM243 317v-259q50 12 70 29t33 46q2 5 7.5 22.5t5.5 30.5q0 80 -116 131zM212 662q-46 -15 -73.5 -47.5t-27.5 -69.5q0 -66 63 -105l21 -10l17 -7v239z" />
<glyph unicode="%" horiz-adv-x="746" d="M202 733q74 0 118.5 -49t44.5 -134t-43 -133t-119 -48q-74 0 -118.5 49t-44.5 132q0 84 44 133.5t118 49.5zM644 721h55l-596 -721h-57zM545 351q72 0 116.5 -49t44.5 -133q0 -82 -44 -132t-117 -50t-117.5 49t-44.5 133q0 82 44 132t118 50zM109 551q0 -61 25 -98 q26 -35 69 -35q41 0 67 36.5t26 96.5q0 61 -24.5 96.5t-68.5 35.5q-41 0 -67.5 -36.5t-26.5 -95.5zM453 169q0 -58 24.5 -94.5t67.5 -36.5q40 0 66 36q25 38 25 95q0 61 -24.5 96.5t-66.5 35.5q-41 0 -67 -36q-25 -38 -25 -96z" />
<glyph unicode="&#x26;" horiz-adv-x="624" d="M106 562q0 76 44 124t114 48q61 0 99.5 -41t38.5 -105q0 -74 -41.5 -120t-97.5 -83l55 -72l42 -47l41 -42l64 -61l24 33l13 19l12 21l49 -35l-26 -41l-28 -36l47 -35l55 -37l-42 -52l-33 20l-24 17l-24 17l-25 21l-26 -23q-41 -33 -86 -50t-95 -17q-94 0 -155.5 57.5 t-61.5 144.5q0 38 12 73t37 63q13 18 31 34l46 37q-33 50 -46 89t-13 79zM227 432q53 33 78.5 70t25.5 84q0 38 -20 62t-50 24q-35 0 -58.5 -30.5t-23.5 -76.5q0 -37 10 -66t38 -67zM203 345q-91 -70 -91 -153q0 -64 42.5 -105t110.5 -41q80 0 151 69l-38 34q-13 12 -27 26 l-48 50l-49 55z" />
<glyph unicode="'" horiz-adv-x="178" d="M69 708h88l-99 -213l-39 10z" />
<glyph unicode="(" horiz-adv-x="229" d="M216 785l-24 -52l-26 -69q-16 -45 -30.5 -131.5t-14.5 -173.5q0 -63 3 -107.5t11 -79.5l22 -91l20 -59q11 -31 39 -89l-24 -16l-33 51l-66 120q-53 100 -53 271q0 120 27 194l37 95l28 54q5 11 12.5 25t15.5 26l32 48z" />
<glyph unicode=")" horiz-adv-x="230" d="M55 28q54 150 54 331v16v14v12q0 20 -1 39t-4 38q-4 49 -18 107q-6 27 -13 51.5t-16 48.5q-15 45 -43 101l24 15l34 -50l40 -74q30 -57 54 -144t24 -174q0 -123 -32 -209q-16 -43 -29.5 -75t-23.5 -50l-34 -59l-33 -49l-24 15l22 50z" />
<glyph unicode="*" horiz-adv-x="368" d="M150 569l-113 49l33 56l96 -77l-17 124h65l-17 -125l100 78l34 -58l-118 -47l113 -47l-33 -55l-99 75l22 -123h-65l15 124l-97 -76l-33 56z" />
<glyph unicode="+" d="M64 402h154v157h62v-157h157v-61h-157v-152h-63v152h-153v61z" />
<glyph unicode="," horiz-adv-x="176" d="M55 81h88l-100 -213l-38 11z" />
<glyph unicode="-" horiz-adv-x="308" d="M32 284h244v-66h-244v66z" />
<glyph unicode="." horiz-adv-x="179" d="M90 75q23 0 39.5 -12.5t16.5 -31.5q0 -18 -15.5 -30t-39.5 -12t-41.5 12t-17.5 31q0 17 17.5 30t40.5 13z" />
<glyph unicode="/" horiz-adv-x="317" d="M270 730h40l-264 -741h-38z" />
<glyph unicode="0" d="M250 731q209 0 209 -371t-209 -371t-209 368q0 374 209 374zM124 360q0 -165 30 -241t96 -76t96 75t30 242q0 164 -30 240t-96 76t-96 -74.5t-30 -241.5z" />
<glyph unicode="1" d="M255 721h48v-652h112v-69h-306v69h114v565l-112 -50l-13 42z" />
<glyph unicode="2" d="M57 50l27 32l39 49q94 118 143 191q44 68 69.5 127t25.5 100q0 51 -34 83.5t-90 32.5q-59 0 -145 -37l-17 62q102 42 180 42q86 0 137 -47t51 -128q0 -55 -28 -117t-97 -160l-59 -80l-63 -84l-45 -54l284 -9v-53h-378v50z" />
<glyph unicode="3" d="M338 225q0 129 -180 129l-34 -2v53q92 0 151 45.5t59 112.5q0 50 -34 79.5t-95 29.5q-51 0 -119 -24l-15 56q93 29 152 29q82 0 134.5 -42.5t52.5 -108.5q0 -63 -45.5 -114.5t-128.5 -81.5q84 0 134.5 -43t50.5 -117q0 -104 -92.5 -170.5t-246.5 -66.5l-16 57 q124 0 198 48.5t74 130.5z" />
<glyph unicode="4" d="M46 237l218 484h88l-233 -475h196l27 315h49v-315h62v-58h-63v-188h-80v188h-264v49z" />
<glyph unicode="5" d="M352 241q0 57 -49.5 88t-137.5 31l-69 -3l25 364h283v-52l-213 -12l-17 -246l37 2q102 0 163 -46t61 -125q0 -104 -103 -178.5t-257 -74.5l-18 54q129 0 212 57.5t83 140.5z" />
<glyph unicode="6" d="M406 682q-127 -45 -191 -116q-60 -68 -83 -190q37 30 72 43t71 13q81 0 133.5 -62.5t52.5 -159.5q0 -98 -54.5 -159.5t-142.5 -61.5q-99 0 -158.5 81.5t-59.5 217.5q0 190 75.5 273.5t132 116t134.5 54.5zM128 316l-2 -36q0 -103 39.5 -169t104.5 -66q52 0 84.5 42.5 t32.5 113.5q0 76 -37 124t-95 48q-68 0 -127 -57z" />
<glyph unicode="7" d="M364 658l-300 10v53h381v-45l-297 -676h-93z" />
<glyph unicode="8" d="M64 557q0 75 54.5 123.5t137.5 48.5q78 0 130.5 -46t52.5 -118q0 -112 -136 -176q91 -52 127 -98t36 -104q0 -82 -62 -139.5t-155 -57.5q-91 0 -152.5 54.5t-61.5 136.5q0 127 151 194q-66 47 -95 88q-27 41 -27 94zM265 412q111 51 111 147q0 49 -34.5 83t-84.5 34 q-49 0 -82 -32t-33 -81q0 -41 27 -75t96 -76zM224 351q-120 -63 -120 -165q0 -60 41 -98t105 -38q58 0 97 37.5t39 91.5q0 45 -34 82t-128 90z" />
<glyph unicode="9" d="M93 37q132 49 192.5 116.5t83.5 190.5q-70 -58 -141 -58q-82 0 -135 62t-53 161q0 98 54.5 159.5t142.5 61.5q99 0 158 -82.5t59 -222.5q0 -91 -27 -170.5t-84 -141t-116 -86.5l-73 -28l-40 -12zM372 403l1 27q0 110 -39.5 177.5t-104.5 67.5q-52 0 -84.5 -42.5 t-32.5 -110.5q0 -76 38 -126t96 -50q64 0 126 57z" />
<glyph unicode=":" horiz-adv-x="209" d="M105 75q23 0 39.5 -12.5t16.5 -31.5q0 -18 -15.5 -30t-40.5 -12q-23 0 -40 12.5t-17 30.5q0 17 17.5 30t39.5 13zM104 411q24 0 40.5 -12.5t16.5 -32.5q0 -17 -16 -29.5t-40 -12.5q-23 0 -41 12q-16 13 -16 30t16 32q4 3 14.5 8t25.5 5z" />
<glyph unicode=";" horiz-adv-x="218" d="M68 81h88l-99 -213l-39 11zM114 411q23 0 40 -12.5t17 -32.5q0 -16 -15.5 -28.5t-41.5 -12.5q-23 0 -40.5 12t-17.5 29q0 18 17.5 31.5t40.5 13.5z" />
<glyph unicode="&#x3c;" horiz-adv-x="241" d="M158 448l43 -19l-90 -181l89 -180l-44 -16l-116 196z" />
<glyph unicode="=" d="M38 454h425v-59h-425v59zM38 350h425v-59h-425v59z" />
<glyph unicode="&#x3e;" horiz-adv-x="239" d="M125 248l-83 183l41 18l116 -201l-118 -195l-41 15z" />
<glyph unicode="?" horiz-adv-x="345" d="M156 730q82 0 129.5 -39.5t47.5 -106.5q0 -41 -17 -72q-17 -35 -25 -45l-39 -51l-33 -41l-20 -27q-31 -38 -42.5 -69t-11.5 -76l1 -59h-62l-4 40l-1 42q0 53 13 77.5t67 98.5l30 42q33 44 48 74.5t15 55.5q0 41 -31 67.5t-83 26.5h-30q-14 -3 -26 -4.5t-20.5 -3.5 t-32.5 -10l-15 58q85 22 142 22zM121 75q23 0 40 -12.5t17 -31.5q0 -17 -17.5 -30t-39.5 -13q-23 0 -40 12.5t-17 31.5q0 17 17 30t40 13z" />
<glyph unicode="@" horiz-adv-x="834" d="M431 195q-36 -42 -83 -42q-24 0 -73 23t-49 166l4 36q9 65 35 111q24 48 63 75.5t76 27.5q56 0 84 -55l5 -11l9 62l48 -1l-39 -218l-14 -90l-2 -15v-12q0 -19 7.5 -44t40.5 -25l19 4q12 5 23 14l12.5 12.5t17.5 19.5q17 22 32 57q12 34 18 71l5 63q0 120 -70 194.5 t-181 74.5q-32 0 -93 -11q-67 -9 -141 -103.5t-74 -219.5q0 -49 20 -126.5t100 -142.5t178 -65q42 0 78 9.5t76 34.5l50 36q31 27 56 56l23 -26l-26 -29q-59 -61 -125 -90t-137 -29q-134 0 -231 90t-106.5 174.5t-9.5 107.5q0 64 18.5 121.5t60 114.5t104.5 93t108 42t67 6 q132 0 217.5 -88t85.5 -223q0 -29 -9.5 -94.5t-55 -121.5t-77.5 -62l-40 -4q-39 0 -64 26q-21 22 -21 62q-7 -21 -20 -36zM292 227q17 -36 58 -36q27 0 44 15.5t27 34.5l18 42l14 45l10 46l2 11l6 41l3 37q0 37 -21.5 61.5t-49.5 24.5q-36 0 -62 -32q-22 -29 -38 -72 l-17 -64l-6 -45l-1 -46l3 -35q3 -16 10 -28z" />
<glyph unicode="A" horiz-adv-x="490" d="M198 721h93l208 -721h-82l-73 267h-198l-74 -267h-83zM160 324h169l-71 262l-6 28l-6 26l-2 28q0 -24 -2.5 -39t-10.5 -43z" />
<glyph unicode="B" horiz-adv-x="519" d="M61 721h203q24 0 38 -2q7 0 13.5 -0.5t25.5 -4.5q54 -12 84.5 -57t30.5 -111q0 -156 -157 -169q97 0 141.5 -44t44.5 -137q0 -111 -56 -153.5t-152 -42.5h-216v721zM142 400h96q68 0 102 33t34 105q0 126 -111 126h-121v-264zM139 57h127q70 0 102 35t32 110 q0 128 -106 141l-59 3h-96v-289z" />
<glyph unicode="C" horiz-adv-x="463" d="M411 640q-13 6 -27.5 11.5t-33.5 11.5q-15 3 -28.5 5t-29.5 2q-164 0 -164 -322q0 -299 165 -299q60 0 135 41l14 -60q-83 -42 -158 -42q-119 0 -181.5 93.5t-62.5 272.5q0 185 63 280.5t181 95.5q67 0 141 -32z" />
<glyph unicode="D" horiz-adv-x="541" d="M61 721h177q88 0 175.5 -54.5t87.5 -305.5q0 -187 -65 -274t-206 -87h-169v721zM141 58h83q102 0 145.5 69.5t43.5 231.5q0 160 -42.5 231.5t-139.5 71.5h-90v-604z" />
<glyph unicode="E" horiz-adv-x="450" d="M61 721h355v-54l-275 -13v-253h248v-56h-248v-278l281 -14v-53h-361v721z" />
<glyph unicode="F" horiz-adv-x="415" d="M61 721h355v-53l-277 -14v-254h251v-56h-251v-344h-78v721z" />
<glyph unicode="G" horiz-adv-x="570" d="M444 615q-70 55 -143 55q-42 0 -78.5 -21.5t-65.5 -78.5q-14 -28 -21 -81.5t-7 -139.5q0 -85 6.5 -128t37 -106t139.5 -63q59 0 120 31v251h-165v58h242v-354q-66 -27 -111 -39q-20 -5 -44 -8t-48 -3q-266 0 -266 359q0 385 258 385q93 0 179 -65z" />
<glyph unicode="H" horiz-adv-x="571" d="M61 721h80v-315h289v315h80v-721h-80v350h-289v-350h-80v721z" />
<glyph unicode="I" horiz-adv-x="200" d="M61 721h78v-721h-78v721z" />
<glyph unicode="J" horiz-adv-x="202" d="M55 -28q2 7 4 19.5t2 29.5l1 59v641h80v-630v-16v-13q0 -42 -3 -62.5t-20 -56.5q-15 -36 -69 -81l-39 29q10 11 15.5 18.5t14.5 24t14 38.5z" />
<glyph unicode="K" horiz-adv-x="479" d="M61 721h78v-285l2 -20l-3 -20l9 17l11 17l218 291h91l-253 -336l291 -385h-100l-243 325q-15 22 -24 43v-13l1 -12l2 -25v-318h-80v721z" />
<glyph unicode="L" horiz-adv-x="387" d="M61 721h80v-654l255 -14v-53h-335v721z" />
<glyph unicode="M" horiz-adv-x="746" d="M110 721h95l152 -542l9 -40l5 -27l2 -29v20q0 3 0.5 7.5t7.5 28.5l9 40l151 542h96l78 -721h-79l-54 541q-3 17 -3 49v23v16q-4 -24 -8.5 -45.5t-10.5 -41.5l-151 -542h-72l-151 542l-20 87v-16v-32v-17v-13q-2 -7 -2 -10l-54 -541h-79z" />
<glyph unicode="N" horiz-adv-x="583" d="M61 721h88l282 -561l14 -33l11 -39l-2 21l-3 21l-3 36v555h74v-721h-91l-280 554l-28 75q4 -21 7 -44.5t3 -41.5v-543h-72v721z" />
<glyph unicode="O" horiz-adv-x="573" d="M286 731q119 0 183.5 -97t64.5 -274q0 -178 -63.5 -274.5t-184.5 -96.5q-116 0 -181 97t-65 274q0 179 63 275t183 96zM124 360q0 -150 42 -230.5t120 -80.5q76 0 120 81q21 41 32 97.5t11 132.5q0 148 -42 229t-121 81q-76 0 -119 -80.5t-43 -229.5z" />
<glyph unicode="P" horiz-adv-x="459" d="M61 721h160h18t21 -2q21 0 62 -9.5t79 -61.5t38 -130q0 -122 -52.5 -158t-94.5 -44.5t-93 -8.5h-58v-307h-80v721zM141 360h50q46 0 74.5 6.5t60.5 35.5q32 27 32 114q0 58 -21.5 93.5t-53.5 42.5q-16 3 -31 5t-33 2h-78v-299z" />
<glyph unicode="Q" horiz-adv-x="573" d="M299 -28q0 -41 51 -41l48 5l3 -50q-41 -11 -81 -11q-84 0 -84 53q0 23 16 62q-69 14 -140.5 78.5t-71.5 291.5q0 179 63 275t183 96q119 0 183.5 -97t64.5 -274q0 -347 -231 -371zM124 360q0 -150 42 -230.5t120 -80.5q76 0 120 81q21 41 32 97.5t11 132.5q0 148 -42 229 t-121 81q-76 0 -119 -80.5t-43 -229.5z" />
<glyph unicode="R" horiz-adv-x="485" d="M61 721h169q99 0 154.5 -47t55.5 -131q0 -83 -55 -135t-144 -52l-28 1l298 -357h-100l-270 346v-346h-80v721zM139 401h49q170 0 170 138q0 59 -35.5 91.5t-105.5 32.5h-78v-262z" />
<glyph unicode="S" horiz-adv-x="469" d="M366 642q-58 26 -109 26q-66 0 -107 -33.5t-41 -89.5q0 -46 32 -78q12 -15 34 -28l92 -46q71 -31 122 -72.5t51 -126.5q0 -90 -64 -147.5t-166 -57.5q-44 0 -84 10q-42 9 -95 35l25 63q88 -44 152 -44q65 0 107 36t42 94q0 52 -31.5 81.5t-102.5 62.5l-94 46 q-21 11 -60 50t-39 115q0 85 61.5 139t159.5 54q32 0 62 -5.5t40 -8t36 -12.5z" />
<glyph unicode="T" horiz-adv-x="424" d="M-8 721h439v-54l-180 -13v-654h-79v653l-180 15v53z" />
<glyph unicode="U" horiz-adv-x="578" d="M518 211q0 -50 -15 -98.5t-73.5 -86.5t-139.5 -38q-49 0 -94 16q-23 8 -45 21.5t-46 34.5q-44 39 -44 151v510h80v-509q0 -75 39 -117t110 -42t109.5 41.5t38.5 117.5v509h80v-510z" />
<glyph unicode="V" horiz-adv-x="470" d="M77 721l144 -571l6 -31l8 -48l7 47l8 32l144 571h85l-195 -721h-98l-195 721h86z" />
<glyph unicode="W" horiz-adv-x="779" d="M104 721l96 -550l6 -43l3 -44q0 21 1 28.5t4 14.5l10 43l123 551h85l124 -551l9 -47l6 -39v21t2 23l8 43l95 550h83l-138 -721h-92l-127 555l-12 79l-2 -13l-11 -66l-126 -555h-92l-138 721h83z" />
<glyph unicode="X" d="M191 390l-164 331h88l115 -241l9 -24l11 -35q6 30 19 59l116 241h89l-165 -331l186 -390h-89l-134 299l-22 62l-13 -39l-9 -23l-134 -299h-89z" />
<glyph unicode="Y" horiz-adv-x="463" d="M69 721l143 -302l9 -27l9 -33q8 40 19 60l142 302h94l-216 -418v-303h-80v303l-212 418h92z" />
<glyph unicode="Z" horiz-adv-x="453" d="M21 53l299 573q8 20 32 42q-27 -6 -45 -6l-266 6v53h389v-53l-297 -569l-20 -28l-15 -18q27 10 50 10h7l276 -7v-56h-410v53z" />
<glyph unicode="[" horiz-adv-x="218" d="M61 800h144v-61h-70v-758h70v-61h-144v880z" />
<glyph unicode="\" horiz-adv-x="309" d="M107 720l126 -720h-54l-126 720h54z" />
<glyph unicode="]" horiz-adv-x="218" d="M13 -19h70v758h-70v61h145v-880h-145v61z" />
<glyph unicode="^" horiz-adv-x="288" d="M144 688l137 -109l-23 -40l-114 67l-115 -67l-23 35z" />
<glyph unicode="_" horiz-adv-x="504" d="M53 0h360v-25h-360v25z" />
<glyph unicode="`" horiz-adv-x="248" d="M61 705l143 -130l-32 -33l-166 109z" />
<glyph unicode="a" horiz-adv-x="476" d="M342 351q0 25 -4 37q-9 58 -99 58q-33 0 -62 -5.5t-80 -24.5l-21 62q111 30 178 30q81 0 125 -37q20 -16 29 -40q7 -25 7 -69v-362h-69l-2 48q-38 -30 -75 -46q-36 -14 -74 -14q-73 0 -119 42t-46 114q0 76 53 122t140 46l53 -3l66 -12v54zM342 249l-51 7l-42 2 q-63 0 -100.5 -31t-37.5 -80q0 -41 30 -70q30 -27 78 -27q64 0 123 53v146z" />
<glyph unicode="b" horiz-adv-x="496" d="M61 719l74 12v-275q63 52 132 52q86 0 137 -68.5t51 -186.5q0 -120 -51 -192t-137 -72q-32 0 -65 12q-29 12 -73 42l-3 -43h-65v719zM134 102q62 -44 117 -44q56 0 90 51t34 141q0 190 -131 190q-51 0 -110 -45v-293z" />
<glyph unicode="c" horiz-adv-x="404" d="M360 400q-59 44 -107 44q-61 0 -97 -52.5t-36 -146.5q0 -88 36 -140t98 -52q54 0 108 48l23 -62q-73 -50 -143 -50q-94 0 -147.5 68t-53.5 186q0 120 54 192t147 72q70 0 141 -49z" />
<glyph unicode="d" horiz-adv-x="497" d="M363 719l74 10v-729h-71v45q-14 -10 -40 -26q-21 -13 -32 -18q-27 -12 -60 -12q-86 0 -139.5 69.5t-53.5 182.5q0 60 13 108t40 85q53 72 143 72q67 0 126 -50v263zM363 394q-61 46 -111 46q-61 0 -95 -50.5t-34 -145.5q0 -90 34 -139t96 -49q28 0 51.5 9.5t58.5 33.5 v295z" />
<glyph unicode="e" horiz-adv-x="479" d="M123 224q0 -82 45 -128t124 -46q27 0 54 6t66 21l15 -60q-80 -27 -150 -27q-111 0 -174 69q-30 34 -46 83.5t-16 112.5q0 117 55 184.5t154 67.5q93 0 144.5 -63.5t51.5 -181.5l-1 -38h-322zM120 279h251q0 170 -123 170q-59 0 -93.5 -44.5t-34.5 -125.5z" />
<glyph unicode="f" horiz-adv-x="230" d="M5 495h65v90q0 29 1.5 39t7.5 33t41 47q35 22 84 22h23l42 -4l19 -4l-18 -59l-27 7l-24 2q-40 0 -58 -21q-16 -21 -16 -70v-82h126v-51l-126 -8v-436h-75v437l-65 5v53z" />
<glyph unicode="g" horiz-adv-x="465" d="M101 -59q0 -46 31.5 -66.5t105.5 -20.5q135 0 135 80q0 44 -51 52l-32 3l-20 1l-57 1h-25h-17q-10 2 -14 2q-21 0 -71.5 6.5t-50.5 44.5q0 19 17 39q10 12 17.5 19.5t14.5 13.5l28 26l21 17q-97 44 -97 163q0 87 52.5 136.5t145.5 49.5q91 0 140 -49q24 52 72 52l18 -2 v-68l-18 2q-24 0 -46 -19q14 -25 20 -48t6 -55q0 -86 -50 -133t-142 -47q-11 0 -26 1t-33 4q-60 -54 -60 -75q0 -11 21.5 -14t42.5 -4t66 -1l50 -1q16 0 25 -1t45 -6.5t60.5 -33.5t24.5 -72q0 -68 -54 -107q-56 -37 -157 -37q-209 0 -209 135v12h71zM117 322q0 -58 30.5 -93 t83.5 -35q54 0 85 34t31 94q0 61 -30.5 96.5t-82.5 35.5t-84.5 -36.5t-32.5 -95.5z" />
<glyph unicode="h" d="M61 719l73 12v-276q69 55 146 55q74 0 117 -39t43 -123v-348h-74v333l-1 22q0 13 -9.5 53.5t-92.5 40.5q-68 0 -129 -52v-397h-73v719z" />
<glyph unicode="i" horiz-adv-x="196" d="M61 495l73 11v-506h-73v495zM95 720q26 0 37 -13.5t11 -48.5q0 -47 -42 -47q-25 0 -37 12q-10 13 -10 43q0 54 41 54z" />
<glyph unicode="j" horiz-adv-x="197" d="M51 -120q12 26 12 96v519l74 11v-528v-12q0 -40 -3 -62.5t-17 -49t-62 -57.5l-45 26l25 27q8 10 16 30zM97 720q24 0 35.5 -14.5t11.5 -47.5q0 -47 -42 -47q-47 0 -47 55q0 54 42 54z" />
<glyph unicode="k" horiz-adv-x="418" d="M61 719l73 12v-376l-1 -41q6 18 23 32l145 149h89l-192 -200l253 -295h-97l-195 232l-11 14l-16 30l2 -30v-27v-219h-73v719z" />
<glyph unicode="l" horiz-adv-x="195" d="M61 719l73 11v-730h-73v719z" />
<glyph unicode="m" horiz-adv-x="756" d="M61 495l73 11v-40q68 43 129 43q83 0 128 -64q35 29 75 46q20 8 38 12t40 4q69 0 100 -30t41 -58t10 -77v-342h-73v329q0 35 -5 55q-4 23 -30.5 43.5t-61.5 20.5q-54 0 -113 -52v-396h-73v325l-2 51q-3 30 -30.5 51t-65.5 21q-54 0 -107 -44v-404h-73v495z" />
<glyph unicode="n" d="M61 495l72 12v-49q77 51 150 51t106 -30t42 -57.5t9 -75.5v-346h-74v330v29l-7 35q-3 18 -30 36t-66 18q-57 0 -129 -51v-397h-73v495z" />
<glyph unicode="o" horiz-adv-x="503" d="M252 507q101 0 156 -67t55 -192t-54.5 -193t-156.5 -68t-156.5 67.5t-54.5 193.5q0 124 54.5 191.5t156.5 67.5zM121 248q0 -97 34 -149.5t97 -52.5t96.5 53t33.5 149t-34 148t-96 52q-63 0 -97 -52.5t-34 -147.5z" />
<glyph unicode="p" horiz-adv-x="496" d="M61 495l65 11l7 -55q61 55 130 55q87 0 139.5 -71.5t52.5 -191.5q0 -116 -50.5 -185.5t-138.5 -69.5q-35 0 -68 12q-29 12 -65 40v-230h-72v685zM134 101q32 -21 61 -35q27 -10 54 -10q60 0 93 48.5t33 139.5t-35 142.5t-96 51.5q-14 0 -25 -2t-27 -9q-27 -9 -58 -31 v-295z" />
<glyph unicode="q" horiz-adv-x="497" d="M368 495l69 11v-696h-75v230q-62 -53 -131 -53q-86 0 -138 68q-26 34 -39 78.5t-13 103.5q0 119 53 194t138 75q32 0 64 -12t72 -40v41zM363 395q-63 45 -113 45q-58 0 -93.5 -55t-35.5 -147q0 -88 33.5 -135t97.5 -47q53 0 111 46v293z" />
<glyph unicode="r" horiz-adv-x="252" d="M61 495l74 2v-40q31 26 58 37t64 11l-9 -77l-30 3q-27 0 -43.5 -5.5t-39.5 -24.5v-401h-74v495z" />
<glyph unicode="s" horiz-adv-x="401" d="M52 89q75 -36 134 -36q49 0 79 20t30 52q0 24 -24 45q-20 16 -86 51.5t-81 45.5q-9 6 -19.5 14.5t-25 23t-21.5 32.5t-7 44q0 57 50 94t127 37q29 0 40 -1.5t31.5 -6t41 -11t42.5 -15.5l-22 -60q-78 32 -133 32q-45 0 -73 -18t-28 -49q0 -36 40 -61l78 -42l79 -43 q39 -24 54.5 -48.5t15.5 -59.5q0 -63 -50.5 -102t-132.5 -39q-69 0 -164 37z" />
<glyph unicode="t" horiz-adv-x="248" d="M3 495h64v87l75 14v-101h103v-51l-103 -7v-317l1 -37q5 -34 47 -34q15 0 24.5 2t30.5 10v-58q-8 -3 -31 -8t-46 -5q-51 0 -80 27q-21 26 -21 81v341l-64 6v50z" />
<glyph unicode="u" horiz-adv-x="499" d="M218 -12q-157 0 -157 151v356l74 12v-353q0 -13 1 -25.5t5 -30t30.5 -33.5t65.5 -16q62 0 128 48v398h74v-495h-73l-1 37q-20 -13 -37.5 -21.5t-37.5 -15.5q-35 -12 -72 -12z" />
<glyph unicode="v" horiz-adv-x="409" d="M68 507l124 -395q7 -18 13 -57l13 56l121 384h78l-164 -495h-96l-166 495z" />
<glyph unicode="w" horiz-adv-x="704" d="M89 506l98 -385l7 -32l2 -26q0 20 2 30l7 30l104 372h87l102 -371l7 -28q3 -12 3 -31q0 19 2 28l8 32l99 370h76l-139 -495h-88l-103 364l-12 72l-5 -38q-3 -23 -7 -33l-102 -365h-89l-137 495z" />
<glyph unicode="x" horiz-adv-x="430" d="M159 263l-141 232l83 11l100 -177l14 -37l6 19l10 18l94 166h85l-138 -230l154 -265h-84l-107 190q-13 27 -20 50l-7 -26l-12 -25l-105 -189h-87z" />
<glyph unicode="y" horiz-adv-x="413" d="M69 506l123 -399l13 -55l11 55l125 388h81l-191 -570q-24 -71 -53.5 -99.5t-79.5 -28.5h-17h-13q-7 2 -10 2l-47 12l17 57q12 -5 28.5 -9t28.5 -4q30 0 48 19q17 14 35 68l20 58h-37l-160 495z" />
<glyph unicode="z" horiz-adv-x="418" d="M19 40l262 372l12 15q7 8 23 17q-21 -6 -41 -6h-9l-235 7v50h366v-40l-256 -367l-16 -20l-22 -18q14 4 23 6t20 2h6l246 -7v-51h-379v40z" />
<glyph unicode="{" horiz-adv-x="323" d="M114 431v337q0 62 76 62h56v-31h-11q-36 0 -48 -12q-5 -6 -8 -18t-3 -32v-301q0 -29 -18 -51t-48 -25q26 -3 47 -24q19 -22 19 -52v-301q0 -39 10.5 -50.5t48.5 -11.5h11v-31h-56q-38 0 -57 16t-19 46v337q0 48 -22 58t-39 13q27 0 44 20t17 51z" />
<glyph unicode="|" horiz-adv-x="173" d="M53 720h54v-720h-54v720z" />
<glyph unicode="}" horiz-adv-x="323" d="M53 -79h11q36 0 48 12q5 6 8 18t3 32v301q0 29 18 51t47 25q-27 3 -47 24q-18 21 -18 52v301q0 38 -11 50t-48 12h-11v31h56q75 0 75 -62v-337q0 -31 17 -51t45 -20q-16 -2 -39 -13q-23 -9 -23 -58v-337q0 -62 -75 -62h-56v31z" />
<glyph unicode="~" horiz-adv-x="365" d="M6 821q24 11 52.5 18t57.5 7l35 -1q8 0 55 -12q20 -4 41.5 -7.5t37.5 -3.5q46 0 74 17v-60q-47 -14 -78 -14q-24 0 -36 4l-42 10q-22 6 -47 9l-44 3q-44 0 -80 -13l-26 -13v56z" />
<glyph unicode="&#xa1;" horiz-adv-x="211" d="M86 564h44l26 -576h-97zM106 721q24 0 40.5 -12.5t16.5 -31.5t-17 -30.5t-40 -11.5q-24 0 -42 12q-16 13 -16 30q0 18 17.5 31t40.5 13z" />
<glyph unicode="&#xa2;" horiz-adv-x="404" d="M232 568h31l1 -64q17 0 31 -5q38 -9 88 -41l-23 -58l-29 19l-37 18q-15 6 -36 6v-388q13 0 21 1t27 7t56 38l23 -62l-27 -16q-15 -8 -23 -12t-26 -11l-53 -11v-77h-29v77q-90 9 -138 75.5t-48 178.5q0 119 51 190t140 71v64zM228 437l-12 -7l-35 -19q-19 -15 -33 -39 q-11 -25 -18 -59q-3 -18 -5 -34t-2 -36q0 -47 12 -88t27 -58q13 -12 30 -23q9 -4 14.5 -6t21.5 -7v376z" />
<glyph unicode="&#xa3;" horiz-adv-x="498" d="M41 58q109 0 109 137q0 54 -12 153h-66v40h66l-1 12q-8 58 -8 103q0 229 203 229q45 0 111 -18l-15 -51q-45 15 -89 15q-133 0 -133 -187l3 -51l3 -44l1 -9h174v-39h-170q9 -78 9 -127q0 -64 -18.5 -96t-73.5 -63l20 1q15 0 21 2q39 0 74 -6l50 -8l49 -5l24 1l26 4 q14 3 18 3.5t13.5 4.5t27.5 16v-69q-59 -21 -113 -21q-42 0 -105 12l-61 12q-33 6 -64 6l-38 -3q-13 -3 -35 -12v58z" />
<glyph unicode="&#xa4;" horiz-adv-x="494" d="M118 279q-29 37 -29 81q0 45 28 82l-64 61l7 8l6 8l7 7l8 7l65 -63q37 28 81 28q48 0 84 -27l63 63l9 -7q12 -9 21 -24l-65 -61q11 -16 19 -39q3 -11 5 -21t2 -23q0 -45 -27 -81l65 -65l-7 -7l-6 -6l-9 -8l-8 -7l-63 65q-33 -27 -82 -27q-44 0 -82 27l-65 -64 q-15 12 -28 28zM227 266q39 0 66.5 27.5t27.5 66.5t-28 66.5t-66 27.5q-39 0 -66 -27t-27 -67q0 -38 27 -66t66 -28z" />
<glyph unicode="&#xa5;" horiz-adv-x="588" d="M132 721l143 -302l9 -27l9 -33l7 33l10 27l144 302h94l-170 -326h153v-54h-182l-17 -38v-32h199v-54h-199v-217h-80v217h-186v57h186v29l-18 36h-168l1 59h136l-163 323h92z" />
<glyph unicode="&#xa7;" horiz-adv-x="576" d="M101 590q0 63 57 104t143 41q171 0 198 -149l-74 -1q-5 45 -36.5 69.5t-86.5 24.5q-50 0 -86 -24q-33 -24 -33 -60q0 -27 15 -45l23 -22l29 -13l190 -86q45 -20 70.5 -55.5t25.5 -79.5q0 -41 -23 -75.5t-76 -64.5q45 -39 45 -100q0 -63 -54.5 -105.5t-142.5 -42.5 q-80 0 -115 23.5t-47 35.5t-23 29l-13 28l-8 44l75 1q5 -49 39 -77.5t90 -28.5q54 0 86 24.5t32 66.5q0 31 -13.5 49.5t-48.5 33.5l-202 93q-42 18 -70.5 43.5t-28.5 78.5q0 93 110 148q-47 36 -47 92zM198 462q-40 -21 -60.5 -46t-20.5 -55q0 -48 58 -76l207 -93 q77 35 77 99q0 54 -58 81z" />
<glyph unicode="&#xa8;" horiz-adv-x="210" d="M24 624q21 0 36 -12t15 -29q0 -18 -15 -30t-36 -12q-20 0 -36.5 12.5t-16.5 29.5q0 15 15 29q15 12 38 12zM185 624q20 0 36.5 -12.5t16.5 -28.5q0 -18 -15 -30t-38 -12q-21 0 -36 12t-15 30q0 15 15 29q15 12 36 12z" />
<glyph unicode="&#xa9;" horiz-adv-x="932" d="M431 734q155 0 264 -109t109 -264t-109 -264t-264 -109t-264 109t-109 264t109 264t264 109zM199 124q47 -47 107 -71.5t125 -24.5q62 0 123 24t107.5 71.5t72 111t25.5 127.5q0 66 -24.5 126.5t-71.5 109t-108.5 72.5t-123.5 24q-63 0 -123 -24t-108 -72.5t-73 -110.5 t-25 -126q0 -66 24.5 -126.5t72.5 -110.5zM584 512q-42 38 -79 45l-58 7q-75 0 -130.5 -47t-64.5 -97l-8 -66q0 -87 58.5 -145t142.5 -58q59 0 111 32l27 20l26 -36q-35 -29 -75 -45t-86 -16q-108 0 -181.5 72t-73.5 174q0 46 22.5 108t85.5 105.5t143 43.5h28l49 -10 q36 -6 89 -51z" />
<glyph unicode="&#xaa;" horiz-adv-x="480" d="M64 347h327v-49h-327v49zM338 720h53v-323h-54v78l-3 -8q-15 -36 -48 -57t-76 -21q-29 0 -83 22t-64 77l-10 72q0 12 0.5 18.5t7 41t50.5 73t100 38.5q13 0 21 -1t31 -7q37 -7 67 -61l5 -9l3 -6v73zM110 536q10 -50 45 -76q34 -23 70 -23q32 0 66 24t41 56l7 45 q0 25 -11 50l-10 19q-15 26 -40.5 39.5t-54.5 13.5q-46 0 -75 -30.5t-38 -71.5l-2 -22z" />
<glyph unicode="&#xab;" horiz-adv-x="378" d="M158 452l43 -20l-90 -186l89 -182l-44 -18l-116 200zM296 452l42 -20l-88 -186l87 -182l-44 -18l-116 200z" />
<glyph unicode="&#xac;" horiz-adv-x="608" d="M53 414h456v-198h-48v144h-408v54z" />
<glyph unicode="&#xae;" horiz-adv-x="932" d="M431 734q155 0 264 -109t109 -264t-109 -264t-264 -109t-264 109t-109 264t109 264t264 109zM199 124q47 -47 107 -71.5t125 -24.5q62 0 123 24t107.5 71.5t72 111t25.5 127.5q0 66 -24.5 126.5t-71.5 109t-108.5 72.5t-123.5 24q-63 0 -123 -24t-108 -72.5t-73 -110.5 t-25 -126q0 -66 24.5 -126.5t72.5 -110.5zM320 607h102q71 0 105 -27.5t40 -59.5l5 -45q0 -51 -30.5 -84.5t-83.5 -39.5l-18 -1l155 -226h-60l-164 244v-244h-51v483zM412 382q109 0 109 90q0 45 -26 68q-24 24 -75 24h-49v-182h41z" />
<glyph unicode="&#xb1;" horiz-adv-x="594" d="M506 19h-462v68h462v-68zM309 331h197v-68h-197v-122h-68v122h-197v68h197v122h68v-122z" />
<glyph unicode="&#xb4;" horiz-adv-x="219" d="M183 704l55 -55l-162 -110l-34 33z" />
<glyph unicode="&#xb5;" horiz-adv-x="623" d="M166 153q0 -71 14 -95t50 -24q56 0 94.5 81.5t38.5 203.5v130h92v-328q0 -45 9 -66t29 -21t31.5 20.5t11.5 61.5v14h21l1 -9v-13q0 -53 -23.5 -85t-66.5 -32q-48 0 -75 43t-27 129q-23 -89 -61.5 -130.5t-96.5 -41.5q-43 0 -73 26q-27 27 -40 77l-1 -28q0 -66 31 -140.5 t33 -92.5q0 -20 -11 -31t-31 -11q-23 0 -33 17.5t-10 52.5l2 58l2 89l-1 101l-2 95v245h92v-296z" />
<glyph unicode="&#xb6;" horiz-adv-x="636" d="M535 720v-43h-297q-58 0 -99.5 -42.5t-41.5 -103.5q0 -58 42 -99.5t99 -41.5h72v247h44v-637h-44v347h-72q-75 0 -130 54t-55 132q0 76 54.5 131.5t130.5 55.5h297zM424 637h44v-637h-44v637z" />
<glyph unicode="&#xb8;" horiz-adv-x="129" d="M72 -29q24 0 40 -13.5t16 -34.5q0 -58 -104 -82v28q24 3 39 15.5t17 27.5q0 20 -24 20q-14 0 -39 -11l-2 34q34 16 57 16z" />
<glyph unicode="&#xba;" horiz-adv-x="481" d="M59 347h327v-49h-327v49zM56 595q12 63 58.5 102t106.5 39q36 0 92.5 -24.5t68.5 -79.5l10 -71q0 -7 -0.5 -13.5t-6.5 -40t-41 -69.5t-64 -42l-39 -7l-20 -1q-17 0 -51 6.5t-68.5 43t-45.5 90.5l-3 34zM124 494q15 -26 42 -43q26 -14 57 -14q50 0 78.5 32t32.5 58l4 35 q0 39 -17 66q-15 28 -41.5 43t-57.5 15q-47 0 -82 -36q-33 -36 -33 -88q0 -40 17 -68z" />
<glyph unicode="&#xbb;" horiz-adv-x="377" d="M125 246l-83 189l41 18l116 -207l-118 -198l-41 16zM263 246l-84 189l42 18l116 -207l-119 -198l-41 16z" />
<glyph unicode="&#xbf;" horiz-adv-x="345" d="M261 574l4 -50l1 -32q0 -48 -21 -89q-9 -20 -58 -86l-31 -43q-32 -44 -49 -76q-14 -30 -14 -53q0 -43 30.5 -68.5t82.5 -25.5l49 3q19 3 26 4.5t35 9.5l16 -58l-76 -16q-36 -6 -66 -6q-80 0 -129 39t-49 107q0 42 22 83q12 28 59 86l32 41l21 26q31 40 42.5 70t11.5 75 l-1 59h62zM224 730q24 0 41 -12.5t17 -31.5t-17 -30q-15 -12 -41 -12q-24 0 -42 12q-16 13 -16 30q0 18 17.5 31t40.5 13z" />
<glyph unicode="&#xc0;" horiz-adv-x="490" d="M198 721h93l208 -721h-82l-73 267h-198l-74 -267h-83zM160 324h169l-71 262l-6 28l-6 26l-2 28q0 -24 -2.5 -39t-10.5 -43zM182 955l143 -130l-32 -33l-166 109z" />
<glyph unicode="&#xc1;" horiz-adv-x="490" d="M198 721h93l208 -721h-82l-73 267h-198l-74 -267h-83zM160 324h169l-71 262l-6 28l-6 26l-2 28q0 -24 -2.5 -39t-10.5 -43zM318 954l55 -55l-162 -110l-34 33z" />
<glyph unicode="&#xc2;" horiz-adv-x="490" d="M198 721h93l208 -721h-82l-73 267h-198l-74 -267h-83zM160 324h169l-71 262l-6 28l-6 26l-2 28q0 -24 -2.5 -39t-10.5 -43zM245 938l137 -109l-23 -40l-114 67l-115 -67l-23 35z" />
<glyph unicode="&#xc3;" horiz-adv-x="490" d="M198 721h93l208 -721h-82l-73 267h-198l-74 -267h-83zM160 324h169l-71 262l-6 28l-6 26l-2 28q0 -24 -2.5 -39t-10.5 -43zM114 840q38 25 81 25q23 0 64 -12q18 -5 34.5 -8t29.5 -3q35 0 55 16v-54q-7 -3 -25 -8t-33 -5l-27 3l-32 10q-17 4 -35 7t-32 3q-36 0 -60 -12 l-20 -11v49z" />
<glyph unicode="&#xc4;" horiz-adv-x="490" d="M150 849q21 0 37.5 -13t16.5 -33q0 -17 -15 -32q-16 -13 -38 -13q-23 0 -39 12t-16 32q0 19 15.5 33t38.5 14zM339 849q24 0 39.5 -14t15.5 -33q0 -18 -16.5 -31t-39.5 -13q-21 0 -38 13q-15 14 -15 32q0 17 15.5 31.5t38.5 14.5zM198 721h93l208 -721h-82l-73 267h-198 l-74 -267h-83zM160 324h169l-71 262l-6 28l-6 26l-2 28q0 -24 -2.5 -39t-10.5 -43z" />
<glyph unicode="&#xc5;" horiz-adv-x="490" d="M243 894q38 0 64 -20q27 -18 27 -48q0 -27 -27.5 -47.5t-64.5 -20.5q-36 0 -61.5 19.5t-25.5 48.5q0 28 26 48t62 20zM198 721h93l208 -721h-82l-73 267h-198l-74 -267h-83zM244 800q19 0 30.5 6.5t11.5 19.5q0 9 -13 17.5t-29 8.5q-19 0 -31 -8q-12 -6 -12 -18 q0 -10 12 -19q14 -7 31 -7zM160 324h169l-71 262l-6 28l-6 26l-2 28q0 -24 -2.5 -39t-10.5 -43z" />
<glyph unicode="&#xc6;" horiz-adv-x="815" d="M381 721h394v-54l-274 -12v-253h248v-57h-248v-277l280 -14v-54h-362v267h-196l-139 -267h-95zM249 325h173v333z" />
<glyph unicode="&#xc7;" horiz-adv-x="463" d="M278 -38q21 0 36.5 -12.5t15.5 -33.5q0 -57 -99 -81v28q25 3 39 16q15 11 15 26q0 18 -22 18q-14 0 -38 -9l-1 33q27 15 54 15zM411 640q-13 6 -27.5 11.5t-33.5 11.5q-15 3 -28.5 5t-29.5 2q-164 0 -164 -322q0 -299 165 -299q60 0 135 41l14 -60q-83 -42 -158 -42 q-119 0 -181.5 93.5t-62.5 272.5q0 185 63 280.5t181 95.5q67 0 141 -32z" />
<glyph unicode="&#xc8;" horiz-adv-x="450" d="M61 721h355v-54l-275 -13v-253h248v-56h-248v-278l281 -14v-53h-361v721zM162 955l143 -130l-32 -33l-166 109z" />
<glyph unicode="&#xc9;" horiz-adv-x="450" d="M61 721h355v-54l-275 -13v-253h248v-56h-248v-278l281 -14v-53h-361v721zM298 954l55 -55l-162 -110l-34 33z" />
<glyph unicode="&#xca;" horiz-adv-x="450" d="M61 721h355v-54l-275 -13v-253h248v-56h-248v-278l281 -14v-53h-361v721zM225 938l137 -109l-23 -40l-114 67l-115 -67l-23 35z" />
<glyph unicode="&#xcb;" horiz-adv-x="450" d="M61 721h355v-54l-275 -13v-253h248v-56h-248v-278l281 -14v-53h-361v721zM144 874q21 0 36 -12t15 -29q0 -18 -15 -30t-36 -12q-20 0 -36.5 12.5t-16.5 29.5q0 15 15 29q15 12 38 12zM305 874q20 0 36.5 -12.5t16.5 -28.5q0 -18 -15 -30t-38 -12q-21 0 -36 12t-15 30 q0 15 15 29q15 12 36 12z" />
<glyph unicode="&#xcc;" horiz-adv-x="200" d="M61 721h78v-721h-78v721zM38 955l143 -130l-32 -33l-166 109z" />
<glyph unicode="&#xcd;" horiz-adv-x="200" d="M61 721h78v-721h-78v721zM175 954l55 -55l-162 -110l-34 33z" />
<glyph unicode="&#xce;" horiz-adv-x="200" d="M61 721h78v-721h-78v721zM101 938l137 -109l-23 -40l-114 67l-115 -67l-23 35z" />
<glyph unicode="&#xcf;" horiz-adv-x="200" d="M61 721h78v-721h-78v721zM20 874q21 0 36 -12t15 -29q0 -18 -15 -30t-36 -12q-20 0 -36.5 12.5t-16.5 29.5q0 15 15 29q15 12 38 12zM181 874q20 0 36.5 -12.5t16.5 -28.5q0 -18 -15 -30t-38 -12q-21 0 -36 12t-15 30q0 15 15 29q15 12 36 12z" />
<glyph unicode="&#xd1;" horiz-adv-x="583" d="M61 721h88l282 -561l14 -33l11 -39l-2 21l-3 21l-3 36v555h74v-721h-91l-280 554l-28 75q4 -21 7 -44.5t3 -41.5v-543h-72v721zM160 840q38 25 81 25q23 0 64 -12q18 -5 34.5 -8t29.5 -3q35 0 55 16v-54q-7 -3 -25 -8t-33 -5l-27 3l-32 10q-17 4 -35 7t-32 3 q-36 0 -60 -12l-20 -11v49z" />
<glyph unicode="&#xd2;" horiz-adv-x="573" d="M286 731q119 0 183.5 -97t64.5 -274q0 -178 -63.5 -274.5t-184.5 -96.5q-116 0 -181 97t-65 274q0 179 63 275t183 96zM124 360q0 -150 42 -230.5t120 -80.5q76 0 120 81q21 41 32 97.5t11 132.5q0 148 -42 229t-121 81q-76 0 -119 -80.5t-43 -229.5zM223 955l143 -130 l-32 -33l-166 109z" />
<glyph unicode="&#xd3;" horiz-adv-x="573" d="M286 731q119 0 183.5 -97t64.5 -274q0 -178 -63.5 -274.5t-184.5 -96.5q-116 0 -181 97t-65 274q0 179 63 275t183 96zM124 360q0 -150 42 -230.5t120 -80.5q76 0 120 81q21 41 32 97.5t11 132.5q0 148 -42 229t-121 81q-76 0 -119 -80.5t-43 -229.5zM360 954l55 -55 l-162 -110l-34 33z" />
<glyph unicode="&#xd4;" horiz-adv-x="573" d="M286 731q119 0 183.5 -97t64.5 -274q0 -178 -63.5 -274.5t-184.5 -96.5q-116 0 -181 97t-65 274q0 179 63 275t183 96zM124 360q0 -150 42 -230.5t120 -80.5q76 0 120 81q21 41 32 97.5t11 132.5q0 148 -42 229t-121 81q-76 0 -119 -80.5t-43 -229.5zM286 938l137 -109 l-23 -40l-114 67l-115 -67l-23 35z" />
<glyph unicode="&#xd5;" horiz-adv-x="573" d="M286 731q119 0 183.5 -97t64.5 -274q0 -178 -63.5 -274.5t-184.5 -96.5q-116 0 -181 97t-65 274q0 179 63 275t183 96zM124 360q0 -150 42 -230.5t120 -80.5q76 0 120 81q21 41 32 97.5t11 132.5q0 148 -42 229t-121 81q-76 0 -119 -80.5t-43 -229.5zM155 840 q38 25 81 25q23 0 64 -12q18 -5 34.5 -8t29.5 -3q35 0 55 16v-54q-7 -3 -25 -8t-33 -5l-27 3l-32 10q-17 4 -35 7t-32 3q-36 0 -60 -12l-20 -11v49z" />
<glyph unicode="&#xd6;" horiz-adv-x="573" d="M160 840q22 0 38 -13t16 -32q0 -17 -16 -32q-15 -12 -37 -12t-40 12q-16 13 -16 32q0 18 16.5 31.5t38.5 13.5zM414 840q21 0 37.5 -13t16.5 -32q0 -18 -16 -31t-39 -13q-21 0 -37.5 13t-16.5 31q0 17 16 32q16 13 39 13zM286 731q119 0 183.5 -97t64.5 -274 q0 -178 -63.5 -274.5t-184.5 -96.5q-116 0 -181 97t-65 274q0 179 63 275t183 96zM124 360q0 -150 42 -230.5t120 -80.5q76 0 120 81q21 41 32 97.5t11 132.5q0 148 -42 229t-121 81q-76 0 -119 -80.5t-43 -229.5z" />
<glyph unicode="&#xd8;" horiz-adv-x="584" d="M497 704l47 -29l-47 -73l1 -7l28 -103q5 -16 8 -43t3 -66q0 -193 -63.5 -293.5t-184.5 -100.5q-105 0 -163 70l-37 -58l-47 30l48 73l-2 4l-7 16q-20 55 -30 108.5t-10 118.5q0 184 63 282t185 98q52 0 93.5 -19t80.5 -62zM174 129q33 -79 116 -79q75 0 118 79 q21 39 32 93.5t11 126.5v35q-3 19 -4 29l-9 91l-2 16zM413 583q-27 46 -55 66t-66 20q-50 0 -86 -37q-32 -35 -54 -85t-22 -195q0 -82 11 -129l8 -36z" />
<glyph unicode="&#xd9;" horiz-adv-x="578" d="M518 211q0 -50 -15 -98.5t-73.5 -86.5t-139.5 -38q-49 0 -94 16q-23 8 -45 21.5t-46 34.5q-44 39 -44 151v510h80v-509q0 -75 39 -117t110 -42t109.5 41.5t38.5 117.5v509h80v-510zM226 955l143 -130l-32 -33l-166 109z" />
<glyph unicode="&#xda;" horiz-adv-x="578" d="M518 211q0 -50 -15 -98.5t-73.5 -86.5t-139.5 -38q-49 0 -94 16q-23 8 -45 21.5t-46 34.5q-44 39 -44 151v510h80v-509q0 -75 39 -117t110 -42t109.5 41.5t38.5 117.5v509h80v-510zM362 954l55 -55l-162 -110l-34 33z" />
<glyph unicode="&#xdb;" horiz-adv-x="578" d="M518 211q0 -50 -15 -98.5t-73.5 -86.5t-139.5 -38q-49 0 -94 16q-23 8 -45 21.5t-46 34.5q-44 39 -44 151v510h80v-509q0 -75 39 -117t110 -42t109.5 41.5t38.5 117.5v509h80v-510zM289 938l137 -109l-23 -40l-114 67l-115 -67l-23 35z" />
<glyph unicode="&#xdc;" horiz-adv-x="578" d="M204 848q23 0 38.5 -13.5t15.5 -32.5q0 -17 -16 -32q-15 -12 -38 -12q-21 0 -39 12q-16 13 -16 31t16 32.5t39 14.5zM374 848q25 0 39 -14q16 -13 16 -33q0 -17 -16 -30t-38 -13t-38 12t-16 31t15.5 33t37.5 14zM518 211q0 -50 -15 -98.5t-73.5 -86.5t-139.5 -38 q-49 0 -94 16q-23 8 -45 21.5t-46 34.5q-44 39 -44 151v510h80v-509q0 -75 39 -117t110 -42t109.5 41.5t38.5 117.5v509h80v-510z" />
<glyph unicode="&#xdf;" horiz-adv-x="497" d="M61 555q0 24 1.5 44t9.5 41q12 29 51 61q39 30 117 30q72 0 116 -34t44 -93q0 -45 -28 -85l-23 -30q-26 -38 -28 -55q0 -15 16 -37l29 -40l36 -46l32 -47q38 -61 38 -117q0 -72 -45.5 -114.5t-121.5 -42.5h-16h-12q-8 2 -13 2.5t-14.5 2.5t-23.5 7l11 55l30 -7l24 -2 q44 0 72.5 27.5t28.5 70.5q0 35 -25 75l-39 61l-27 39l-31 42q-24 38 -24 63q0 15 5.5 29t24.5 42l21 32q15 21 21 36t6 33q0 32 -24 55q-11 10 -27 16t-37 6q-45 0 -67 -21.5t-28 -42t-6 -56.5v-555h-74v555z" />
<glyph unicode="&#xe0;" horiz-adv-x="476" d="M342 351q0 25 -4 37q-9 58 -99 58q-33 0 -62 -5.5t-80 -24.5l-21 62q111 30 178 30q81 0 125 -37q20 -16 29 -40q7 -25 7 -69v-362h-69l-2 48q-38 -30 -75 -46q-36 -14 -74 -14q-73 0 -119 42t-46 114q0 76 53 122t140 46l53 -3l66 -12v54zM342 249l-51 7l-42 2 q-63 0 -100.5 -31t-37.5 -80q0 -41 30 -70q30 -27 78 -27q64 0 123 53v146zM175 705l143 -130l-32 -33l-166 109z" />
<glyph unicode="&#xe1;" horiz-adv-x="476" d="M342 351q0 25 -4 37q-9 58 -99 58q-33 0 -62 -5.5t-80 -24.5l-21 62q111 30 178 30q81 0 125 -37q20 -16 29 -40q7 -25 7 -69v-362h-69l-2 48q-38 -30 -75 -46q-36 -14 -74 -14q-73 0 -119 42t-46 114q0 76 53 122t140 46l53 -3l66 -12v54zM342 249l-51 7l-42 2 q-63 0 -100.5 -31t-37.5 -80q0 -41 30 -70q30 -27 78 -27q64 0 123 53v146zM311 704l55 -55l-162 -110l-34 33z" />
<glyph unicode="&#xe2;" horiz-adv-x="476" d="M342 351q0 25 -4 37q-9 58 -99 58q-33 0 -62 -5.5t-80 -24.5l-21 62q111 30 178 30q81 0 125 -37q20 -16 29 -40q7 -25 7 -69v-362h-69l-2 48q-38 -30 -75 -46q-36 -14 -74 -14q-73 0 -119 42t-46 114q0 76 53 122t140 46l53 -3l66 -12v54zM342 249l-51 7l-42 2 q-63 0 -100.5 -31t-37.5 -80q0 -41 30 -70q30 -27 78 -27q64 0 123 53v146zM238 688l137 -109l-23 -40l-114 67l-115 -67l-23 35z" />
<glyph unicode="&#xe3;" horiz-adv-x="476" d="M342 351q0 25 -4 37q-9 58 -99 58q-33 0 -62 -5.5t-80 -24.5l-21 62q111 30 178 30q81 0 125 -37q20 -16 29 -40q7 -25 7 -69v-362h-69l-2 48q-38 -30 -75 -46q-36 -14 -74 -14q-73 0 -119 42t-46 114q0 76 53 122t140 46l53 -3l66 -12v54zM342 249l-51 7l-42 2 q-63 0 -100.5 -31t-37.5 -80q0 -41 30 -70q30 -27 78 -27q64 0 123 53v146zM107 590q38 25 81 25q23 0 64 -12q18 -5 34.5 -8t29.5 -3q35 0 55 16v-54q-7 -3 -25 -8t-33 -5l-27 3l-32 10q-17 4 -35 7t-32 3q-36 0 -60 -12l-20 -11v49z" />
<glyph unicode="&#xe4;" horiz-adv-x="476" d="M161 635q21 0 37 -13t16 -30q0 -18 -15.5 -30.5t-37.5 -12.5q-20 0 -36 12t-16 30q0 17 15.5 30.5t36.5 13.5zM329 635q21 0 36.5 -12.5t15.5 -31.5q0 -14 -16 -29q-16 -13 -36 -13q-21 0 -36.5 12.5t-15.5 32.5q0 15 15 29q15 12 37 12zM342 351q0 25 -4 37 q-9 58 -99 58q-33 0 -62 -5.5t-80 -24.5l-21 62q111 30 178 30q81 0 125 -37q20 -16 29 -40q7 -25 7 -69v-362h-69l-2 48q-38 -30 -75 -46q-36 -14 -74 -14q-73 0 -119 42t-46 114q0 76 53 122t140 46l53 -3l66 -12v54zM342 249l-51 7l-42 2q-63 0 -100.5 -31t-37.5 -80 q0 -41 30 -70q30 -27 78 -27q64 0 123 53v146z" />
<glyph unicode="&#xe5;" horiz-adv-x="476" d="M342 351q0 25 -4 37q-9 58 -99 58q-33 0 -62 -5.5t-80 -24.5l-21 62q111 30 178 30q81 0 125 -37q20 -16 29 -40q7 -25 7 -69v-362h-69l-2 48q-38 -30 -75 -46q-36 -14 -74 -14q-73 0 -119 42t-46 114q0 76 53 122t140 46l53 -3l66 -12v54zM251 669q32 0 57 -18t25 -43 t-25 -44q-25 -17 -58 -17q-35 0 -57.5 17t-22.5 44q0 24 23 42.5t58 18.5zM342 249l-51 7l-42 2q-63 0 -100.5 -31t-37.5 -80q0 -41 30 -70q30 -27 78 -27q64 0 123 53v146zM208 608q0 -11 12 -20q14 -7 32 -7q19 0 30.5 6.5t11.5 20.5q0 10 -12 19q-6 4 -13 6t-18 2 q-18 0 -30 -7.5t-13 -19.5z" />
<glyph unicode="&#xe6;" horiz-adv-x="786" d="M346 359l-3 37q-14 52 -98 52q-64 0 -147 -31l-19 59l35 9q45 12 77 18q31 4 44.5 4.5t21.5 0.5q63 0 96 -18t45 -62q46 79 153 79q69 0 118 -39t62.5 -103.5t13.5 -139.5h-324q0 -83 45.5 -129.5t119.5 -46.5q29 0 59 6t65 20l15 -59q-84 -27 -147 -27q-129 0 -186 90 q-97 -91 -196 -91q-74 0 -118 42.5t-44 116.5q0 77 51.5 121t143.5 44q19 0 39 -2t60 -9l18 -4v62zM344 250l-47 8l-42 3q-69 0 -107.5 -29.5t-38.5 -81.5q0 -45 28 -74q29 -27 79 -27q75 0 152 76l-10 24l-9 34l-4 29zM418 278h256q0 171 -126 171q-61 0 -95.5 -45.5 t-34.5 -125.5z" />
<glyph unicode="&#xe7;" horiz-adv-x="404" d="M235 -28q22 0 37.5 -12.5t15.5 -34.5q0 -54 -99 -81v28q54 9 54 43q0 18 -24 18q-13 0 -36 -10l-1 33q13 8 26 12zM359 400q-59 44 -107 44q-61 0 -97 -52.5t-36 -146.5q0 -88 36 -140t98 -52q54 0 108 48l23 -62q-73 -50 -143 -50q-94 0 -147.5 68t-53.5 186 q0 120 54 192t147 72q70 0 141 -49z" />
<glyph unicode="&#xe8;" horiz-adv-x="479" d="M123 224q0 -82 45 -128t124 -46q27 0 54 6t66 21l15 -60q-80 -27 -150 -27q-111 0 -174 69q-30 34 -46 83.5t-16 112.5q0 117 55 184.5t154 67.5q93 0 144.5 -63.5t51.5 -181.5l-1 -38h-322zM120 279h251q0 170 -123 170q-59 0 -93.5 -44.5t-34.5 -125.5zM176 705 l143 -130l-32 -33l-166 109z" />
<glyph unicode="&#xe9;" horiz-adv-x="479" d="M123 224q0 -82 45 -128t124 -46q27 0 54 6t66 21l15 -60q-80 -27 -150 -27q-111 0 -174 69q-30 34 -46 83.5t-16 112.5q0 117 55 184.5t154 67.5q93 0 144.5 -63.5t51.5 -181.5l-1 -38h-322zM120 279h251q0 170 -123 170q-59 0 -93.5 -44.5t-34.5 -125.5zM313 704l55 -55 l-162 -110l-34 33z" />
<glyph unicode="&#xea;" horiz-adv-x="479" d="M123 224q0 -82 45 -128t124 -46q27 0 54 6t66 21l15 -60q-80 -27 -150 -27q-111 0 -174 69q-30 34 -46 83.5t-16 112.5q0 117 55 184.5t154 67.5q93 0 144.5 -63.5t51.5 -181.5l-1 -38h-322zM120 279h251q0 170 -123 170q-59 0 -93.5 -44.5t-34.5 -125.5zM239 688 l137 -109l-23 -40l-114 67l-115 -67l-23 35z" />
<glyph unicode="&#xeb;" horiz-adv-x="479" d="M123 224q0 -82 45 -128t124 -46q27 0 54 6t66 21l15 -60q-80 -27 -150 -27q-111 0 -174 69q-30 34 -46 83.5t-16 112.5q0 117 55 184.5t154 67.5q93 0 144.5 -63.5t51.5 -181.5l-1 -38h-322zM120 279h251q0 170 -123 170q-59 0 -93.5 -44.5t-34.5 -125.5zM158 624 q21 0 36 -12t15 -29q0 -18 -15 -30t-36 -12q-20 0 -36.5 12.5t-16.5 29.5q0 15 15 29q15 12 38 12zM319 624q20 0 36.5 -12.5t16.5 -28.5q0 -18 -15 -30t-38 -12q-21 0 -36 12t-15 30q0 15 15 29q15 12 36 12z" />
<glyph unicode="&#xec;" horiz-adv-x="182" d="M53 495l75 11v-506h-75v495zM29 705l143 -130l-32 -33l-166 109z" />
<glyph unicode="&#xed;" horiz-adv-x="182" d="M53 495l75 11v-506h-75v495zM166 704l55 -55l-162 -110l-34 33z" />
<glyph unicode="&#xee;" horiz-adv-x="182" d="M53 495l75 11v-506h-75v495zM92 688l137 -109l-23 -40l-114 67l-115 -67l-23 35z" />
<glyph unicode="&#xef;" horiz-adv-x="182" d="M53 495l75 11v-506h-75v495zM11 624q21 0 36 -12t15 -29q0 -18 -15 -30t-36 -12q-20 0 -36.5 12.5t-16.5 29.5q0 15 15 29q15 12 38 12zM172 624q20 0 36.5 -12.5t16.5 -28.5q0 -18 -15 -30t-38 -12q-21 0 -36 12t-15 30q0 15 15 29q15 12 36 12z" />
<glyph unicode="&#xf1;" d="M61 495l72 12v-49q77 51 150 51t106 -30t42 -57.5t9 -75.5v-346h-74v330v29l-7 35q-3 18 -30 36t-66 18q-57 0 -129 -51v-397h-73v495zM119 590q38 25 81 25q23 0 64 -12q18 -5 34.5 -8t29.5 -3q35 0 55 16v-54q-7 -3 -25 -8t-33 -5l-27 3l-32 10q-17 4 -35 7t-32 3 q-36 0 -60 -12l-20 -11v49z" />
<glyph unicode="&#xf2;" horiz-adv-x="503" d="M252 507q101 0 156 -67t55 -192t-54.5 -193t-156.5 -68t-156.5 67.5t-54.5 193.5q0 124 54.5 191.5t156.5 67.5zM121 248q0 -97 34 -149.5t97 -52.5t96.5 53t33.5 149t-34 148t-96 52q-63 0 -97 -52.5t-34 -147.5zM188 705l143 -130l-32 -33l-166 109z" />
<glyph unicode="&#xf3;" horiz-adv-x="503" d="M252 507q101 0 156 -67t55 -192t-54.5 -193t-156.5 -68t-156.5 67.5t-54.5 193.5q0 124 54.5 191.5t156.5 67.5zM121 248q0 -97 34 -149.5t97 -52.5t96.5 53t33.5 149t-34 148t-96 52q-63 0 -97 -52.5t-34 -147.5zM325 704l55 -55l-162 -110l-34 33z" />
<glyph unicode="&#xf4;" horiz-adv-x="503" d="M252 507q101 0 156 -67t55 -192t-54.5 -193t-156.5 -68t-156.5 67.5t-54.5 193.5q0 124 54.5 191.5t156.5 67.5zM121 248q0 -97 34 -149.5t97 -52.5t96.5 53t33.5 149t-34 148t-96 52q-63 0 -97 -52.5t-34 -147.5zM251 688l137 -109l-23 -40l-114 67l-115 -67l-23 35z " />
<glyph unicode="&#xf5;" horiz-adv-x="503" d="M252 507q101 0 156 -67t55 -192t-54.5 -193t-156.5 -68t-156.5 67.5t-54.5 193.5q0 124 54.5 191.5t156.5 67.5zM121 248q0 -97 34 -149.5t97 -52.5t96.5 53t33.5 149t-34 148t-96 52q-63 0 -97 -52.5t-34 -147.5zM120 590q38 25 81 25q23 0 64 -12q18 -5 34.5 -8 t29.5 -3q35 0 55 16v-54q-7 -3 -25 -8t-33 -5l-27 3l-32 10q-17 4 -35 7t-32 3q-36 0 -60 -12l-20 -11v49z" />
<glyph unicode="&#xf6;" horiz-adv-x="503" d="M168 636q22 0 36.5 -12.5t14.5 -29.5t-15 -32q-14 -12 -35 -12q-22 0 -37.5 12.5t-15.5 31.5q0 16 15 29t37 13zM336 636q22 0 37 -13t15 -29q0 -17 -16 -32q-15 -12 -38 -12q-22 0 -36.5 12.5t-14.5 31.5q0 15 15.5 28.5t37.5 13.5zM252 507q101 0 156 -67t55 -192 t-54.5 -193t-156.5 -68t-156.5 67.5t-54.5 193.5q0 124 54.5 191.5t156.5 67.5zM121 248q0 -97 34 -149.5t97 -52.5t96.5 53t33.5 149t-34 148t-96 52q-63 0 -97 -52.5t-34 -147.5z" />
<glyph unicode="&#xf7;" horiz-adv-x="594" d="M275 158q24 0 40 -16t16 -41q0 -24 -17 -40q-15 -17 -39 -17t-41 17q-16 19 -16 40q0 24 18 40.5t39 16.5zM506 202h-463v68h463v-68zM275 427q24 0 40 -17.5t16 -39.5q0 -24 -17 -40q-15 -17 -39 -17t-41 16q-16 18 -16 41q0 24 18 40.5t39 16.5z" />
<glyph unicode="&#xf8;" horiz-adv-x="508" d="M437 505l30 -28l-43 -53v-6l29 -77q10 -33 10 -82q0 -273 -212 -273q-71 0 -119 33l-20 20l-40 -45l-30 27l43 49q-19 17 -31.5 68t-12.5 114q0 122 55 189t157 67q85 0 144 -53zM159 98q24 -50 95 -50q61 0 94.5 50t33.5 145q0 49 -16 113zM350 399q-13 21 -41.5 35.5 t-56.5 14.5q-62 0 -95.5 -51.5t-33.5 -145.5q0 -38 3.5 -57t15.5 -54z" />
<glyph unicode="&#xf9;" horiz-adv-x="499" d="M218 -12q-157 0 -157 151v356l74 12v-353q0 -13 1 -25.5t5 -30t30.5 -33.5t65.5 -16q62 0 128 48v398h74v-495h-73l-1 37q-20 -13 -37.5 -21.5t-37.5 -15.5q-35 -12 -72 -12zM186 705l143 -130l-32 -33l-166 109z" />
<glyph unicode="&#xfa;" horiz-adv-x="499" d="M218 -12q-157 0 -157 151v356l74 12v-353q0 -13 1 -25.5t5 -30t30.5 -33.5t65.5 -16q62 0 128 48v398h74v-495h-73l-1 37q-20 -13 -37.5 -21.5t-37.5 -15.5q-35 -12 -72 -12zM323 704l55 -55l-162 -110l-34 33z" />
<glyph unicode="&#xfb;" horiz-adv-x="499" d="M218 -12q-157 0 -157 151v356l74 12v-353q0 -13 1 -25.5t5 -30t30.5 -33.5t65.5 -16q62 0 128 48v398h74v-495h-73l-1 37q-20 -13 -37.5 -21.5t-37.5 -15.5q-35 -12 -72 -12zM249 688l137 -109l-23 -40l-114 67l-115 -67l-23 35z" />
<glyph unicode="&#xfc;" horiz-adv-x="499" d="M166 634q21 0 36 -11.5t15 -28.5t-15 -32q-14 -12 -36 -12t-36.5 12.5t-14.5 31.5q0 14 15 28q15 12 36 12zM333 634q21 0 37 -13t16 -29q0 -14 -16 -29q-16 -13 -36 -13q-22 0 -36.5 12.5t-14.5 31.5q0 17 14.5 28.5t35.5 11.5zM218 -12q-157 0 -157 151v356l74 12v-353 q0 -13 1 -25.5t5 -30t30.5 -33.5t65.5 -16q62 0 128 48v398h74v-495h-73l-1 37q-20 -13 -37.5 -21.5t-37.5 -15.5q-35 -12 -72 -12z" />
<glyph unicode="&#xff;" horiz-adv-x="413" d="M69 506l123 -399l13 -55l11 55l125 388h81l-191 -570q-24 -71 -53.5 -99.5t-79.5 -28.5h-17h-13q-7 2 -10 2l-47 12l17 57q12 -5 28.5 -9t28.5 -4q30 0 48 19q17 14 35 68l20 58h-37l-160 495zM125 624q21 0 36 -12t15 -29q0 -18 -15 -30t-36 -12q-20 0 -36.5 12.5 t-16.5 29.5q0 15 15 29q15 12 38 12zM286 624q20 0 36.5 -12.5t16.5 -28.5q0 -18 -15 -30t-38 -12q-21 0 -36 12t-15 30q0 15 15 29q15 12 36 12z" />
<glyph unicode="&#x125;" horiz-adv-x="469" d="M366 642q-58 26 -109 26q-66 0 -107 -33.5t-41 -89.5q0 -46 32 -78q12 -15 34 -28l92 -46q71 -31 122 -72.5t51 -126.5q0 -90 -64 -147.5t-166 -57.5q-44 0 -84 10q-42 9 -95 35l25 63q88 -44 152 -44q65 0 107 36t42 94q0 52 -31.5 81.5t-102.5 62.5l-94 46 q-21 11 -60 50t-39 115q0 85 61.5 139t159.5 54q32 0 62 -5.5t40 -8t36 -12.5zM119 938l115 -67l114 67l23 -42l-137 -108l-138 115z" />
<glyph unicode="&#x126;" horiz-adv-x="401" d="M52 89q75 -36 134 -36q49 0 79 20t30 52q0 24 -24 45q-20 16 -86 51.5t-81 45.5q-9 6 -19.5 14.5t-25 23t-21.5 32.5t-7 44q0 57 50 94t127 37q29 0 40 -1.5t31.5 -6t41 -11t42.5 -15.5l-22 -60q-78 32 -133 32q-45 0 -73 -18t-28 -49q0 -36 40 -61l78 -42l79 -43 q39 -24 54.5 -48.5t15.5 -59.5q0 -63 -50.5 -102t-132.5 -39q-69 0 -164 37zM85 688l115 -67l114 67l23 -42l-137 -108l-138 115z" />
<glyph unicode="&#x127;" horiz-adv-x="453" d="M21 53l299 573q8 20 32 42q-27 -6 -45 -6l-266 6v53h389v-53l-297 -569l-20 -28l-15 -18q27 10 50 10h7l276 -7v-56h-410v53zM111 938l115 -67l114 67l23 -42l-137 -108l-138 115z" />
<glyph unicode="&#x128;" horiz-adv-x="418" d="M19 40l262 372l12 15q7 8 23 17q-21 -6 -41 -6h-9l-235 7v50h366v-40l-256 -367l-16 -20l-22 -18q14 4 23 6t20 2h6l246 -7v-51h-379v40zM94 688l115 -67l114 67l23 -42l-137 -108l-138 115z" />
<glyph unicode="&#x131;" horiz-adv-x="182" d="M53 495l75 11v-506h-75v495z" />
<glyph unicode="&#x152;" horiz-adv-x="775" d="M406 0h-18l-14 -1l-35 -5q-27 -6 -51 -6q-117 0 -182 98t-65 275q0 178 66 274t191 96l43 -3l36 -7h51h313v-55l-280 -13v-276h248v-56h-248v-254l274 -13v-54h-329zM379 650q-38 19 -81 19q-83 0 -127.5 -78.5t-44.5 -228.5q0 -151 45.5 -231t131.5 -80q24 0 41 3.5 t35 15.5v580z" />
<glyph unicode="&#x153;" horiz-adv-x="834" d="M599 506q195 0 195 -250l-2 -31h-324q17 -177 167 -177q52 0 124 27l15 -59l-6 -1l-78 -20q-30 -6 -61 -6q-141 0 -195 108q-47 -111 -181 -111q-101 0 -156.5 66.5t-55.5 188.5q0 130 55 199t157 69q126 0 175 -103q27 51 70 75.5t101 24.5zM117 246q0 -98 36 -150.5 t101 -52.5q138 0 138 201q0 100 -35.5 154t-102.5 54t-102 -53t-35 -153zM466 278h256q0 86 -32 128t-93 42q-60 0 -95.5 -44.5t-35.5 -121.5v-4z" />
<glyph unicode="&#x178;" horiz-adv-x="463" d="M69 721l143 -302l9 -27l9 -33q8 40 19 60l142 302h94l-216 -418v-303h-80v303l-212 418h92zM150 874q21 0 36 -12t15 -29q0 -18 -15 -30t-36 -12q-20 0 -36.5 12.5t-16.5 29.5q0 15 15 29q15 12 38 12zM311 874q20 0 36.5 -12.5t16.5 -28.5q0 -18 -15 -30t-38 -12 q-21 0 -36 12t-15 30q0 15 15 29q15 12 36 12z" />
<glyph unicode="&#x192;" horiz-adv-x="376" d="M-67 -131l23 -5l23 -1q47 0 65.5 18.5t24.5 69.5l51 483l-65 4l6 54l63 2l10 87l7 38q3 19 9.5 37t42.5 42q38 22 84 22l41 -2l29 -3q7 0 16 -5l-20 -55l-14 3l-21 4l-26 1q-65 0 -76 -90l-7 -81h127l-5 -53l-131 -5l-49 -490l-5 -33q-1 -14 -11 -39.5t-48.5 -48 t-86.5 -22.5h-17q-9 0 -21 2q-14 0 -42 7z" />
<glyph unicode="&#x2ba;" horiz-adv-x="219" d="M183 704l55 -55l-162 -110l-34 33z" />
<glyph unicode="&#x2c7;" horiz-adv-x="288" d="M29 688l115 -67l114 67l23 -42l-137 -108l-138 115z" />
<glyph unicode="&#x2c9;" horiz-adv-x="280" d="M1 602h279v-53h-279v53z" />
<glyph unicode="&#x2d8;" horiz-adv-x="278" d="M38 676q23 -38 44.5 -54t54.5 -16q37 0 57.5 14t47.5 55l36 -26q-27 -59 -57 -85q-29 -23 -76 -23q-55 0 -84.5 23.5t-57.5 90.5z" />
<glyph unicode="&#x2d9;" horiz-adv-x="289" d="M40 879l205 -82l-18 -32l-221 47z" />
<glyph unicode="&#x2da;" horiz-adv-x="243" d="M121 668q32 0 57 -18t25 -44q0 -24 -25 -43q-25 -17 -58 -17q-34 0 -57 17.5t-23 42.5t23 43.5t58 18.5zM78 606q0 -10 12.5 -18.5t31.5 -8.5q17 0 29 7.5t13 19.5q0 11 -12 20q-6 4 -13 6t-18 2q-18 0 -30 -7.5t-13 -20.5z" />
<glyph unicode="&#x2db;" horiz-adv-x="179" d="M90 75q23 0 39.5 -12.5t16.5 -31.5q0 -18 -15.5 -30t-39.5 -12t-41.5 12t-17.5 31q0 17 17.5 30t40.5 13z" />
<glyph unicode="&#x302;" horiz-adv-x="288" d="M144 688l137 -109l-23 -40l-114 67l-115 -67l-23 35z" />
<glyph unicode="&#x303;" horiz-adv-x="266" d="M2 590q38 25 81 25q23 0 64 -12q18 -5 34.5 -8t29.5 -3q35 0 55 16v-54q-7 -3 -25 -8t-33 -5l-27 3l-32 10q-17 4 -35 7t-32 3q-36 0 -60 -12l-20 -11v49z" />
<glyph unicode="&#x3a3;" horiz-adv-x="771" d="M618 643l15 -129h-44q-32 105 -85 144t-169 39h-132l315 -431l-344 -394h187q64 0 104.5 7.5t67.5 24.5q50 30 83 116h45l-30 -130l-2 -7q-23 -99 -111 -99h-482l389 446l-375 514h460q64 0 82 -15q16 -11 26 -86z" />
<glyph unicode="&#x3a9;" horiz-adv-x="830" d="M593 90q48 0 68 18.5t20 67.5h23v-176h-272v180q76 15 122 77t46 151q0 106 -59 168.5t-157 62.5q-97 0 -156.5 -62.5t-59.5 -168.5q0 -91 44 -150.5t124 -77.5v-180h-272v176h23q0 -48 19 -67t69 -19h123v59q-118 21 -183 89t-65 170q0 120 93 193.5t241 73.5 q149 0 241.5 -73t92.5 -194q0 -100 -63.5 -167.5t-184.5 -91.5v-59h123z" />
<glyph unicode="&#x3c0;" horiz-adv-x="594" d="M404 373l-1 -24l-3 -150v-40q0 -86 8.5 -106t30.5 -20q26 0 42 30t16 88h25v-5q0 -80 -26 -118t-80 -38q-55 0 -80 40q-11 19 -17 60t-6 104l1 78l3 104l-50 1l-77 2q0 -237 -23 -313t-80 -76q-34 0 -53 29q-17 29 -17 86v19h24q0 -26 9 -39t28 -13q42 0 54 47t18 110 t6 150h-22q-39 0 -60 -14q-21 -12 -27 -39h-23q0 34 9.5 57.5t36.5 44.5t113 21l102 -3l152 -3q34 0 48.5 6.5t17.5 21.5l23 1q0 -51 -23.5 -75.5t-74.5 -24.5h-14z" />
<glyph unicode="&#x2013;" d="M38 385h425v-59h-425v59z" />
<glyph unicode="&#x2014;" horiz-adv-x="996" d="M30 386h936v-52h-936v52z" />
<glyph unicode="&#x2018;" horiz-adv-x="178" d="M119 708l38 -11l-50 -202h-88z" />
<glyph unicode="&#x2019;" horiz-adv-x="178" d="M69 708h88l-99 -213l-39 10z" />
<glyph unicode="&#x201a;" horiz-adv-x="176" d="M55 81h88l-100 -213l-38 11z" />
<glyph unicode="&#x201c;" horiz-adv-x="305" d="M119 708l38 -11l-50 -202h-88zM246 708l38 -11l-49 -202h-88z" />
<glyph unicode="&#x201d;" horiz-adv-x="305" d="M69 708h88l-99 -213l-39 10zM197 708h87l-98 -213l-39 10z" />
<glyph unicode="&#x201e;" horiz-adv-x="304" d="M55 81h88l-100 -213l-38 11zM183 81h87l-99 -213l-38 11z" />
<glyph unicode="&#x2020;" horiz-adv-x="569" d="M26 493h217v228h82v-228h218v-81h-217v-506h-84v506h-216v81z" />
<glyph unicode="&#x2021;" horiz-adv-x="597" d="M256 115l-1 294l-214 -1v82h215l-1 225h83l1 -224h217v-82h-215l1 -293h214l1 -80h-216v-228l-85 1v227l-216 -1v80h216z" />
<glyph unicode="&#x2022;" horiz-adv-x="179" d="M90 291q23 0 40 -12t17 -30q0 -17 -16 -29q-7 -5 -17 -8t-23 -3q-24 0 -40 11t-19 28q0 17 17.5 30t40.5 13z" />
<glyph unicode="&#x2026;" horiz-adv-x="996" d="M140 74q15 13 35 13t33 -14q14 -12 14 -34q0 -19 -14 -33t-35 -14q-19 0 -33 14t-14 34t14 34zM473 74q15 13 35 13t33 -14q14 -12 14 -34q0 -19 -14 -33t-35 -14q-19 0 -33 14t-14 34t14 34zM833 88q20 0 34 -14t14 -34t-14 -34t-34 -14t-34 14t-14 34t14 34t34 14z" />
<glyph unicode="&#x2030;" horiz-adv-x="915" d="M172 733q60 0 95.5 -49t35.5 -134q0 -84 -35 -132.5t-96 -48.5q-60 0 -96 48.5t-36 132.5t35 133.5t97 49.5zM528 721h44l-481 -721h-47zM444 351q58 0 94.5 -49t36.5 -133q0 -81 -36 -131.5t-95 -50.5t-94.5 49t-35.5 133t35.5 133t94.5 49zM744 351q58 0 94.5 -49 t36.5 -133q0 -81 -36 -131.5t-95 -50.5q-58 0 -94.5 49.5t-36.5 132.5q0 81 36 131.5t95 50.5zM370 169q0 -59 20 -95t54 -36t54 35t20 96q0 62 -20 97t-54 35q-33 0 -53.5 -35.5t-20.5 -96.5zM96 551q0 -62 20.5 -97.5t55.5 -35.5q33 0 53.5 36.5t20.5 96.5q0 62 -20 97 t-54 35q-33 0 -56 -36q-20 -35 -20 -96zM669 169q0 -62 20 -96.5t55 -34.5q32 0 52.5 36.5t20.5 94.5q0 62 -20 97t-53 35q-34 0 -54.5 -35.5t-20.5 -96.5z" />
<glyph unicode="&#x2039;" horiz-adv-x="241" d="M158 448l43 -19l-90 -181l89 -180l-44 -16l-116 196z" />
<glyph unicode="&#x203a;" horiz-adv-x="239" d="M125 248l-83 183l41 18l116 -201l-118 -195l-41 15z" />
<glyph unicode="&#x20ac;" horiz-adv-x="551" d="M533 692q-42 18 -84.5 28t-76.5 10q-118 0 -181 -95t-63 -281q0 -180 62 -272.5t182 -92.5q74 0 158 41l-14 60q-76 -41 -135 -41q-165 0 -165 299q0 322 164 322q16 0 29.5 -2t28.5 -5q38 -12 61 -23zM422 458h-345l-34 -46h353zM380 372h-293l-30 -44h299z" />
<glyph unicode="&#x2122;" horiz-adv-x="798" d="M53 720h215v-45l-83 1v-316h-50v316l-82 -1v45zM328 732h16l112 -246l6 -15l2 -5q6 -15 6 -34l1 15l6 20l3 7l5 12l112 246h16l72 -372h-51l-38 217l-2 13l-1 4v16l1 16l-4 -14l-5 -17l-4 -12l-2 -4l-103 -229h-11l-103 229l-3 6l-3 10l-9 31l1 -20v-12l-1 -4l-2 -13 l-38 -217h-51z" />
<glyph unicode="&#x2202;" horiz-adv-x="534" d="M358 287l6 28l3 31l3 89q0 85 -15.5 126t-47.5 41q-18 0 -50 -35t-56 -35q-15 0 -26 7q-8 7 -11 25q0 27 30 50q30 21 72 21q76 0 110 -53t47 -102.5t13 -112.5q0 -163 -64 -271.5t-158 -108.5q-66 0 -109 51t-43 137q0 81 53 143t125 62q44 0 72 -21.5t46 -71.5z M256 349q-50 0 -86 -60q-34 -62 -34 -161q0 -56 21.5 -87.5t62.5 -31.5q53 0 87 62.5t34 152.5q0 57 -22 91t-63 34z" />
<glyph unicode="&#x2206;" horiz-adv-x="662" d="M595 0h-574l276 672h22zM92 45h373l-186 459z" />
<glyph unicode="&#x220f;" horiz-adv-x="890" d="M118 -176v880h-88v40h767v-40h-88v-880h88v-40h-264v40h84v880h-407v-880h84v-40h-264v40h88z" />
<glyph unicode="&#x2215;" horiz-adv-x="217" d="M309 721h55l-450 -721h-58z" />
<glyph unicode="&#x2219;" horiz-adv-x="179" d="M90 291q23 0 40 -12t17 -30q0 -17 -16 -29q-7 -5 -17 -8t-23 -3q-24 0 -40 11t-19 28q0 17 17.5 30t40.5 13z" />
<glyph unicode="&#x221a;" horiz-adv-x="594" d="M594 764h-57l-290 -784h-32l-156 431l-61 -22l-12 39l138 48l125 -346l252 681h93v-47z" />
<glyph unicode="&#x221e;" horiz-adv-x="771" d="M366 238q-33 -61 -72 -93q-19 -16 -39.5 -23.5t-45.5 -7.5q-66 0 -111 52.5t-45 131.5q0 83 41 134.5t105 51.5q46 0 82 -29.5t66 -94.5q30 62 69 93q20 15 41.5 23t46.5 8q63 0 109 -53q23 -26 34.5 -58.5t11.5 -72.5q0 -84 -40 -135t-105 -51q-45 0 -84 30 q-36 30 -64 94zM330 327q-26 46 -59 69.5t-76 23.5q-52 0 -84.5 -35t-32.5 -90q0 -54 29 -89q31 -34 77 -34q39 0 71 31.5t75 123.5zM383 271q22 -45 57.5 -69t77.5 -24q52 0 84.5 35t32.5 90q0 54 -30.5 88.5t-79.5 34.5q-35 0 -71 -36q-32 -35 -71 -119z" />
<glyph unicode="&#x222b;" horiz-adv-x="296" d="M283 757q36 0 58.5 -18.5t22.5 -48.5q0 -20 -12.5 -34t-36.5 -14q-28 0 -43.5 31.5t-29.5 32.5q-57 0 -57 -310l-3 -98v-16v-13v-12q0 -20 -1 -40t-4 -39q0 -26 -3.5 -56.5t-11.5 -87t-29 -103.5t-60.5 -79.5t-81.5 -32.5q-35 0 -58 18.5t-23 48.5q0 21 12.5 34t36.5 13 q28 0 43 -30t31 -33q57 0 57 324l2 84q0 21 2 67.5t2 48.5q0 23 3.5 54t11 89.5t30.5 106.5q21 51 59.5 82t82.5 31z" />
<glyph unicode="&#x2248;" horiz-adv-x="594" d="M15 100v77q23 14 43.5 24.5t43.5 19.5q39 14 74 14q43 0 114.5 -24t99.5 -24q26 0 59.5 15t84.5 52v-78q-22 -14 -41 -24.5t-36 -17.5q-36 -13 -72 -13q-18 0 -41 5t-63 18q-72 24 -116 24q-29 0 -55 -11.5t-47 -24.5q-16 -9 -23.5 -14t-24.5 -18zM15 219v77l43 25l51 21 q31 11 66 11q42 0 115 -23.5t100 -23.5q29 0 60 14q16 7 36.5 19.5t47.5 32.5v-77l-41 -24l-49 -22q-26 -9 -59 -9q-36 0 -106 23.5t-109 23.5q-37 0 -66 -14q-28 -11 -89 -54z" />
<glyph unicode="&#x2260;" horiz-adv-x="594" d="M413 336h91v-64h-149l-73 -72h222v-64h-281l-118 -118l-43 44l74 74h-91v64h150l73 72h-223v64h281l118 118l44 -44z" />
<glyph unicode="&#x2264;" horiz-adv-x="594" d="M506 18h-463v68h463v-68zM162 280l344 -107v-70l-462 145v65l462 145v-70z" />
<glyph unicode="&#x2265;" horiz-adv-x="594" d="M506 18h-463v68h463v-68zM506 248l-463 -145v70l344 107l-344 108v70l463 -145v-65z" />
<glyph unicode="&#x25ca;" horiz-adv-x="534" d="M247 807l244 -518l-244 -522l-244 522zM247 688l-188 -399l188 -403l188 403z" />
<glyph unicode="&#x25fc;" horiz-adv-x="505" d="M0 505h505v-505h-505v505z" />
<glyph unicode="&#xf000;" horiz-adv-x="854" d="M408 594l-1 7v11q0 60 45.5 111.5t116.5 64.5v-12l1 -18q0 -62 -50.5 -113.5t-99.5 -51.5h-4zM735 197q-28 -60 -53.5 -102.5t-47.5 -65.5q-46 -46 -99 -46q-25 0 -65.5 16t-58.5 16q-23 0 -65 -16t-61 -16q-30 0 -63 21l-31 27l-48 60q-30 43 -60 121q-14 41 -21 76.5 t-7 71.5q0 107 61.5 174.5t157.5 67.5q16 0 31.5 -3t26.5 -6.5t29 -11.5q11 -4 26.5 -8.5t22.5 -4.5q20 0 62 17t72 17q56 0 97 -20q42 -18 78 -60q-47 -30 -74 -71q-24 -39 -24 -89q0 -53 30 -97t84 -68z" />
<glyph unicode="&#xf001;" d="M141 525l109 -109l110 112l43 -45l-110 -110l110 -111l-43 -44l-110 111l-107 -107l-45 45l106 106l-108 109z" />
<glyph unicode="&#xf002;" horiz-adv-x="326" d="M168 721h48v-652h112v-69h-306v69h114v565l-112 -50l-13 42z" />
</font>
</defs>
</svg>
